<?xml version="1.0" encoding="utf-8" standalone="no"?>
<!DOCTYPE svg PUBLIC "-//W3C//DTD SVG 1.1//EN"
  "http://www.w3.org/Graphics/SVG/1.1/DTD/svg11.dtd">
<svg xmlns:xlink="http://www.w3.org/1999/xlink" width="864pt" height="576pt" viewBox="0 0 864 576" xmlns="http://www.w3.org/2000/svg" version="1.1">
 <metadata>
  <rdf:RDF xmlns:dc="http://purl.org/dc/elements/1.1/" xmlns:cc="http://creativecommons.org/ns#" xmlns:rdf="http://www.w3.org/1999/02/22-rdf-syntax-ns#">
   <cc:Work>
    <dc:type rdf:resource="http://purl.org/dc/dcmitype/StillImage"/>
    <dc:date>2025-03-14T16:17:21.731849</dc:date>
    <dc:format>image/svg+xml</dc:format>
    <dc:creator>
     <cc:Agent>
      <dc:title>Matplotlib v3.9.2, https://matplotlib.org/</dc:title>
     </cc:Agent>
    </dc:creator>
   </cc:Work>
  </rdf:RDF>
 </metadata>
 <defs>
  <style type="text/css">*{stroke-linejoin: round; stroke-linecap: butt}</style>
 </defs>
 <g id="figure_1">
  <g id="patch_1">
   <path d="M 0 576 
L 864 576 
L 864 0 
L 0 0 
z
" style="fill: #ffffff"/>
  </g>
  <g id="axes_1">
   <g id="patch_2">
    <path d="M 108 512.64 
L 777.6 512.64 
L 777.6 69.12 
L 108 69.12 
z
" style="fill: #ffffff"/>
   </g>
   <g id="matplotlib.axis_1">
    <g id="xtick_1">
     <g id="line2d_1">
      <path d="M 138.436364 512.64 
L 138.436364 69.12 
" clip-path="url(#pd2e1d393c9)" style="fill: none; stroke: #cccccc; stroke-linecap: round"/>
     </g>
     <g id="text_1">
      <!-- 0.0 -->
      <g style="fill: #262626" transform="translate(129.262364 531.588313) scale(0.132 -0.132)">
       <defs>
        <path id="ArialMT-30" d="M 266 2259 
Q 266 3072 433 3567 
Q 600 4063 929 4331 
Q 1259 4600 1759 4600 
Q 2128 4600 2406 4451 
Q 2684 4303 2865 4023 
Q 3047 3744 3150 3342 
Q 3253 2941 3253 2259 
Q 3253 1453 3087 958 
Q 2922 463 2592 192 
Q 2263 -78 1759 -78 
Q 1097 -78 719 397 
Q 266 969 266 2259 
z
M 844 2259 
Q 844 1131 1108 757 
Q 1372 384 1759 384 
Q 2147 384 2411 759 
Q 2675 1134 2675 2259 
Q 2675 3391 2411 3762 
Q 2147 4134 1753 4134 
Q 1366 4134 1134 3806 
Q 844 3388 844 2259 
z
" transform="scale(0.015625)"/>
        <path id="ArialMT-2e" d="M 581 0 
L 581 641 
L 1222 641 
L 1222 0 
L 581 0 
z
" transform="scale(0.015625)"/>
       </defs>
       <use xlink:href="#ArialMT-30"/>
       <use xlink:href="#ArialMT-2e" x="55.615234"/>
       <use xlink:href="#ArialMT-30" x="83.398438"/>
      </g>
     </g>
    </g>
    <g id="xtick_2">
     <g id="line2d_2">
      <path d="M 260.435455 512.64 
L 260.435455 69.12 
" clip-path="url(#pd2e1d393c9)" style="fill: none; stroke: #cccccc; stroke-linecap: round"/>
     </g>
     <g id="text_2">
      <!-- 0.2 -->
      <g style="fill: #262626" transform="translate(251.261455 531.588313) scale(0.132 -0.132)">
       <defs>
        <path id="ArialMT-32" d="M 3222 541 
L 3222 0 
L 194 0 
Q 188 203 259 391 
Q 375 700 629 1000 
Q 884 1300 1366 1694 
Q 2113 2306 2375 2664 
Q 2638 3022 2638 3341 
Q 2638 3675 2398 3904 
Q 2159 4134 1775 4134 
Q 1369 4134 1125 3890 
Q 881 3647 878 3216 
L 300 3275 
Q 359 3922 746 4261 
Q 1134 4600 1788 4600 
Q 2447 4600 2831 4234 
Q 3216 3869 3216 3328 
Q 3216 3053 3103 2787 
Q 2991 2522 2730 2228 
Q 2469 1934 1863 1422 
Q 1356 997 1212 845 
Q 1069 694 975 541 
L 3222 541 
z
" transform="scale(0.015625)"/>
       </defs>
       <use xlink:href="#ArialMT-30"/>
       <use xlink:href="#ArialMT-2e" x="55.615234"/>
       <use xlink:href="#ArialMT-32" x="83.398438"/>
      </g>
     </g>
    </g>
    <g id="xtick_3">
     <g id="line2d_3">
      <path d="M 382.434545 512.64 
L 382.434545 69.12 
" clip-path="url(#pd2e1d393c9)" style="fill: none; stroke: #cccccc; stroke-linecap: round"/>
     </g>
     <g id="text_3">
      <!-- 0.4 -->
      <g style="fill: #262626" transform="translate(373.260545 531.588313) scale(0.132 -0.132)">
       <defs>
        <path id="ArialMT-34" d="M 2069 0 
L 2069 1097 
L 81 1097 
L 81 1613 
L 2172 4581 
L 2631 4581 
L 2631 1613 
L 3250 1613 
L 3250 1097 
L 2631 1097 
L 2631 0 
L 2069 0 
z
M 2069 1613 
L 2069 3678 
L 634 1613 
L 2069 1613 
z
" transform="scale(0.015625)"/>
       </defs>
       <use xlink:href="#ArialMT-30"/>
       <use xlink:href="#ArialMT-2e" x="55.615234"/>
       <use xlink:href="#ArialMT-34" x="83.398438"/>
      </g>
     </g>
    </g>
    <g id="xtick_4">
     <g id="line2d_4">
      <path d="M 504.433636 512.64 
L 504.433636 69.12 
" clip-path="url(#pd2e1d393c9)" style="fill: none; stroke: #cccccc; stroke-linecap: round"/>
     </g>
     <g id="text_4">
      <!-- 0.6 -->
      <g style="fill: #262626" transform="translate(495.259636 531.588313) scale(0.132 -0.132)">
       <defs>
        <path id="ArialMT-36" d="M 3184 3459 
L 2625 3416 
Q 2550 3747 2413 3897 
Q 2184 4138 1850 4138 
Q 1581 4138 1378 3988 
Q 1113 3794 959 3422 
Q 806 3050 800 2363 
Q 1003 2672 1297 2822 
Q 1591 2972 1913 2972 
Q 2475 2972 2870 2558 
Q 3266 2144 3266 1488 
Q 3266 1056 3080 686 
Q 2894 316 2569 119 
Q 2244 -78 1831 -78 
Q 1128 -78 684 439 
Q 241 956 241 2144 
Q 241 3472 731 4075 
Q 1159 4600 1884 4600 
Q 2425 4600 2770 4297 
Q 3116 3994 3184 3459 
z
M 888 1484 
Q 888 1194 1011 928 
Q 1134 663 1356 523 
Q 1578 384 1822 384 
Q 2178 384 2434 671 
Q 2691 959 2691 1453 
Q 2691 1928 2437 2201 
Q 2184 2475 1800 2475 
Q 1419 2475 1153 2201 
Q 888 1928 888 1484 
z
" transform="scale(0.015625)"/>
       </defs>
       <use xlink:href="#ArialMT-30"/>
       <use xlink:href="#ArialMT-2e" x="55.615234"/>
       <use xlink:href="#ArialMT-36" x="83.398438"/>
      </g>
     </g>
    </g>
    <g id="xtick_5">
     <g id="line2d_5">
      <path d="M 626.432727 512.64 
L 626.432727 69.12 
" clip-path="url(#pd2e1d393c9)" style="fill: none; stroke: #cccccc; stroke-linecap: round"/>
     </g>
     <g id="text_5">
      <!-- 0.8 -->
      <g style="fill: #262626" transform="translate(617.258727 531.588313) scale(0.132 -0.132)">
       <defs>
        <path id="ArialMT-38" d="M 1131 2484 
Q 781 2613 612 2850 
Q 444 3088 444 3419 
Q 444 3919 803 4259 
Q 1163 4600 1759 4600 
Q 2359 4600 2725 4251 
Q 3091 3903 3091 3403 
Q 3091 3084 2923 2848 
Q 2756 2613 2416 2484 
Q 2838 2347 3058 2040 
Q 3278 1734 3278 1309 
Q 3278 722 2862 322 
Q 2447 -78 1769 -78 
Q 1091 -78 675 323 
Q 259 725 259 1325 
Q 259 1772 486 2073 
Q 713 2375 1131 2484 
z
M 1019 3438 
Q 1019 3113 1228 2906 
Q 1438 2700 1772 2700 
Q 2097 2700 2305 2904 
Q 2513 3109 2513 3406 
Q 2513 3716 2298 3927 
Q 2084 4138 1766 4138 
Q 1444 4138 1231 3931 
Q 1019 3725 1019 3438 
z
M 838 1322 
Q 838 1081 952 856 
Q 1066 631 1291 507 
Q 1516 384 1775 384 
Q 2178 384 2440 643 
Q 2703 903 2703 1303 
Q 2703 1709 2433 1975 
Q 2163 2241 1756 2241 
Q 1359 2241 1098 1978 
Q 838 1716 838 1322 
z
" transform="scale(0.015625)"/>
       </defs>
       <use xlink:href="#ArialMT-30"/>
       <use xlink:href="#ArialMT-2e" x="55.615234"/>
       <use xlink:href="#ArialMT-38" x="83.398438"/>
      </g>
     </g>
    </g>
    <g id="xtick_6">
     <g id="line2d_6">
      <path d="M 748.431818 512.64 
L 748.431818 69.12 
" clip-path="url(#pd2e1d393c9)" style="fill: none; stroke: #cccccc; stroke-linecap: round"/>
     </g>
     <g id="text_6">
      <!-- 1.0 -->
      <g style="fill: #262626" transform="translate(739.257818 531.588313) scale(0.132 -0.132)">
       <defs>
        <path id="ArialMT-31" d="M 2384 0 
L 1822 0 
L 1822 3584 
Q 1619 3391 1289 3197 
Q 959 3003 697 2906 
L 697 3450 
Q 1169 3672 1522 3987 
Q 1875 4303 2022 4600 
L 2384 4600 
L 2384 0 
z
" transform="scale(0.015625)"/>
       </defs>
       <use xlink:href="#ArialMT-31"/>
       <use xlink:href="#ArialMT-2e" x="55.615234"/>
       <use xlink:href="#ArialMT-30" x="83.398438"/>
      </g>
     </g>
    </g>
    <g id="text_7">
     <!-- $t$ -->
     <g style="fill: #262626" transform="translate(439.92 548.519063) scale(0.144 -0.144)">
      <defs>
       <path id="DejaVuSans-Oblique-74" d="M 2706 3500 
L 2619 3053 
L 1472 3053 
L 1100 1153 
Q 1081 1047 1072 975 
Q 1063 903 1063 863 
Q 1063 663 1183 572 
Q 1303 481 1569 481 
L 2150 481 
L 2053 0 
L 1503 0 
Q 991 0 739 200 
Q 488 400 488 806 
Q 488 878 497 964 
Q 506 1050 525 1153 
L 897 3053 
L 409 3053 
L 500 3500 
L 978 3500 
L 1172 4494 
L 1747 4494 
L 1556 3500 
L 2706 3500 
z
" transform="scale(0.015625)"/>
      </defs>
      <use xlink:href="#DejaVuSans-Oblique-74" transform="translate(0 0.78125)"/>
     </g>
    </g>
   </g>
   <g id="matplotlib.axis_2">
    <g id="ytick_1">
     <g id="line2d_7">
      <path d="M 108 492.48 
L 777.6 492.48 
" clip-path="url(#pd2e1d393c9)" style="fill: none; stroke: #cccccc; stroke-linecap: round"/>
     </g>
     <g id="text_8">
      <!-- 0 -->
      <g style="fill: #262626" transform="translate(91.159562 497.204156) scale(0.132 -0.132)">
       <use xlink:href="#ArialMT-30"/>
      </g>
     </g>
    </g>
    <g id="ytick_2">
     <g id="line2d_8">
      <path d="M 108 415.533271 
L 777.6 415.533271 
" clip-path="url(#pd2e1d393c9)" style="fill: none; stroke: #cccccc; stroke-linecap: round"/>
     </g>
     <g id="text_9">
      <!-- 1 -->
      <g style="fill: #262626" transform="translate(91.159562 420.257427) scale(0.132 -0.132)">
       <use xlink:href="#ArialMT-31"/>
      </g>
     </g>
    </g>
    <g id="ytick_3">
     <g id="line2d_9">
      <path d="M 108 338.586541 
L 777.6 338.586541 
" clip-path="url(#pd2e1d393c9)" style="fill: none; stroke: #cccccc; stroke-linecap: round"/>
     </g>
     <g id="text_10">
      <!-- 2 -->
      <g style="fill: #262626" transform="translate(91.159562 343.310698) scale(0.132 -0.132)">
       <use xlink:href="#ArialMT-32"/>
      </g>
     </g>
    </g>
    <g id="ytick_4">
     <g id="line2d_10">
      <path d="M 108 261.639812 
L 777.6 261.639812 
" clip-path="url(#pd2e1d393c9)" style="fill: none; stroke: #cccccc; stroke-linecap: round"/>
     </g>
     <g id="text_11">
      <!-- 3 -->
      <g style="fill: #262626" transform="translate(91.159562 266.363968) scale(0.132 -0.132)">
       <defs>
        <path id="ArialMT-33" d="M 269 1209 
L 831 1284 
Q 928 806 1161 595 
Q 1394 384 1728 384 
Q 2125 384 2398 659 
Q 2672 934 2672 1341 
Q 2672 1728 2419 1979 
Q 2166 2231 1775 2231 
Q 1616 2231 1378 2169 
L 1441 2663 
Q 1497 2656 1531 2656 
Q 1891 2656 2178 2843 
Q 2466 3031 2466 3422 
Q 2466 3731 2256 3934 
Q 2047 4138 1716 4138 
Q 1388 4138 1169 3931 
Q 950 3725 888 3313 
L 325 3413 
Q 428 3978 793 4289 
Q 1159 4600 1703 4600 
Q 2078 4600 2393 4439 
Q 2709 4278 2876 4000 
Q 3044 3722 3044 3409 
Q 3044 3113 2884 2869 
Q 2725 2625 2413 2481 
Q 2819 2388 3044 2092 
Q 3269 1797 3269 1353 
Q 3269 753 2831 336 
Q 2394 -81 1725 -81 
Q 1122 -81 723 278 
Q 325 638 269 1209 
z
" transform="scale(0.015625)"/>
       </defs>
       <use xlink:href="#ArialMT-33"/>
      </g>
     </g>
    </g>
    <g id="ytick_5">
     <g id="line2d_11">
      <path d="M 108 184.693083 
L 777.6 184.693083 
" clip-path="url(#pd2e1d393c9)" style="fill: none; stroke: #cccccc; stroke-linecap: round"/>
     </g>
     <g id="text_12">
      <!-- 4 -->
      <g style="fill: #262626" transform="translate(91.159562 189.417239) scale(0.132 -0.132)">
       <use xlink:href="#ArialMT-34"/>
      </g>
     </g>
    </g>
    <g id="ytick_6">
     <g id="line2d_12">
      <path d="M 108 107.746354 
L 777.6 107.746354 
" clip-path="url(#pd2e1d393c9)" style="fill: none; stroke: #cccccc; stroke-linecap: round"/>
     </g>
     <g id="text_13">
      <!-- 5 -->
      <g style="fill: #262626" transform="translate(91.159562 112.47051) scale(0.132 -0.132)">
       <defs>
        <path id="ArialMT-35" d="M 266 1200 
L 856 1250 
Q 922 819 1161 601 
Q 1400 384 1738 384 
Q 2144 384 2425 690 
Q 2706 997 2706 1503 
Q 2706 1984 2436 2262 
Q 2166 2541 1728 2541 
Q 1456 2541 1237 2417 
Q 1019 2294 894 2097 
L 366 2166 
L 809 4519 
L 3088 4519 
L 3088 3981 
L 1259 3981 
L 1013 2750 
Q 1425 3038 1878 3038 
Q 2478 3038 2890 2622 
Q 3303 2206 3303 1553 
Q 3303 931 2941 478 
Q 2500 -78 1738 -78 
Q 1113 -78 717 272 
Q 322 622 266 1200 
z
" transform="scale(0.015625)"/>
       </defs>
       <use xlink:href="#ArialMT-35"/>
      </g>
     </g>
    </g>
    <g id="text_14">
     <!-- $\mathcal{D}^\delta(t)$ -->
     <g style="fill: #262626" transform="translate(84.297562 308.448) rotate(-90) scale(0.144 -0.144)">
      <defs>
       <path id="STIXNonUnicode-Italic-e230" d="M 314 3418 
L 218 3539 
Q 621 3923 1126 4083 
Q 1619 4237 2490 4237 
Q 3475 4237 4028 4080 
Q 4582 3923 4812 3596 
Q 5043 3270 5043 2701 
Q 5043 2349 4950 1993 
Q 4858 1638 4634 1273 
Q 4410 909 4070 630 
Q 3731 352 3190 176 
Q 2650 0 1978 0 
L 333 0 
L 378 154 
Q 576 154 678 275 
Q 781 397 870 710 
L 1491 2867 
Q 1517 2957 1581 3155 
Q 1645 3354 1673 3466 
Q 1702 3578 1702 3642 
Q 1702 3878 1414 3878 
Q 877 3878 314 3418 
z
M 2438 3750 
L 1510 557 
Q 1478 454 1478 390 
Q 1478 307 1568 281 
Q 1658 256 1856 256 
Q 2093 256 2355 297 
Q 2618 339 2989 489 
Q 3360 640 3645 886 
Q 3930 1133 4134 1597 
Q 4339 2061 4339 2675 
Q 4339 3328 3977 3654 
Q 3616 3981 2758 3981 
Q 2643 3981 2553 3913 
Q 2464 3846 2438 3750 
z
" transform="scale(0.015625)"/>
       <path id="DejaVuSans-Oblique-3b4" d="M 3472 4053 
Q 3197 4272 2450 4272 
Q 1659 4272 1588 3906 
Q 1531 3619 2328 3469 
Q 2953 3353 3253 3003 
Q 3616 2581 3447 1716 
Q 3284 888 2763 400 
Q 2238 -91 1488 -91 
Q 741 -91 406 400 
Q 72 888 241 1747 
Q 363 2384 891 2900 
Q 1097 3100 1353 3213 
Q 913 3459 1000 3900 
Q 1166 4750 2544 4750 
Q 3234 4750 3566 4531 
L 3472 4053 
z
M 1753 3056 
Q 1525 2966 1306 2738 
Q 969 2384 847 1747 
Q 722 1113 919 756 
Q 1119 397 1584 397 
Q 2044 397 2381 759 
Q 2722 1122 2838 1716 
Q 2956 2338 2731 2638 
Q 2491 2959 2103 2994 
Q 1906 3013 1753 3056 
z
" transform="scale(0.015625)"/>
       <path id="DejaVuSans-28" d="M 1984 4856 
Q 1566 4138 1362 3434 
Q 1159 2731 1159 2009 
Q 1159 1288 1364 580 
Q 1569 -128 1984 -844 
L 1484 -844 
Q 1016 -109 783 600 
Q 550 1309 550 2009 
Q 550 2706 781 3412 
Q 1013 4119 1484 4856 
L 1984 4856 
z
" transform="scale(0.015625)"/>
       <path id="DejaVuSans-29" d="M 513 4856 
L 1013 4856 
Q 1481 4119 1714 3412 
Q 1947 2706 1947 2009 
Q 1947 1309 1714 600 
Q 1481 -109 1013 -844 
L 513 -844 
Q 928 -128 1133 580 
Q 1338 1288 1338 2009 
Q 1338 2731 1133 3434 
Q 928 4138 513 4856 
z
" transform="scale(0.015625)"/>
      </defs>
      <use xlink:href="#STIXNonUnicode-Italic-e230" transform="translate(0 0.765625)"/>
      <use xlink:href="#DejaVuSans-Oblique-3b4" transform="translate(81.057022 39.046875) scale(0.7)"/>
      <use xlink:href="#DejaVuSans-28" transform="translate(126.618546 0.765625)"/>
      <use xlink:href="#DejaVuSans-Oblique-74" transform="translate(165.632217 0.765625)"/>
      <use xlink:href="#DejaVuSans-29" transform="translate(204.841202 0.765625)"/>
     </g>
    </g>
   </g>
   <g id="line2d_13">
    <path d="M 138.436364 492.48 
L 139.704545 489.269646 
L 140.972727 491.529228 
L 142.240909 488.314316 
L 143.509091 491.119222 
L 144.777273 487.901703 
L 146.045455 490.67811 
L 147.313636 487.457295 
L 148.581818 490.235569 
L 149.85 487.010943 
L 151.118182 489.792798 
L 152.386364 486.563892 
L 153.654545 489.348741 
L 154.922727 486.115061 
L 156.190909 488.90596 
L 157.459091 485.667048 
L 158.727273 488.461296 
L 159.995455 485.216652 
L 161.263636 488.016706 
L 162.531818 484.765905 
L 163.8 487.571694 
L 165.068182 484.314254 
L 166.336364 487.126077 
L 167.604545 483.861515 
L 168.872727 486.67978 
L 170.140909 483.407632 
L 171.409091 486.231741 
L 172.677273 482.9515 
L 173.945455 485.783561 
L 175.213636 482.494815 
L 176.481818 485.33464 
L 177.75 482.036901 
L 179.018182 484.884847 
L 180.286364 481.577646 
L 181.554545 484.433061 
L 182.822727 481.115954 
L 184.090909 483.980979 
L 185.359091 480.653555 
L 186.627273 483.527821 
L 187.895455 480.1896 
L 189.163636 483.073589 
L 190.431818 479.724121 
L 191.7 482.617051 
L 192.968182 479.255872 
L 194.236364 482.159892 
L 195.504545 478.786569 
L 196.772727 481.700579 
L 198.040909 478.31466 
L 199.309091 481.240515 
L 200.577273 477.841593 
L 201.845455 480.779081 
L 203.113636 477.366698 
L 204.381818 480.315167 
L 205.65 476.888861 
L 206.918182 479.850323 
L 208.186364 476.409685 
L 209.454545 479.383029 
L 210.722727 475.927689 
L 211.990909 478.914669 
L 213.259091 475.444146 
L 214.527273 478.443712 
L 215.795455 474.957617 
L 217.063636 477.971609 
L 218.331818 474.469505 
L 219.6 477.496729 
L 220.868182 473.978205 
L 222.136364 477.020674 
L 223.404545 473.485339 
L 224.672727 476.541677 
L 225.940909 472.989131 
L 227.209091 476.061302 
L 228.477273 472.491178 
L 229.745455 475.578018 
L 231.013636 471.989864 
L 232.281818 475.093304 
L 233.55 471.486802 
L 234.818182 474.605478 
L 236.086364 470.980197 
L 237.354545 474.116136 
L 238.622727 470.47173 
L 239.890909 473.623588 
L 241.159091 469.959605 
L 242.427273 473.12839 
L 243.695455 469.444555 
L 244.963636 472.63149 
L 246.231818 468.927385 
L 247.5 472.13128 
L 248.768182 468.40656 
L 250.036364 471.62823 
L 251.304545 467.882488 
L 252.572727 471.123492 
L 253.840909 467.356434 
L 255.109091 470.615243 
L 256.377273 466.826501 
L 257.645455 470.104099 
L 258.913636 466.293315 
L 260.181818 469.589971 
L 261.45 465.756849 
L 262.718182 469.073904 
L 263.986364 465.218107 
L 265.254545 468.554223 
L 266.522727 464.675405 
L 267.790909 468.031353 
L 269.059091 464.12913 
L 270.327273 467.506437 
L 271.595455 463.580592 
L 272.863636 466.977652 
L 274.131818 463.02788 
L 275.4 466.445455 
L 276.668182 462.471341 
L 277.936364 465.9101 
L 279.204545 461.911394 
L 280.472727 465.371411 
L 281.740909 461.347847 
L 283.009091 464.830603 
L 284.277273 460.781862 
L 285.545455 464.285805 
L 286.813636 460.211665 
L 288.081818 463.737458 
L 289.35 459.637585 
L 290.618182 463.185574 
L 291.886364 459.059623 
L 293.154545 462.630328 
L 294.422727 458.47814 
L 295.690909 462.071544 
L 296.959091 457.892751 
L 298.227273 461.510379 
L 299.495455 457.304877 
L 300.763636 460.943809 
L 302.031818 456.711204 
L 303.3 460.375208 
L 304.568182 456.115326 
L 305.836364 459.802422 
L 307.104545 455.51495 
L 308.372727 459.225874 
L 309.640909 454.910662 
L 310.909091 458.645449 
L 312.177273 454.302163 
L 313.445455 458.061346 
L 314.713636 453.689845 
L 315.981818 457.473454 
L 317.25 453.07349 
L 318.518182 456.881671 
L 319.786364 452.453007 
L 321.054545 456.28615 
L 322.322727 451.828539 
L 323.590909 455.686804 
L 324.859091 451.200155 
L 326.127273 455.083468 
L 327.395455 450.567449 
L 328.663636 454.47629 
L 329.931818 449.930832 
L 331.2 453.865164 
L 332.468182 449.290018 
L 333.736364 453.251102 
L 335.004545 448.64609 
L 336.272727 452.631037 
L 337.540909 447.995989 
L 338.809091 452.007514 
L 340.077273 447.342227 
L 341.345455 451.381289 
L 342.613636 446.685659 
L 343.881818 450.749102 
L 345.15 446.02283 
L 346.418182 450.113411 
L 347.686364 445.35648 
L 348.954545 449.474831 
L 350.222727 444.687033 
L 351.490909 448.830151 
L 352.759091 444.011367 
L 354.027273 448.181939 
L 355.295455 443.331986 
L 356.563636 447.529728 
L 357.831818 442.6485 
L 359.1 446.873201 
L 360.368182 441.960493 
L 361.636364 446.212509 
L 362.904545 441.268197 
L 364.172727 445.547567 
L 365.440909 440.571709 
L 366.709091 444.878312 
L 367.977273 439.87068 
L 369.245455 444.20477 
L 370.513636 439.165239 
L 371.781818 443.526779 
L 373.05 438.45518 
L 374.318182 442.844389 
L 375.586364 437.740746 
L 376.854545 442.157725 
L 378.122727 437.02189 
L 379.390909 441.466645 
L 380.659091 436.298512 
L 381.927273 440.771216 
L 383.195455 435.570763 
L 384.463636 440.071357 
L 385.731818 434.838322 
L 387 439.366967 
L 388.268182 434.101387 
L 389.536364 438.658095 
L 390.804545 433.359897 
L 392.072727 437.943624 
L 393.340909 432.612803 
L 394.609091 437.226727 
L 395.877273 431.863076 
L 397.145455 436.503725 
L 398.413636 431.107213 
L 399.681818 435.776765 
L 400.95 430.347382 
L 402.218182 435.045319 
L 403.486364 429.583007 
L 404.754545 434.309439 
L 406.022727 428.814288 
L 407.290909 433.569266 
L 408.559091 428.041097 
L 409.827273 432.824442 
L 411.095455 427.263109 
L 412.363636 432.075169 
L 413.631818 426.480755 
L 414.9 431.321145 
L 416.168182 425.693759 
L 417.436364 430.562672 
L 418.704545 424.901993 
L 419.972727 429.799727 
L 421.240909 424.106036 
L 422.509091 429.032095 
L 423.777273 423.305098 
L 425.045455 428.259895 
L 426.313636 422.499692 
L 427.581818 427.483164 
L 428.85 421.68976 
L 430.118182 426.700672 
L 431.386364 420.874131 
L 432.654545 425.915648 
L 433.922727 420.055802 
L 435.190909 425.124217 
L 436.459091 419.230977 
L 437.727273 424.328842 
L 438.995455 418.402512 
L 440.263636 423.529184 
L 441.531818 417.569799 
L 442.8 422.724884 
L 444.068182 416.73216 
L 445.336364 421.916075 
L 446.604545 415.890178 
L 447.872727 421.102538 
L 449.140909 415.043629 
L 450.409091 420.28468 
L 451.677273 414.192506 
L 452.945455 419.462021 
L 454.213636 413.33687 
L 455.481818 418.634885 
L 456.75 412.476364 
L 458.018182 417.803168 
L 459.286364 411.611895 
L 460.554545 416.965346 
L 461.822727 410.74085 
L 463.090909 416.12551 
L 464.359091 409.868226 
L 465.627273 415.278763 
L 466.895455 408.988356 
L 468.163636 414.428374 
L 469.431818 408.105202 
L 470.7 413.573739 
L 471.968182 407.217572 
L 473.236364 412.714269 
L 474.504545 406.325438 
L 475.772727 411.850314 
L 477.040909 405.428434 
L 478.309091 410.982029 
L 479.577273 404.527595 
L 480.845455 410.109048 
L 482.113636 403.622133 
L 483.381818 409.231783 
L 484.65 402.712167 
L 485.918182 408.349657 
L 487.186364 401.797679 
L 488.454545 407.463292 
L 489.722727 400.878715 
L 490.990909 406.572011 
L 492.259091 399.955201 
L 493.527273 405.676704 
L 494.795455 399.027275 
L 496.063636 404.776544 
L 497.331818 398.095175 
L 498.6 403.871944 
L 499.868182 397.158278 
L 501.136364 402.963079 
L 502.404545 396.217464 
L 503.672727 402.049581 
L 504.940909 395.271825 
L 506.209091 401.131507 
L 507.477273 394.321967 
L 508.745455 400.208993 
L 510.013636 393.367468 
L 511.281818 399.282122 
L 512.55 392.40884 
L 513.818182 398.350646 
L 515.086364 391.445847 
L 516.354545 397.414914 
L 517.622727 390.478386 
L 518.890909 396.473357 
L 520.159091 389.505458 
L 521.427273 395.529892 
L 522.695455 388.530485 
L 523.963636 394.58119 
L 525.231818 387.550632 
L 526.5 393.627727 
L 527.768182 386.565807 
L 529.036364 392.668494 
L 530.304545 385.575598 
L 531.572727 391.707436 
L 532.840909 384.583252 
L 534.109091 390.741223 
L 535.377273 383.586466 
L 536.645455 389.770661 
L 537.913636 382.584956 
L 539.181818 388.795597 
L 540.45 381.579364 
L 541.718182 387.816184 
L 542.986364 380.569186 
L 544.254545 386.832588 
L 545.522727 379.555293 
L 546.790909 385.844443 
L 548.059091 378.536593 
L 549.327273 384.852317 
L 550.595455 377.51405 
L 551.863636 383.855861 
L 553.131818 376.487782 
L 554.4 382.855075 
L 555.668182 375.4568 
L 556.936364 381.850162 
L 558.204545 374.422158 
L 559.472727 380.84125 
L 560.740909 373.383278 
L 562.009091 379.828036 
L 563.277273 372.340564 
L 564.545455 378.810336 
L 565.813636 371.293099 
L 567.081818 377.788847 
L 568.35 370.242349 
L 569.618182 376.763112 
L 570.886364 369.186922 
L 572.154545 375.734753 
L 573.422727 368.129761 
L 574.690909 374.699497 
L 575.959091 367.065225 
L 577.227273 373.662837 
L 578.495455 365.999817 
L 579.763636 372.621003 
L 581.031818 364.928979 
L 582.3 371.57496 
L 583.568182 363.85406 
L 584.836364 370.524568 
L 586.104545 362.775434 
L 587.372727 369.470461 
L 588.640909 361.692516 
L 589.909091 368.412172 
L 591.177273 360.606259 
L 592.445455 367.349956 
L 593.713636 359.515672 
L 594.981818 366.283797 
L 596.25 358.4216 
L 597.518182 365.21495 
L 598.786364 357.324666 
L 600.054545 364.141094 
L 601.322727 356.223191 
L 602.590909 363.063404 
L 603.859091 355.117643 
L 605.127273 361.98122 
L 606.395455 354.008087 
L 607.663636 360.895623 
L 608.931818 352.894706 
L 610.2 359.806045 
L 611.468182 351.778197 
L 612.736364 491.962575 
L 614.004545 486.932778 
L 615.272727 491.942199 
L 616.540909 486.415074 
L 617.809091 491.930628 
L 619.077273 486.012233 
L 620.345455 491.921744 
L 621.613636 485.676348 
L 622.881818 491.914415 
L 624.15 485.385786 
L 625.418182 491.908285 
L 626.686364 485.129232 
L 627.954545 491.902807 
L 629.222727 484.899776 
L 630.490909 491.897949 
L 631.759091 484.691014 
L 633.027273 491.893071 
L 634.295455 484.500042 
L 635.563636 491.888621 
L 636.831818 484.323464 
L 638.1 491.884506 
L 639.368182 484.159466 
L 640.636364 491.880495 
L 641.904545 484.005811 
L 643.172727 491.877044 
L 644.440909 483.862432 
L 645.709091 491.873573 
L 646.977273 483.727275 
L 648.245455 491.870228 
L 649.513636 483.600269 
L 650.781818 491.866856 
L 652.05 483.478946 
L 653.318182 491.863549 
L 654.586364 483.364497 
L 655.854545 491.860787 
L 657.122727 483.255778 
L 658.390909 491.857544 
L 659.659091 483.151675 
L 660.927273 491.855099 
L 662.195455 483.053601 
L 663.463636 491.852198 
L 664.731818 482.95791 
L 666 491.849941 
L 667.268182 482.868131 
L 668.536364 491.847517 
L 669.804545 482.781065 
L 671.072727 491.844731 
L 672.340909 482.697817 
L 673.609091 491.842695 
L 674.877273 482.618258 
L 676.145455 491.840262 
L 677.413636 482.541125 
L 678.681818 491.837961 
L 679.95 482.466576 
L 681.218182 491.835467 
L 682.486364 482.394923 
L 683.754545 491.832985 
L 685.022727 482.325937 
L 686.290909 491.83049 
L 687.559091 482.259459 
L 688.827273 491.828498 
L 690.095455 482.194991 
L 691.363636 491.826501 
L 692.631818 482.133117 
L 693.9 491.823752 
L 695.168182 482.072902 
L 696.436364 491.822655 
L 697.704545 482.015838 
L 698.972727 491.82017 
L 700.240909 481.959488 
L 701.509091 491.818945 
L 702.777273 481.904966 
L 704.045455 491.816922 
L 705.313636 481.852499 
L 706.581818 491.81498 
L 707.85 481.800817 
L 709.118182 491.81343 
L 710.386364 481.751977 
L 711.654545 491.812197 
L 712.922727 481.704489 
L 714.190909 491.809748 
L 715.459091 481.657064 
L 716.727273 491.807965 
L 717.995455 481.611267 
L 719.263636 491.806486 
L 720.531818 481.567434 
L 721.8 491.804792 
L 723.068182 481.524685 
L 724.336364 491.802805 
L 725.604545 481.483024 
L 726.872727 491.800888 
L 728.140909 481.441808 
L 729.409091 491.799434 
L 730.677273 481.403091 
L 731.945455 491.797601 
L 733.213636 481.364469 
L 734.481818 491.796243 
L 735.75 481.327316 
L 737.018182 491.794531 
L 738.286364 481.29126 
L 739.554545 491.792946 
L 740.822727 481.254868 
L 742.090909 491.791894 
L 743.359091 481.221374 
L 744.627273 491.789684 
L 745.895455 481.18657 
L 747.163636 491.788192 
L 747.163636 491.788192 
" clip-path="url(#pd2e1d393c9)" style="fill: none; stroke: #1f77b4; stroke-width: 1.5; stroke-linecap: round"/>
   </g>
   <g id="line2d_14">
    <path d="M 138.436364 492.48 
L 143.509091 479.386974 
L 146.045455 472.348955 
L 148.581818 464.749771 
L 151.118182 456.446462 
L 153.654545 447.327441 
L 156.190909 437.31374 
L 158.727273 426.35772 
L 161.263636 414.439886 
L 163.8 401.564553 
L 166.336364 387.755001 
L 168.872727 373.048683 
L 172.677273 349.413009 
L 176.481818 324.04958 
L 177.75 315.244386 
L 179.018182 484.896502 
L 182.822727 474.703512 
L 185.359091 467.30841 
L 187.895455 459.251787 
L 190.431818 450.411526 
L 192.968182 440.698063 
L 195.504545 430.05384 
L 198.040909 418.450733 
L 200.577273 405.885834 
L 203.113636 392.376901 
L 205.65 377.957314 
L 209.454545 354.720206 
L 213.259091 329.713909 
L 217.063636 303.129916 
L 218.331818 293.95106 
L 219.6 477.509735 
L 222.136364 470.341715 
L 224.672727 462.569031 
L 227.209091 454.056985 
L 229.745455 444.702957 
L 232.281818 434.436729 
L 234.818182 423.21902 
L 237.354545 411.037405 
L 239.890909 397.902042 
L 242.427273 383.84079 
L 246.231818 361.104358 
L 250.036364 336.548793 
L 253.840909 310.36398 
L 257.645455 282.741354 
L 258.913636 273.246185 
L 260.181818 469.603381 
L 262.718182 461.765455 
L 265.254545 453.175803 
L 267.790909 443.735069 
L 270.327273 433.376427 
L 272.863636 422.063252 
L 275.4 409.785809 
L 277.936364 396.556306 
L 280.472727 382.404161 
L 284.277273 359.539742 
L 288.081818 334.868068 
L 291.886364 308.579749 
L 295.690909 280.866074 
L 299.495455 251.908132 
L 300.763636 460.958545 
L 303.3 452.290351 
L 305.836364 442.76255 
L 308.372727 432.311313 
L 310.909091 420.903053 
L 313.445455 408.530433 
L 315.981818 395.207634 
L 318.518182 380.965596 
L 322.322727 357.974895 
L 326.127273 333.188883 
L 329.931818 306.79893 
L 333.736364 278.995692 
L 338.809091 240.036116 
L 340.077273 229.999534 
L 341.345455 451.398337 
L 343.881818 441.782807 
L 346.418182 431.23881 
L 348.954545 419.735599 
L 351.490909 407.268197 
L 354.027273 393.852725 
L 356.563636 379.521564 
L 360.368182 356.405903 
L 364.172727 331.506891 
L 367.977273 305.016607 
L 371.781818 277.125347 
L 376.854545 238.065678 
L 380.659091 207.575059 
L 381.927273 440.791534 
L 384.463636 430.154273 
L 387 418.555963 
L 389.536364 405.993944 
L 392.072727 392.486038 
L 394.609091 378.066048 
L 398.413636 354.826371 
L 402.218182 329.8158 
L 406.022727 303.226211 
L 409.827273 275.247976 
L 414.9 236.089626 
L 419.972727 195.154585 
L 421.240909 184.682002 
L 422.509091 429.055926 
L 425.045455 417.362123 
L 427.581818 404.705372 
L 430.118182 391.10528 
L 432.654545 376.597177 
L 436.459091 353.234255 
L 440.263636 328.112565 
L 444.068182 301.424956 
L 447.872727 273.360606 
L 452.945455 234.104805 
L 458.018182 193.089483 
L 461.822727 161.365567 
L 463.090909 416.155111 
L 465.627273 403.403628 
L 468.163636 389.711717 
L 470.7 375.115528 
L 474.504545 351.630011 
L 478.309091 326.39823 
L 482.113636 299.612968 
L 485.918182 271.463403 
L 490.990909 232.111104 
L 496.063636 191.016402 
L 502.404545 137.669931 
L 503.672727 402.086006 
L 506.209091 388.302175 
L 508.745455 373.61823 
L 512.55 350.010651 
L 516.354545 324.669402 
L 520.159091 297.787404 
L 523.963636 269.55323 
L 529.036364 230.105369 
L 534.109091 188.932019 
L 540.45 135.506883 
L 542.986364 113.629985 
L 544.254545 386.877168 
L 546.790909 372.105696 
L 550.595455 348.37656 
L 554.4 322.926394 
L 558.204545 295.948338 
L 562.009091 267.630251 
L 567.081818 228.087544 
L 572.154545 186.836299 
L 578.495455 133.332937 
L 583.568182 89.28 
L 584.836364 491.934601 
L 586.104545 489.591115 
L 587.372727 486.973428 
L 589.909091 480.979253 
L 592.445455 474.08116 
L 594.981818 466.40285 
L 597.518182 458.05711 
L 601.322727 444.500977 
L 605.127273 429.9439 
L 610.2 409.347699 
L 615.272727 387.74071 
L 621.613636 359.714951 
L 624.15 348.264781 
L 625.418182 491.851877 
L 627.954545 485.410653 
L 630.490909 478.041562 
L 633.027273 469.893392 
L 635.563636 461.095006 
L 639.368182 446.911038 
L 643.172727 431.797087 
L 648.245455 410.568108 
L 654.586364 382.799736 
L 662.195455 348.268954 
L 664.731818 336.549656 
L 666 491.806434 
L 668.536364 484.388417 
L 671.072727 476.144056 
L 673.609091 467.222184 
L 677.413636 452.83043 
L 681.218182 437.504996 
L 686.290909 416.011181 
L 692.631818 387.954977 
L 700.240909 353.143829 
L 705.313636 329.471235 
L 706.581818 491.773157 
L 709.118182 483.632748 
L 711.654545 474.75543 
L 715.459091 460.360497 
L 719.263636 444.984698 
L 724.336364 423.391854 
L 730.677273 395.199984 
L 738.286364 360.237807 
L 745.895455 324.498202 
L 747.163636 491.747459 
L 747.163636 491.747459 
" clip-path="url(#pd2e1d393c9)" style="fill: none; stroke: #ff7f0e; stroke-width: 1.5; stroke-linecap: round"/>
   </g>
   <g id="patch_3">
    <path d="M 108 512.64 
L 108 69.12 
" style="fill: none; stroke: #cccccc; stroke-width: 1.25; stroke-linejoin: miter; stroke-linecap: square"/>
   </g>
   <g id="patch_4">
    <path d="M 777.6 512.64 
L 777.6 69.12 
" style="fill: none; stroke: #cccccc; stroke-width: 1.25; stroke-linejoin: miter; stroke-linecap: square"/>
   </g>
   <g id="patch_5">
    <path d="M 108 512.64 
L 777.6 512.64 
" style="fill: none; stroke: #cccccc; stroke-width: 1.25; stroke-linejoin: miter; stroke-linecap: square"/>
   </g>
   <g id="patch_6">
    <path d="M 108 69.12 
L 777.6 69.12 
" style="fill: none; stroke: #cccccc; stroke-width: 1.25; stroke-linejoin: miter; stroke-linecap: square"/>
   </g>
   <g id="text_15">
    <!-- $\mathcal{D}^\delta$ -->
    <g style="fill: #262626" transform="translate(433.656 63.12) scale(0.144 -0.144)">
     <use xlink:href="#STIXNonUnicode-Italic-e230" transform="translate(0 0.765625)"/>
     <use xlink:href="#DejaVuSans-Oblique-3b4" transform="translate(81.057022 39.046875) scale(0.7)"/>
    </g>
   </g>
   <g id="legend_1">
    <g id="patch_7">
     <path d="M 682.428 128.652 
L 768.36 128.652 
Q 771 128.652 771 126.012 
L 771 78.36 
Q 771 75.72 768.36 75.72 
L 682.428 75.72 
Q 679.788 75.72 679.788 78.36 
L 679.788 126.012 
Q 679.788 128.652 682.428 128.652 
z
" style="fill: #ffffff; opacity: 0.8; stroke: #cccccc; stroke-linejoin: miter"/>
    </g>
    <g id="line2d_15">
     <path d="M 685.068 88.92 
L 698.268 88.92 
L 711.468 88.92 
" style="fill: none; stroke: #1f77b4; stroke-width: 1.5; stroke-linecap: round"/>
    </g>
    <g id="text_16">
     <!-- $\delta = \frac{1}{240}$ -->
     <g style="fill: #262626" transform="translate(722.028 93.54) scale(0.132 -0.132)">
      <defs>
       <path id="DejaVuSans-3d" d="M 678 2906 
L 4684 2906 
L 4684 2381 
L 678 2381 
L 678 2906 
z
M 678 1631 
L 4684 1631 
L 4684 1100 
L 678 1100 
L 678 1631 
z
" transform="scale(0.015625)"/>
       <path id="DejaVuSans-31" d="M 794 531 
L 1825 531 
L 1825 4091 
L 703 3866 
L 703 4441 
L 1819 4666 
L 2450 4666 
L 2450 531 
L 3481 531 
L 3481 0 
L 794 0 
L 794 531 
z
" transform="scale(0.015625)"/>
       <path id="DejaVuSans-32" d="M 1228 531 
L 3431 531 
L 3431 0 
L 469 0 
L 469 531 
Q 828 903 1448 1529 
Q 2069 2156 2228 2338 
Q 2531 2678 2651 2914 
Q 2772 3150 2772 3378 
Q 2772 3750 2511 3984 
Q 2250 4219 1831 4219 
Q 1534 4219 1204 4116 
Q 875 4013 500 3803 
L 500 4441 
Q 881 4594 1212 4672 
Q 1544 4750 1819 4750 
Q 2544 4750 2975 4387 
Q 3406 4025 3406 3419 
Q 3406 3131 3298 2873 
Q 3191 2616 2906 2266 
Q 2828 2175 2409 1742 
Q 1991 1309 1228 531 
z
" transform="scale(0.015625)"/>
       <path id="DejaVuSans-34" d="M 2419 4116 
L 825 1625 
L 2419 1625 
L 2419 4116 
z
M 2253 4666 
L 3047 4666 
L 3047 1625 
L 3713 1625 
L 3713 1100 
L 3047 1100 
L 3047 0 
L 2419 0 
L 2419 1100 
L 313 1100 
L 313 1709 
L 2253 4666 
z
" transform="scale(0.015625)"/>
       <path id="DejaVuSans-30" d="M 2034 4250 
Q 1547 4250 1301 3770 
Q 1056 3291 1056 2328 
Q 1056 1369 1301 889 
Q 1547 409 2034 409 
Q 2525 409 2770 889 
Q 3016 1369 3016 2328 
Q 3016 3291 2770 3770 
Q 2525 4250 2034 4250 
z
M 2034 4750 
Q 2819 4750 3233 4129 
Q 3647 3509 3647 2328 
Q 3647 1150 3233 529 
Q 2819 -91 2034 -91 
Q 1250 -91 836 529 
Q 422 1150 422 2328 
Q 422 3509 836 4129 
Q 1250 4750 2034 4750 
z
" transform="scale(0.015625)"/>
      </defs>
      <use xlink:href="#DejaVuSans-Oblique-3b4" transform="translate(0 0.16875)"/>
      <use xlink:href="#DejaVuSans-3d" transform="translate(80.664062 0.16875)"/>
      <use xlink:href="#DejaVuSans-31" transform="translate(228.935547 43.965625) scale(0.7)"/>
      <use xlink:href="#DejaVuSans-32" transform="translate(183.935547 -39.2375) scale(0.7)"/>
      <use xlink:href="#DejaVuSans-34" transform="translate(228.47168 -39.2375) scale(0.7)"/>
      <use xlink:href="#DejaVuSans-30" transform="translate(273.007812 -39.2375) scale(0.7)"/>
      <path d="M 183.935547 18.965625 
L 183.935547 25.215625 
L 317.543945 25.215625 
L 317.543945 18.965625 
L 183.935547 18.965625 
z
"/>
     </g>
    </g>
    <g id="line2d_16">
     <path d="M 685.068 113.472 
L 698.268 113.472 
L 711.468 113.472 
" style="fill: none; stroke: #ff7f0e; stroke-width: 1.5; stroke-linecap: round"/>
    </g>
    <g id="text_17">
     <!-- $\delta = \frac{1}{15}$ -->
     <g style="fill: #262626" transform="translate(722.028 118.092) scale(0.132 -0.132)">
      <defs>
       <path id="DejaVuSans-35" d="M 691 4666 
L 3169 4666 
L 3169 4134 
L 1269 4134 
L 1269 2991 
Q 1406 3038 1543 3061 
Q 1681 3084 1819 3084 
Q 2600 3084 3056 2656 
Q 3513 2228 3513 1497 
Q 3513 744 3044 326 
Q 2575 -91 1722 -91 
Q 1428 -91 1123 -41 
Q 819 9 494 109 
L 494 744 
Q 775 591 1075 516 
Q 1375 441 1709 441 
Q 2250 441 2565 725 
Q 2881 1009 2881 1497 
Q 2881 1984 2565 2268 
Q 2250 2553 1709 2553 
Q 1456 2553 1204 2497 
Q 953 2441 691 2322 
L 691 4666 
z
" transform="scale(0.015625)"/>
      </defs>
      <use xlink:href="#DejaVuSans-Oblique-3b4" transform="translate(0 0.16875)"/>
      <use xlink:href="#DejaVuSans-3d" transform="translate(80.664062 0.16875)"/>
      <use xlink:href="#DejaVuSans-31" transform="translate(205.935547 43.965625) scale(0.7)"/>
      <use xlink:href="#DejaVuSans-31" transform="translate(183.935547 -38.31875) scale(0.7)"/>
      <use xlink:href="#DejaVuSans-35" transform="translate(228.47168 -38.31875) scale(0.7)"/>
      <path d="M 183.935547 18.965625 
L 183.935547 25.215625 
L 273.007812 25.215625 
L 273.007812 18.965625 
L 183.935547 18.965625 
z
"/>
     </g>
    </g>
   </g>
  </g>
 </g>
 <defs>
  <clipPath id="pd2e1d393c9">
   <rect x="108" y="69.12" width="669.6" height="443.52"/>
  </clipPath>
 </defs>
</svg>
