<?xml version="1.0" encoding="utf-8" standalone="no"?>
<!DOCTYPE svg PUBLIC "-//W3C//DTD SVG 1.1//EN"
  "http://www.w3.org/Graphics/SVG/1.1/DTD/svg11.dtd">
<svg xmlns:xlink="http://www.w3.org/1999/xlink" width="864pt" height="576pt" viewBox="0 0 864 576" xmlns="http://www.w3.org/2000/svg" version="1.1">
 <metadata>
  <rdf:RDF xmlns:dc="http://purl.org/dc/elements/1.1/" xmlns:cc="http://creativecommons.org/ns#" xmlns:rdf="http://www.w3.org/1999/02/22-rdf-syntax-ns#">
   <cc:Work>
    <dc:type rdf:resource="http://purl.org/dc/dcmitype/StillImage"/>
    <dc:date>2024-09-24T09:42:16.735340</dc:date>
    <dc:format>image/svg+xml</dc:format>
    <dc:creator>
     <cc:Agent>
      <dc:title>Matplotlib v3.9.2, https://matplotlib.org/</dc:title>
     </cc:Agent>
    </dc:creator>
   </cc:Work>
  </rdf:RDF>
 </metadata>
 <defs>
  <style type="text/css">*{stroke-linejoin: round; stroke-linecap: butt}</style>
 </defs>
 <g id="figure_1">
  <g id="patch_1">
   <path d="M 0 576 
L 864 576 
L 864 0 
L 0 0 
z
" style="fill: #ffffff"/>
  </g>
  <g id="axes_1">
   <g id="patch_2">
    <path d="M 108 512.64 
L 777.6 512.64 
L 777.6 69.12 
L 108 69.12 
z
" style="fill: #ffffff"/>
   </g>
   <g id="matplotlib.axis_1">
    <g id="xtick_1">
     <g id="line2d_1">
      <path d="M 138.436364 512.64 
L 138.436364 69.12 
" clip-path="url(#p8ab7bed214)" style="fill: none; stroke: #cccccc; stroke-linecap: round"/>
     </g>
     <g id="text_1">
      <!-- 0.0 -->
      <g style="fill: #262626" transform="translate(127.940301 532.169938) scale(0.132 -0.132)">
       <defs>
        <path id="DejaVuSans-30" d="M 2034 4250 
Q 1547 4250 1301 3770 
Q 1056 3291 1056 2328 
Q 1056 1369 1301 889 
Q 1547 409 2034 409 
Q 2525 409 2770 889 
Q 3016 1369 3016 2328 
Q 3016 3291 2770 3770 
Q 2525 4250 2034 4250 
z
M 2034 4750 
Q 2819 4750 3233 4129 
Q 3647 3509 3647 2328 
Q 3647 1150 3233 529 
Q 2819 -91 2034 -91 
Q 1250 -91 836 529 
Q 422 1150 422 2328 
Q 422 3509 836 4129 
Q 1250 4750 2034 4750 
z
" transform="scale(0.015625)"/>
        <path id="DejaVuSans-2e" d="M 684 794 
L 1344 794 
L 1344 0 
L 684 0 
L 684 794 
z
" transform="scale(0.015625)"/>
       </defs>
       <use xlink:href="#DejaVuSans-30"/>
       <use xlink:href="#DejaVuSans-2e" x="63.623047"/>
       <use xlink:href="#DejaVuSans-30" x="95.410156"/>
      </g>
     </g>
    </g>
    <g id="xtick_2">
     <g id="line2d_2">
      <path d="M 260.793604 512.64 
L 260.793604 69.12 
" clip-path="url(#p8ab7bed214)" style="fill: none; stroke: #cccccc; stroke-linecap: round"/>
     </g>
     <g id="text_2">
      <!-- 0.2 -->
      <g style="fill: #262626" transform="translate(250.297542 532.169938) scale(0.132 -0.132)">
       <defs>
        <path id="DejaVuSans-32" d="M 1228 531 
L 3431 531 
L 3431 0 
L 469 0 
L 469 531 
Q 828 903 1448 1529 
Q 2069 2156 2228 2338 
Q 2531 2678 2651 2914 
Q 2772 3150 2772 3378 
Q 2772 3750 2511 3984 
Q 2250 4219 1831 4219 
Q 1534 4219 1204 4116 
Q 875 4013 500 3803 
L 500 4441 
Q 881 4594 1212 4672 
Q 1544 4750 1819 4750 
Q 2544 4750 2975 4387 
Q 3406 4025 3406 3419 
Q 3406 3131 3298 2873 
Q 3191 2616 2906 2266 
Q 2828 2175 2409 1742 
Q 1991 1309 1228 531 
z
" transform="scale(0.015625)"/>
       </defs>
       <use xlink:href="#DejaVuSans-30"/>
       <use xlink:href="#DejaVuSans-2e" x="63.623047"/>
       <use xlink:href="#DejaVuSans-32" x="95.410156"/>
      </g>
     </g>
    </g>
    <g id="xtick_3">
     <g id="line2d_3">
      <path d="M 383.150845 512.64 
L 383.150845 69.12 
" clip-path="url(#p8ab7bed214)" style="fill: none; stroke: #cccccc; stroke-linecap: round"/>
     </g>
     <g id="text_3">
      <!-- 0.4 -->
      <g style="fill: #262626" transform="translate(372.654783 532.169938) scale(0.132 -0.132)">
       <defs>
        <path id="DejaVuSans-34" d="M 2419 4116 
L 825 1625 
L 2419 1625 
L 2419 4116 
z
M 2253 4666 
L 3047 4666 
L 3047 1625 
L 3713 1625 
L 3713 1100 
L 3047 1100 
L 3047 0 
L 2419 0 
L 2419 1100 
L 313 1100 
L 313 1709 
L 2253 4666 
z
" transform="scale(0.015625)"/>
       </defs>
       <use xlink:href="#DejaVuSans-30"/>
       <use xlink:href="#DejaVuSans-2e" x="63.623047"/>
       <use xlink:href="#DejaVuSans-34" x="95.410156"/>
      </g>
     </g>
    </g>
    <g id="xtick_4">
     <g id="line2d_4">
      <path d="M 505.508086 512.64 
L 505.508086 69.12 
" clip-path="url(#p8ab7bed214)" style="fill: none; stroke: #cccccc; stroke-linecap: round"/>
     </g>
     <g id="text_4">
      <!-- 0.6 -->
      <g style="fill: #262626" transform="translate(495.012023 532.169938) scale(0.132 -0.132)">
       <defs>
        <path id="DejaVuSans-36" d="M 2113 2584 
Q 1688 2584 1439 2293 
Q 1191 2003 1191 1497 
Q 1191 994 1439 701 
Q 1688 409 2113 409 
Q 2538 409 2786 701 
Q 3034 994 3034 1497 
Q 3034 2003 2786 2293 
Q 2538 2584 2113 2584 
z
M 3366 4563 
L 3366 3988 
Q 3128 4100 2886 4159 
Q 2644 4219 2406 4219 
Q 1781 4219 1451 3797 
Q 1122 3375 1075 2522 
Q 1259 2794 1537 2939 
Q 1816 3084 2150 3084 
Q 2853 3084 3261 2657 
Q 3669 2231 3669 1497 
Q 3669 778 3244 343 
Q 2819 -91 2113 -91 
Q 1303 -91 875 529 
Q 447 1150 447 2328 
Q 447 3434 972 4092 
Q 1497 4750 2381 4750 
Q 2619 4750 2861 4703 
Q 3103 4656 3366 4563 
z
" transform="scale(0.015625)"/>
       </defs>
       <use xlink:href="#DejaVuSans-30"/>
       <use xlink:href="#DejaVuSans-2e" x="63.623047"/>
       <use xlink:href="#DejaVuSans-36" x="95.410156"/>
      </g>
     </g>
    </g>
    <g id="xtick_5">
     <g id="line2d_5">
      <path d="M 627.865327 512.64 
L 627.865327 69.12 
" clip-path="url(#p8ab7bed214)" style="fill: none; stroke: #cccccc; stroke-linecap: round"/>
     </g>
     <g id="text_5">
      <!-- 0.8 -->
      <g style="fill: #262626" transform="translate(617.369264 532.169938) scale(0.132 -0.132)">
       <defs>
        <path id="DejaVuSans-38" d="M 2034 2216 
Q 1584 2216 1326 1975 
Q 1069 1734 1069 1313 
Q 1069 891 1326 650 
Q 1584 409 2034 409 
Q 2484 409 2743 651 
Q 3003 894 3003 1313 
Q 3003 1734 2745 1975 
Q 2488 2216 2034 2216 
z
M 1403 2484 
Q 997 2584 770 2862 
Q 544 3141 544 3541 
Q 544 4100 942 4425 
Q 1341 4750 2034 4750 
Q 2731 4750 3128 4425 
Q 3525 4100 3525 3541 
Q 3525 3141 3298 2862 
Q 3072 2584 2669 2484 
Q 3125 2378 3379 2068 
Q 3634 1759 3634 1313 
Q 3634 634 3220 271 
Q 2806 -91 2034 -91 
Q 1263 -91 848 271 
Q 434 634 434 1313 
Q 434 1759 690 2068 
Q 947 2378 1403 2484 
z
M 1172 3481 
Q 1172 3119 1398 2916 
Q 1625 2713 2034 2713 
Q 2441 2713 2670 2916 
Q 2900 3119 2900 3481 
Q 2900 3844 2670 4047 
Q 2441 4250 2034 4250 
Q 1625 4250 1398 4047 
Q 1172 3844 1172 3481 
z
" transform="scale(0.015625)"/>
       </defs>
       <use xlink:href="#DejaVuSans-30"/>
       <use xlink:href="#DejaVuSans-2e" x="63.623047"/>
       <use xlink:href="#DejaVuSans-38" x="95.410156"/>
      </g>
     </g>
    </g>
    <g id="xtick_6">
     <g id="line2d_6">
      <path d="M 750.222567 512.64 
L 750.222567 69.12 
" clip-path="url(#p8ab7bed214)" style="fill: none; stroke: #cccccc; stroke-linecap: round"/>
     </g>
     <g id="text_6">
      <!-- 1.0 -->
      <g style="fill: #262626" transform="translate(739.726505 532.169938) scale(0.132 -0.132)">
       <defs>
        <path id="DejaVuSans-31" d="M 794 531 
L 1825 531 
L 1825 4091 
L 703 3866 
L 703 4441 
L 1819 4666 
L 2450 4666 
L 2450 531 
L 3481 531 
L 3481 0 
L 794 0 
L 794 531 
z
" transform="scale(0.015625)"/>
       </defs>
       <use xlink:href="#DejaVuSans-31"/>
       <use xlink:href="#DejaVuSans-2e" x="63.623047"/>
       <use xlink:href="#DejaVuSans-30" x="95.410156"/>
      </g>
     </g>
    </g>
    <g id="text_7">
     <!-- $t$ -->
     <g style="fill: #262626" transform="translate(439.92 549.856875) scale(0.144 -0.144)">
      <defs>
       <path id="DejaVuSans-Oblique-74" d="M 2706 3500 
L 2619 3053 
L 1472 3053 
L 1100 1153 
Q 1081 1047 1072 975 
Q 1063 903 1063 863 
Q 1063 663 1183 572 
Q 1303 481 1569 481 
L 2150 481 
L 2053 0 
L 1503 0 
Q 991 0 739 200 
Q 488 400 488 806 
Q 488 878 497 964 
Q 506 1050 525 1153 
L 897 3053 
L 409 3053 
L 500 3500 
L 978 3500 
L 1172 4494 
L 1747 4494 
L 1556 3500 
L 2706 3500 
z
" transform="scale(0.015625)"/>
      </defs>
      <use xlink:href="#DejaVuSans-Oblique-74" transform="translate(0 0.78125)"/>
     </g>
    </g>
   </g>
   <g id="matplotlib.axis_2">
    <g id="ytick_1">
     <g id="line2d_7">
      <path d="M 108 492.48 
L 777.6 492.48 
" clip-path="url(#p8ab7bed214)" style="fill: none; stroke: #cccccc; stroke-linecap: round"/>
     </g>
     <g id="text_8">
      <!-- 0 -->
      <g style="fill: #262626" transform="translate(90.1015 497.494969) scale(0.132 -0.132)">
       <use xlink:href="#DejaVuSans-30"/>
      </g>
     </g>
    </g>
    <g id="ytick_2">
     <g id="line2d_8">
      <path d="M 108 435.586606 
L 777.6 435.586606 
" clip-path="url(#p8ab7bed214)" style="fill: none; stroke: #cccccc; stroke-linecap: round"/>
     </g>
     <g id="text_9">
      <!-- 2 -->
      <g style="fill: #262626" transform="translate(90.1015 440.601575) scale(0.132 -0.132)">
       <use xlink:href="#DejaVuSans-32"/>
      </g>
     </g>
    </g>
    <g id="ytick_3">
     <g id="line2d_9">
      <path d="M 108 378.693212 
L 777.6 378.693212 
" clip-path="url(#p8ab7bed214)" style="fill: none; stroke: #cccccc; stroke-linecap: round"/>
     </g>
     <g id="text_10">
      <!-- 4 -->
      <g style="fill: #262626" transform="translate(90.1015 383.70818) scale(0.132 -0.132)">
       <use xlink:href="#DejaVuSans-34"/>
      </g>
     </g>
    </g>
    <g id="ytick_4">
     <g id="line2d_10">
      <path d="M 108 321.799817 
L 777.6 321.799817 
" clip-path="url(#p8ab7bed214)" style="fill: none; stroke: #cccccc; stroke-linecap: round"/>
     </g>
     <g id="text_11">
      <!-- 6 -->
      <g style="fill: #262626" transform="translate(90.1015 326.814786) scale(0.132 -0.132)">
       <use xlink:href="#DejaVuSans-36"/>
      </g>
     </g>
    </g>
    <g id="ytick_5">
     <g id="line2d_11">
      <path d="M 108 264.906423 
L 777.6 264.906423 
" clip-path="url(#p8ab7bed214)" style="fill: none; stroke: #cccccc; stroke-linecap: round"/>
     </g>
     <g id="text_12">
      <!-- 8 -->
      <g style="fill: #262626" transform="translate(90.1015 269.921392) scale(0.132 -0.132)">
       <use xlink:href="#DejaVuSans-38"/>
      </g>
     </g>
    </g>
    <g id="ytick_6">
     <g id="line2d_12">
      <path d="M 108 208.013029 
L 777.6 208.013029 
" clip-path="url(#p8ab7bed214)" style="fill: none; stroke: #cccccc; stroke-linecap: round"/>
     </g>
     <g id="text_13">
      <!-- 10 -->
      <g style="fill: #262626" transform="translate(81.703 213.027998) scale(0.132 -0.132)">
       <use xlink:href="#DejaVuSans-31"/>
       <use xlink:href="#DejaVuSans-30" x="63.623047"/>
      </g>
     </g>
    </g>
    <g id="ytick_7">
     <g id="line2d_13">
      <path d="M 108 151.119635 
L 777.6 151.119635 
" clip-path="url(#p8ab7bed214)" style="fill: none; stroke: #cccccc; stroke-linecap: round"/>
     </g>
     <g id="text_14">
      <!-- 12 -->
      <g style="fill: #262626" transform="translate(81.703 156.134603) scale(0.132 -0.132)">
       <use xlink:href="#DejaVuSans-31"/>
       <use xlink:href="#DejaVuSans-32" x="63.623047"/>
      </g>
     </g>
    </g>
    <g id="ytick_8">
     <g id="line2d_14">
      <path d="M 108 94.22624 
L 777.6 94.22624 
" clip-path="url(#p8ab7bed214)" style="fill: none; stroke: #cccccc; stroke-linecap: round"/>
     </g>
     <g id="text_15">
      <!-- 14 -->
      <g style="fill: #262626" transform="translate(81.703 99.241209) scale(0.132 -0.132)">
       <use xlink:href="#DejaVuSans-31"/>
       <use xlink:href="#DejaVuSans-34" x="63.623047"/>
      </g>
     </g>
    </g>
    <g id="text_16">
     <!-- $\mathcal{D}^\delta(t)$ -->
     <g style="fill: #262626" transform="translate(74.70825 308.448) rotate(-90) scale(0.144 -0.144)">
      <defs>
       <path id="STIXNonUnicode-Italic-e230" d="M 314 3418 
L 218 3539 
Q 621 3923 1126 4083 
Q 1619 4237 2490 4237 
Q 3475 4237 4028 4080 
Q 4582 3923 4812 3596 
Q 5043 3270 5043 2701 
Q 5043 2349 4950 1993 
Q 4858 1638 4634 1273 
Q 4410 909 4070 630 
Q 3731 352 3190 176 
Q 2650 0 1978 0 
L 333 0 
L 378 154 
Q 576 154 678 275 
Q 781 397 870 710 
L 1491 2867 
Q 1517 2957 1581 3155 
Q 1645 3354 1673 3466 
Q 1702 3578 1702 3642 
Q 1702 3878 1414 3878 
Q 877 3878 314 3418 
z
M 2438 3750 
L 1510 557 
Q 1478 454 1478 390 
Q 1478 307 1568 281 
Q 1658 256 1856 256 
Q 2093 256 2355 297 
Q 2618 339 2989 489 
Q 3360 640 3645 886 
Q 3930 1133 4134 1597 
Q 4339 2061 4339 2675 
Q 4339 3328 3977 3654 
Q 3616 3981 2758 3981 
Q 2643 3981 2553 3913 
Q 2464 3846 2438 3750 
z
" transform="scale(0.015625)"/>
       <path id="DejaVuSans-Oblique-3b4" d="M 3472 4053 
Q 3197 4272 2450 4272 
Q 1659 4272 1588 3906 
Q 1531 3619 2328 3469 
Q 2953 3353 3253 3003 
Q 3616 2581 3447 1716 
Q 3284 888 2763 400 
Q 2238 -91 1488 -91 
Q 741 -91 406 400 
Q 72 888 241 1747 
Q 363 2384 891 2900 
Q 1097 3100 1353 3213 
Q 913 3459 1000 3900 
Q 1166 4750 2544 4750 
Q 3234 4750 3566 4531 
L 3472 4053 
z
M 1753 3056 
Q 1525 2966 1306 2738 
Q 969 2384 847 1747 
Q 722 1113 919 756 
Q 1119 397 1584 397 
Q 2044 397 2381 759 
Q 2722 1122 2838 1716 
Q 2956 2338 2731 2638 
Q 2491 2959 2103 2994 
Q 1906 3013 1753 3056 
z
" transform="scale(0.015625)"/>
       <path id="DejaVuSans-28" d="M 1984 4856 
Q 1566 4138 1362 3434 
Q 1159 2731 1159 2009 
Q 1159 1288 1364 580 
Q 1569 -128 1984 -844 
L 1484 -844 
Q 1016 -109 783 600 
Q 550 1309 550 2009 
Q 550 2706 781 3412 
Q 1013 4119 1484 4856 
L 1984 4856 
z
" transform="scale(0.015625)"/>
       <path id="DejaVuSans-29" d="M 513 4856 
L 1013 4856 
Q 1481 4119 1714 3412 
Q 1947 2706 1947 2009 
Q 1947 1309 1714 600 
Q 1481 -109 1013 -844 
L 513 -844 
Q 928 -128 1133 580 
Q 1338 1288 1338 2009 
Q 1338 2731 1133 3434 
Q 928 4138 513 4856 
z
" transform="scale(0.015625)"/>
      </defs>
      <use xlink:href="#STIXNonUnicode-Italic-e230" transform="translate(0 0.765625)"/>
      <use xlink:href="#DejaVuSans-Oblique-3b4" transform="translate(81.057022 39.046875) scale(0.7)"/>
      <use xlink:href="#DejaVuSans-28" transform="translate(126.618546 0.765625)"/>
      <use xlink:href="#DejaVuSans-Oblique-74" transform="translate(165.632217 0.765625)"/>
      <use xlink:href="#DejaVuSans-29" transform="translate(204.841202 0.765625)"/>
     </g>
    </g>
   </g>
   <g id="line2d_15">
    <path d="M 138.436364 492.48 
L 147.613157 487.212517 
L 150.672088 490.557708 
L 159.848881 485.322954 
L 162.907812 488.673954 
L 172.084605 483.428561 
L 175.143536 486.787743 
L 184.320329 481.527682 
L 187.37926 484.897503 
L 196.556053 479.619436 
L 199.614984 483.001809 
L 208.791777 477.702378 
L 211.850708 481.099729 
L 221.027501 475.775356 
L 224.086432 479.189687 
L 233.263225 473.837365 
L 236.322156 477.27067 
L 245.498949 471.887155 
L 248.55788 475.341405 
L 257.734673 469.924045 
L 260.793604 473.400934 
L 269.970397 467.946806 
L 273.029328 471.447937 
L 282.206122 465.954511 
L 285.265053 469.48165 
L 294.441846 463.946822 
L 297.500777 467.501132 
L 306.67757 461.922663 
L 309.736501 465.505707 
L 318.913294 459.881701 
L 321.972225 463.494553 
L 331.149018 457.823227 
L 334.207949 461.466751 
L 343.384742 455.746687 
L 346.443673 459.421989 
L 355.620466 453.651902 
L 358.679397 457.359474 
L 367.85619 451.538262 
L 370.915121 455.278961 
L 380.091914 449.405477 
L 383.150845 453.179924 
L 392.327638 447.253525 
L 395.386569 451.062004 
L 404.563362 445.082056 
L 407.622293 448.924712 
L 416.799086 442.891106 
L 419.858017 446.768323 
L 429.03481 440.680445 
L 432.093741 444.592523 
L 441.270534 438.450593 
L 444.329466 442.397125 
L 453.506259 436.201038 
L 456.56519 440.182282 
L 465.741983 433.932317 
L 468.800914 437.94788 
L 477.977707 431.644239 
L 481.036638 435.694056 
L 490.213431 429.337162 
L 493.272362 433.420906 
L 502.449155 427.011286 
L 505.508086 431.128579 
L 514.684879 424.666758 
L 517.74381 428.817291 
L 526.920603 422.304041 
L 529.979534 426.487152 
L 539.156327 419.923221 
L 542.215258 424.138483 
L 551.392051 417.524601 
L 554.450982 421.771512 
L 563.627775 415.108735 
L 566.686706 419.386685 
L 575.863499 412.675652 
L 578.92243 416.984093 
L 588.099223 410.226019 
L 591.158154 414.564272 
L 600.334947 407.760023 
L 603.393878 412.127462 
L 612.570672 405.278072 
L 615.629603 458.379826 
L 618.688534 454.72145 
L 621.747465 451.428351 
L 624.806396 448.378375 
L 627.865327 451.044445 
L 637.04212 443.642706 
L 640.101051 447.468827 
L 649.277844 440.80824 
L 652.336775 445.172734 
L 661.513568 438.836408 
L 664.572499 443.533679 
L 673.749292 437.366514 
L 676.808223 442.295904 
L 685.985016 436.223766 
L 689.043947 441.330811 
L 698.22074 435.311466 
L 701.279671 440.560631 
L 710.456464 434.570524 
L 713.515395 439.935868 
L 722.692188 433.960883 
L 725.751119 439.424913 
L 734.927912 433.454093 
L 737.986843 439.00331 
L 747.163636 433.031477 
L 747.163636 433.031477 
" clip-path="url(#p8ab7bed214)" style="fill: none; stroke: #1f77b4; stroke-width: 1.5; stroke-linecap: round"/>
   </g>
   <g id="line2d_16">
    <path d="M 138.436364 492.48 
L 147.613157 471.730904 
L 150.672088 486.315661 
L 156.78995 472.42285 
L 159.848881 487.023628 
L 165.966743 473.154385 
L 169.025674 487.731287 
L 175.143536 473.88441 
L 178.202467 466.749445 
L 181.261398 481.575356 
L 187.37926 467.496344 
L 190.438191 482.289047 
L 196.556053 468.241174 
L 199.614984 483.001852 
L 205.732846 468.984054 
L 208.791777 461.714273 
L 211.850708 476.788381 
L 217.96857 462.47663 
L 221.027501 477.510512 
L 227.145363 463.236445 
L 230.204294 478.231397 
L 236.322156 463.994113 
L 239.381087 456.57337 
L 242.440018 471.936028 
L 248.55788 457.352314 
L 251.616811 472.669322 
L 257.734673 458.128678 
L 260.793604 473.400892 
L 266.911466 458.902588 
L 269.970397 451.318823 
L 273.029328 467.002271 
L 279.14719 452.115311 
L 282.206122 467.748744 
L 288.323984 452.90902 
L 291.382915 468.493201 
L 297.500777 453.700169 
L 300.559708 445.945291 
L 303.618639 461.973312 
L 309.736501 446.759924 
L 312.795432 462.734965 
L 318.913294 447.571782 
L 321.972225 463.494504 
L 328.090087 448.381167 
L 331.149018 440.450771 
L 334.207949 456.838986 
L 340.325811 441.283804 
L 343.384742 457.617222 
L 349.502604 442.114075 
L 352.561535 458.392999 
L 358.679397 442.941691 
L 361.738328 434.834613 
L 364.797259 451.591003 
L 370.915121 435.685832 
L 373.974052 452.386739 
L 380.091914 436.534405 
L 383.150845 453.179862 
L 389.268707 437.380309 
L 392.327638 429.098143 
L 395.386569 446.224278 
L 401.504431 429.967266 
L 404.563362 447.037964 
L 410.681224 430.833681 
L 413.740155 447.849031 
L 419.858017 431.697555 
L 422.916948 423.244139 
L 425.975879 440.735713 
L 432.093741 424.130366 
L 435.152672 441.567916 
L 441.270534 425.014476 
L 444.329466 442.397162 
L 450.447328 425.895788 
L 453.506259 417.276728 
L 456.56519 435.125528 
L 462.683052 418.179799 
L 465.741983 435.975961 
L 471.859845 419.080703 
L 474.918776 436.823361 
L 481.036638 419.978814 
L 484.095569 411.201024 
L 487.1545 429.394846 
L 493.272362 412.12009 
L 496.331293 430.26307 
L 502.449155 413.036893 
L 505.508086 431.128602 
L 511.625948 413.951306 
L 514.684879 405.022596 
L 517.74381 423.546568 
L 523.861672 405.95666 
L 526.920603 424.432127 
L 533.038465 406.888579 
L 536.097396 425.315036 
L 542.215258 407.818193 
L 545.274189 398.746924 
L 548.33312 417.584792 
L 554.450982 399.695346 
L 557.509913 418.486932 
L 563.627775 400.641409 
L 566.686706 419.386723 
L 572.804568 401.585503 
L 575.863499 392.380312 
L 578.92243 411.514034 
L 585.040292 393.341712 
L 588.099223 412.432346 
L 594.217085 394.301411 
L 597.276016 413.348181 
L 603.393878 395.259009 
L 606.45281 385.928581 
L 609.511741 405.340327 
L 615.629603 386.902337 
L 618.688534 455.687248 
L 621.747465 447.692148 
L 624.806396 439.197755 
L 627.865327 452.846061 
L 630.924258 444.692036 
L 633.983189 436.040742 
L 637.04212 426.984154 
L 640.101051 444.061198 
L 643.159982 435.346404 
L 646.218913 426.224752 
L 649.277844 444.506023 
L 652.336775 435.770165 
L 655.395706 426.619942 
L 658.454637 445.580931 
L 661.513568 436.851311 
L 667.63143 418.20417 
L 670.690361 438.355614 
L 676.808223 419.718769 
L 679.867154 440.164743 
L 682.926085 431.041885 
L 685.985016 421.561646 
L 689.043947 442.198887 
L 692.102878 433.110901 
L 698.22074 413.902845 
L 701.279671 435.360533 
L 707.397533 416.196821 
L 710.456464 437.750323 
L 716.574326 418.644798 
L 719.633257 440.251685 
L 725.751119 421.217954 
L 728.81005 411.286964 
L 731.868981 433.541015 
L 737.986843 413.984334 
L 741.045774 436.261106 
L 747.163636 416.770179 
L 747.163636 416.770179 
" clip-path="url(#p8ab7bed214)" style="fill: none; stroke: #ff7f0e; stroke-width: 1.5; stroke-linecap: round"/>
   </g>
   <g id="line2d_17">
    <path d="M 138.436364 492.48 
L 147.613157 471.730904 
L 153.731019 457.134675 
L 159.848881 441.598987 
L 165.966743 425.04748 
L 172.084605 407.536633 
L 178.202467 389.191006 
L 181.261398 481.575402 
L 187.37926 467.496391 
L 193.497122 452.640479 
L 199.614984 436.804865 
L 205.732846 419.959272 
L 211.850708 402.186726 
L 217.96857 383.621505 
L 221.027501 477.510548 
L 227.145363 463.236482 
L 233.263225 448.106064 
L 239.381087 431.971321 
L 245.498949 414.842164 
L 251.616811 396.822403 
L 257.734673 378.05226 
L 260.793604 473.40085 
L 266.911466 458.902545 
L 273.029328 443.485156 
L 279.14719 427.052599 
L 285.265053 409.649197 
L 291.382915 391.39452 
L 297.500777 372.431656 
L 300.559708 362.728074 
L 303.618639 461.973263 
L 309.736501 446.759876 
L 315.854363 430.537539 
L 321.972225 413.326886 
L 328.090087 395.236874 
L 334.207949 376.408875 
L 340.325811 356.98248 
L 343.384742 457.617298 
L 349.502604 442.114157 
L 355.620466 425.59499 
L 361.738328 408.113122 
L 367.85619 389.791884 
L 373.974052 370.774717 
L 380.091914 351.19709 
L 383.150845 453.179798 
L 389.268707 437.380243 
L 395.386569 420.569256 
L 401.504431 402.827078 
L 407.622293 384.2871 
L 413.740155 365.092461 
L 422.916948 335.352594 
L 425.975879 440.735831 
L 432.093741 424.130488 
L 438.211603 406.571113 
L 444.329466 388.184419 
L 450.447328 369.113988 
L 459.624121 339.514227 
L 462.683052 329.43818 
L 465.741983 435.975884 
L 471.859845 419.080622 
L 477.977707 401.26429 
L 484.095569 382.662505 
L 490.213431 363.417948 
L 499.390224 333.621865 
L 502.449155 323.494468 
L 505.508086 431.128583 
L 511.625948 413.951269 
L 517.74381 395.889875 
L 523.861672 377.085368 
L 529.979534 357.677775 
L 539.156327 327.698516 
L 545.274189 307.273615 
L 548.33312 417.585032 
L 554.450982 399.695521 
L 560.568844 381.032967 
L 566.686706 361.739434 
L 575.863499 331.888266 
L 585.040292 301.237288 
L 588.099223 458.048585 
L 624.806396 393.223458 
L 627.865327 454.434485 
L 667.63143 384.202691 
L 670.690361 447.611208 
L 707.397533 382.778849 
L 710.456464 447.158615 
L 747.163636 382.324045 
L 747.163636 382.324045 
" clip-path="url(#p8ab7bed214)" style="fill: none; stroke: #2ca02c; stroke-width: 1.5; stroke-linecap: round"/>
   </g>
   <g id="line2d_18">
    <path d="M 138.436364 492.48 
L 147.613157 471.730904 
L 153.731019 457.134675 
L 159.848881 441.598987 
L 165.966743 425.04748 
L 172.084605 407.536633 
L 178.202467 389.191006 
L 184.320329 370.154061 
L 193.497122 340.592262 
L 202.673915 310.143853 
L 214.909639 268.614429 
L 230.204294 215.751384 
L 248.55788 151.496146 
L 257.734673 119.159535 
L 260.793604 473.402136 
L 266.911466 458.903719 
L 273.029328 443.48618 
L 279.14719 427.053463 
L 285.265053 409.649913 
L 291.382915 391.395106 
L 297.500777 372.432134 
L 306.67757 342.953984 
L 315.854363 312.564107 
L 328.090087 271.086448 
L 343.384742 218.262482 
L 361.738328 154.033823 
L 380.091914 89.28 
L 383.150845 492.48 
L 747.163636 492.48 
L 747.163636 492.48 
" clip-path="url(#p8ab7bed214)" style="fill: none; stroke: #d62728; stroke-width: 1.5; stroke-linecap: round"/>
   </g>
   <g id="patch_3">
    <path d="M 108 512.64 
L 108 69.12 
" style="fill: none; stroke: #cccccc; stroke-width: 1.25; stroke-linejoin: miter; stroke-linecap: square"/>
   </g>
   <g id="patch_4">
    <path d="M 777.6 512.64 
L 777.6 69.12 
" style="fill: none; stroke: #cccccc; stroke-width: 1.25; stroke-linejoin: miter; stroke-linecap: square"/>
   </g>
   <g id="patch_5">
    <path d="M 108 512.64 
L 777.6 512.64 
" style="fill: none; stroke: #cccccc; stroke-width: 1.25; stroke-linejoin: miter; stroke-linecap: square"/>
   </g>
   <g id="patch_6">
    <path d="M 108 69.12 
L 777.6 69.12 
" style="fill: none; stroke: #cccccc; stroke-width: 1.25; stroke-linejoin: miter; stroke-linecap: square"/>
   </g>
   <g id="text_17">
    <!-- $\mathcal{D}^\delta$ -->
    <g style="fill: #262626" transform="translate(433.656 63.12) scale(0.144 -0.144)">
     <use xlink:href="#STIXNonUnicode-Italic-e230" transform="translate(0 0.765625)"/>
     <use xlink:href="#DejaVuSans-Oblique-3b4" transform="translate(81.057022 39.046875) scale(0.7)"/>
    </g>
   </g>
   <g id="legend_1">
    <g id="patch_7">
     <path d="M 682.428 177.624 
L 768.36 177.624 
Q 771 177.624 771 174.984 
L 771 78.36 
Q 771 75.72 768.36 75.72 
L 682.428 75.72 
Q 679.788 75.72 679.788 78.36 
L 679.788 174.984 
Q 679.788 177.624 682.428 177.624 
z
" style="fill: #ffffff; opacity: 0.8; stroke: #cccccc; stroke-linejoin: miter"/>
    </g>
    <g id="line2d_19">
     <path d="M 685.068 88.92 
L 698.268 88.92 
L 711.468 88.92 
" style="fill: none; stroke: #1f77b4; stroke-width: 1.5; stroke-linecap: round"/>
    </g>
    <g id="text_18">
     <!-- $\delta = \frac{1}{250}$ -->
     <g style="fill: #262626" transform="translate(722.028 93.54) scale(0.132 -0.132)">
      <defs>
       <path id="DejaVuSans-3d" d="M 678 2906 
L 4684 2906 
L 4684 2381 
L 678 2381 
L 678 2906 
z
M 678 1631 
L 4684 1631 
L 4684 1100 
L 678 1100 
L 678 1631 
z
" transform="scale(0.015625)"/>
       <path id="DejaVuSans-35" d="M 691 4666 
L 3169 4666 
L 3169 4134 
L 1269 4134 
L 1269 2991 
Q 1406 3038 1543 3061 
Q 1681 3084 1819 3084 
Q 2600 3084 3056 2656 
Q 3513 2228 3513 1497 
Q 3513 744 3044 326 
Q 2575 -91 1722 -91 
Q 1428 -91 1123 -41 
Q 819 9 494 109 
L 494 744 
Q 775 591 1075 516 
Q 1375 441 1709 441 
Q 2250 441 2565 725 
Q 2881 1009 2881 1497 
Q 2881 1984 2565 2268 
Q 2250 2553 1709 2553 
Q 1456 2553 1204 2497 
Q 953 2441 691 2322 
L 691 4666 
z
" transform="scale(0.015625)"/>
      </defs>
      <use xlink:href="#DejaVuSans-Oblique-3b4" transform="translate(0 0.16875)"/>
      <use xlink:href="#DejaVuSans-3d" transform="translate(80.664062 0.16875)"/>
      <use xlink:href="#DejaVuSans-31" transform="translate(228.935547 43.965625) scale(0.7)"/>
      <use xlink:href="#DejaVuSans-32" transform="translate(183.935547 -39.2375) scale(0.7)"/>
      <use xlink:href="#DejaVuSans-35" transform="translate(228.47168 -39.2375) scale(0.7)"/>
      <use xlink:href="#DejaVuSans-30" transform="translate(273.007812 -39.2375) scale(0.7)"/>
      <path d="M 183.935547 18.965625 
L 183.935547 25.215625 
L 317.543945 25.215625 
L 317.543945 18.965625 
L 183.935547 18.965625 
z
"/>
     </g>
    </g>
    <g id="line2d_20">
     <path d="M 685.068 113.472 
L 698.268 113.472 
L 711.468 113.472 
" style="fill: none; stroke: #ff7f0e; stroke-width: 1.5; stroke-linecap: round"/>
    </g>
    <g id="text_19">
     <!-- $\delta = \frac{1}{60}$ -->
     <g style="fill: #262626" transform="translate(722.028 118.092) scale(0.132 -0.132)">
      <use xlink:href="#DejaVuSans-Oblique-3b4" transform="translate(0 0.16875)"/>
      <use xlink:href="#DejaVuSans-3d" transform="translate(80.664062 0.16875)"/>
      <use xlink:href="#DejaVuSans-31" transform="translate(205.935547 43.965625) scale(0.7)"/>
      <use xlink:href="#DejaVuSans-36" transform="translate(183.935547 -39.2375) scale(0.7)"/>
      <use xlink:href="#DejaVuSans-30" transform="translate(228.47168 -39.2375) scale(0.7)"/>
      <path d="M 183.935547 18.965625 
L 183.935547 25.215625 
L 273.007812 25.215625 
L 273.007812 18.965625 
L 183.935547 18.965625 
z
"/>
     </g>
    </g>
    <g id="line2d_21">
     <path d="M 685.068 138.024 
L 698.268 138.024 
L 711.468 138.024 
" style="fill: none; stroke: #2ca02c; stroke-width: 1.5; stroke-linecap: round"/>
    </g>
    <g id="text_20">
     <!-- $\delta = \frac{1}{15}$ -->
     <g style="fill: #262626" transform="translate(722.028 142.644) scale(0.132 -0.132)">
      <use xlink:href="#DejaVuSans-Oblique-3b4" transform="translate(0 0.16875)"/>
      <use xlink:href="#DejaVuSans-3d" transform="translate(80.664062 0.16875)"/>
      <use xlink:href="#DejaVuSans-31" transform="translate(205.935547 43.965625) scale(0.7)"/>
      <use xlink:href="#DejaVuSans-31" transform="translate(183.935547 -38.31875) scale(0.7)"/>
      <use xlink:href="#DejaVuSans-35" transform="translate(228.47168 -38.31875) scale(0.7)"/>
      <path d="M 183.935547 18.965625 
L 183.935547 25.215625 
L 273.007812 25.215625 
L 273.007812 18.965625 
L 183.935547 18.965625 
z
"/>
     </g>
    </g>
    <g id="line2d_22">
     <path d="M 685.068 162.444 
L 698.268 162.444 
L 711.468 162.444 
" style="fill: none; stroke: #d62728; stroke-width: 1.5; stroke-linecap: round"/>
    </g>
    <g id="text_21">
     <!-- $\delta = \frac{1}{5}$ -->
     <g style="fill: #262626" transform="translate(722.028 167.064) scale(0.132 -0.132)">
      <use xlink:href="#DejaVuSans-Oblique-3b4" transform="translate(0 0.16875)"/>
      <use xlink:href="#DejaVuSans-3d" transform="translate(80.664062 0.16875)"/>
      <use xlink:href="#DejaVuSans-31" transform="translate(183.935547 43.965625) scale(0.7)"/>
      <use xlink:href="#DejaVuSans-35" transform="translate(183.935547 -38.31875) scale(0.7)"/>
      <path d="M 183.935547 18.965625 
L 183.935547 25.215625 
L 228.47168 25.215625 
L 228.47168 18.965625 
L 183.935547 18.965625 
z
"/>
     </g>
    </g>
   </g>
  </g>
 </g>
 <defs>
  <clipPath id="p8ab7bed214">
   <rect x="108" y="69.12" width="669.6" height="443.52"/>
  </clipPath>
 </defs>
</svg>
