<?xml version="1.0" encoding="utf-8" standalone="no"?>
<!DOCTYPE svg PUBLIC "-//W3C//DTD SVG 1.1//EN"
  "http://www.w3.org/Graphics/SVG/1.1/DTD/svg11.dtd">
<svg xmlns:xlink="http://www.w3.org/1999/xlink" width="720pt" height="360pt" viewBox="0 0 720 360" xmlns="http://www.w3.org/2000/svg" version="1.1">
 <metadata>
  <rdf:RDF xmlns:dc="http://purl.org/dc/elements/1.1/" xmlns:cc="http://creativecommons.org/ns#" xmlns:rdf="http://www.w3.org/1999/02/22-rdf-syntax-ns#">
   <cc:Work>
    <dc:type rdf:resource="http://purl.org/dc/dcmitype/StillImage"/>
    <dc:date>2025-03-14T16:17:21.848486</dc:date>
    <dc:format>image/svg+xml</dc:format>
    <dc:creator>
     <cc:Agent>
      <dc:title>Matplotlib v3.9.2, https://matplotlib.org/</dc:title>
     </cc:Agent>
    </dc:creator>
   </cc:Work>
  </rdf:RDF>
 </metadata>
 <defs>
  <style type="text/css">*{stroke-linejoin: round; stroke-linecap: butt}</style>
 </defs>
 <g id="figure_1">
  <g id="patch_1">
   <path d="M 0 360 
L 720 360 
L 720 0 
L 0 0 
z
" style="fill: #ffffff"/>
  </g>
  <g id="axes_1">
   <g id="patch_2">
    <path d="M 50.702 305.748 
L 369.799 305.748 
L 369.799 17.028439 
L 50.702 17.028439 
z
" style="fill: #ffffff"/>
   </g>
   <g id="matplotlib.axis_1">
    <g id="xtick_1">
     <g id="line2d_1">
      <path d="M 65.206409 305.748 
L 65.206409 17.028439 
" clip-path="url(#pa9deb0d8ab)" style="fill: none; stroke: #cccccc; stroke-linecap: round"/>
     </g>
     <g id="text_1">
      <!-- 0.0 -->
      <g style="fill: #262626" transform="translate(56.032409 324.696312) scale(0.132 -0.132)">
       <defs>
        <path id="ArialMT-30" d="M 266 2259 
Q 266 3072 433 3567 
Q 600 4063 929 4331 
Q 1259 4600 1759 4600 
Q 2128 4600 2406 4451 
Q 2684 4303 2865 4023 
Q 3047 3744 3150 3342 
Q 3253 2941 3253 2259 
Q 3253 1453 3087 958 
Q 2922 463 2592 192 
Q 2263 -78 1759 -78 
Q 1097 -78 719 397 
Q 266 969 266 2259 
z
M 844 2259 
Q 844 1131 1108 757 
Q 1372 384 1759 384 
Q 2147 384 2411 759 
Q 2675 1134 2675 2259 
Q 2675 3391 2411 3762 
Q 2147 4134 1753 4134 
Q 1366 4134 1134 3806 
Q 844 3388 844 2259 
z
" transform="scale(0.015625)"/>
        <path id="ArialMT-2e" d="M 581 0 
L 581 641 
L 1222 641 
L 1222 0 
L 581 0 
z
" transform="scale(0.015625)"/>
       </defs>
       <use xlink:href="#ArialMT-30"/>
       <use xlink:href="#ArialMT-2e" x="55.615234"/>
       <use xlink:href="#ArialMT-30" x="83.398438"/>
      </g>
     </g>
    </g>
    <g id="xtick_2">
     <g id="line2d_2">
      <path d="M 123.224045 305.748 
L 123.224045 17.028439 
" clip-path="url(#pa9deb0d8ab)" style="fill: none; stroke: #cccccc; stroke-linecap: round"/>
     </g>
     <g id="text_2">
      <!-- 0.2 -->
      <g style="fill: #262626" transform="translate(114.050045 324.696312) scale(0.132 -0.132)">
       <defs>
        <path id="ArialMT-32" d="M 3222 541 
L 3222 0 
L 194 0 
Q 188 203 259 391 
Q 375 700 629 1000 
Q 884 1300 1366 1694 
Q 2113 2306 2375 2664 
Q 2638 3022 2638 3341 
Q 2638 3675 2398 3904 
Q 2159 4134 1775 4134 
Q 1369 4134 1125 3890 
Q 881 3647 878 3216 
L 300 3275 
Q 359 3922 746 4261 
Q 1134 4600 1788 4600 
Q 2447 4600 2831 4234 
Q 3216 3869 3216 3328 
Q 3216 3053 3103 2787 
Q 2991 2522 2730 2228 
Q 2469 1934 1863 1422 
Q 1356 997 1212 845 
Q 1069 694 975 541 
L 3222 541 
z
" transform="scale(0.015625)"/>
       </defs>
       <use xlink:href="#ArialMT-30"/>
       <use xlink:href="#ArialMT-2e" x="55.615234"/>
       <use xlink:href="#ArialMT-32" x="83.398438"/>
      </g>
     </g>
    </g>
    <g id="xtick_3">
     <g id="line2d_3">
      <path d="M 181.241682 305.748 
L 181.241682 17.028439 
" clip-path="url(#pa9deb0d8ab)" style="fill: none; stroke: #cccccc; stroke-linecap: round"/>
     </g>
     <g id="text_3">
      <!-- 0.4 -->
      <g style="fill: #262626" transform="translate(172.067682 324.696312) scale(0.132 -0.132)">
       <defs>
        <path id="ArialMT-34" d="M 2069 0 
L 2069 1097 
L 81 1097 
L 81 1613 
L 2172 4581 
L 2631 4581 
L 2631 1613 
L 3250 1613 
L 3250 1097 
L 2631 1097 
L 2631 0 
L 2069 0 
z
M 2069 1613 
L 2069 3678 
L 634 1613 
L 2069 1613 
z
" transform="scale(0.015625)"/>
       </defs>
       <use xlink:href="#ArialMT-30"/>
       <use xlink:href="#ArialMT-2e" x="55.615234"/>
       <use xlink:href="#ArialMT-34" x="83.398438"/>
      </g>
     </g>
    </g>
    <g id="xtick_4">
     <g id="line2d_4">
      <path d="M 239.259318 305.748 
L 239.259318 17.028439 
" clip-path="url(#pa9deb0d8ab)" style="fill: none; stroke: #cccccc; stroke-linecap: round"/>
     </g>
     <g id="text_4">
      <!-- 0.6 -->
      <g style="fill: #262626" transform="translate(230.085318 324.696312) scale(0.132 -0.132)">
       <defs>
        <path id="ArialMT-36" d="M 3184 3459 
L 2625 3416 
Q 2550 3747 2413 3897 
Q 2184 4138 1850 4138 
Q 1581 4138 1378 3988 
Q 1113 3794 959 3422 
Q 806 3050 800 2363 
Q 1003 2672 1297 2822 
Q 1591 2972 1913 2972 
Q 2475 2972 2870 2558 
Q 3266 2144 3266 1488 
Q 3266 1056 3080 686 
Q 2894 316 2569 119 
Q 2244 -78 1831 -78 
Q 1128 -78 684 439 
Q 241 956 241 2144 
Q 241 3472 731 4075 
Q 1159 4600 1884 4600 
Q 2425 4600 2770 4297 
Q 3116 3994 3184 3459 
z
M 888 1484 
Q 888 1194 1011 928 
Q 1134 663 1356 523 
Q 1578 384 1822 384 
Q 2178 384 2434 671 
Q 2691 959 2691 1453 
Q 2691 1928 2437 2201 
Q 2184 2475 1800 2475 
Q 1419 2475 1153 2201 
Q 888 1928 888 1484 
z
" transform="scale(0.015625)"/>
       </defs>
       <use xlink:href="#ArialMT-30"/>
       <use xlink:href="#ArialMT-2e" x="55.615234"/>
       <use xlink:href="#ArialMT-36" x="83.398438"/>
      </g>
     </g>
    </g>
    <g id="xtick_5">
     <g id="line2d_5">
      <path d="M 297.276955 305.748 
L 297.276955 17.028439 
" clip-path="url(#pa9deb0d8ab)" style="fill: none; stroke: #cccccc; stroke-linecap: round"/>
     </g>
     <g id="text_5">
      <!-- 0.8 -->
      <g style="fill: #262626" transform="translate(288.102955 324.696312) scale(0.132 -0.132)">
       <defs>
        <path id="ArialMT-38" d="M 1131 2484 
Q 781 2613 612 2850 
Q 444 3088 444 3419 
Q 444 3919 803 4259 
Q 1163 4600 1759 4600 
Q 2359 4600 2725 4251 
Q 3091 3903 3091 3403 
Q 3091 3084 2923 2848 
Q 2756 2613 2416 2484 
Q 2838 2347 3058 2040 
Q 3278 1734 3278 1309 
Q 3278 722 2862 322 
Q 2447 -78 1769 -78 
Q 1091 -78 675 323 
Q 259 725 259 1325 
Q 259 1772 486 2073 
Q 713 2375 1131 2484 
z
M 1019 3438 
Q 1019 3113 1228 2906 
Q 1438 2700 1772 2700 
Q 2097 2700 2305 2904 
Q 2513 3109 2513 3406 
Q 2513 3716 2298 3927 
Q 2084 4138 1766 4138 
Q 1444 4138 1231 3931 
Q 1019 3725 1019 3438 
z
M 838 1322 
Q 838 1081 952 856 
Q 1066 631 1291 507 
Q 1516 384 1775 384 
Q 2178 384 2440 643 
Q 2703 903 2703 1303 
Q 2703 1709 2433 1975 
Q 2163 2241 1756 2241 
Q 1359 2241 1098 1978 
Q 838 1716 838 1322 
z
" transform="scale(0.015625)"/>
       </defs>
       <use xlink:href="#ArialMT-30"/>
       <use xlink:href="#ArialMT-2e" x="55.615234"/>
       <use xlink:href="#ArialMT-38" x="83.398438"/>
      </g>
     </g>
    </g>
    <g id="xtick_6">
     <g id="line2d_6">
      <path d="M 355.294591 305.748 
L 355.294591 17.028439 
" clip-path="url(#pa9deb0d8ab)" style="fill: none; stroke: #cccccc; stroke-linecap: round"/>
     </g>
     <g id="text_6">
      <!-- 1.0 -->
      <g style="fill: #262626" transform="translate(346.120591 324.696312) scale(0.132 -0.132)">
       <defs>
        <path id="ArialMT-31" d="M 2384 0 
L 1822 0 
L 1822 3584 
Q 1619 3391 1289 3197 
Q 959 3003 697 2906 
L 697 3450 
Q 1169 3672 1522 3987 
Q 1875 4303 2022 4600 
L 2384 4600 
L 2384 0 
z
" transform="scale(0.015625)"/>
       </defs>
       <use xlink:href="#ArialMT-31"/>
       <use xlink:href="#ArialMT-2e" x="55.615234"/>
       <use xlink:href="#ArialMT-30" x="83.398438"/>
      </g>
     </g>
    </g>
    <g id="text_7">
     <!-- $t$ -->
     <g style="fill: #262626" transform="translate(207.3705 341.627062) scale(0.144 -0.144)">
      <defs>
       <path id="DejaVuSans-Oblique-74" d="M 2706 3500 
L 2619 3053 
L 1472 3053 
L 1100 1153 
Q 1081 1047 1072 975 
Q 1063 903 1063 863 
Q 1063 663 1183 572 
Q 1303 481 1569 481 
L 2150 481 
L 2053 0 
L 1503 0 
Q 991 0 739 200 
Q 488 400 488 806 
Q 488 878 497 964 
Q 506 1050 525 1153 
L 897 3053 
L 409 3053 
L 500 3500 
L 978 3500 
L 1172 4494 
L 1747 4494 
L 1556 3500 
L 2706 3500 
z
" transform="scale(0.015625)"/>
      </defs>
      <use xlink:href="#DejaVuSans-Oblique-74" transform="translate(0 0.78125)"/>
     </g>
    </g>
   </g>
   <g id="matplotlib.axis_2">
    <g id="ytick_1">
     <g id="line2d_7">
      <path d="M 50.702 296.12193 
L 369.799 296.12193 
" clip-path="url(#pa9deb0d8ab)" style="fill: none; stroke: #cccccc; stroke-linecap: round"/>
     </g>
     <g id="text_8">
      <!-- 0.00 -->
      <g style="fill: #262626" transform="translate(15.513563 300.846086) scale(0.132 -0.132)">
       <use xlink:href="#ArialMT-30"/>
       <use xlink:href="#ArialMT-2e" x="55.615234"/>
       <use xlink:href="#ArialMT-30" x="83.398438"/>
       <use xlink:href="#ArialMT-30" x="139.013672"/>
      </g>
     </g>
    </g>
    <g id="ytick_2">
     <g id="line2d_8">
      <path d="M 50.702 261.675765 
L 369.799 261.675765 
" clip-path="url(#pa9deb0d8ab)" style="fill: none; stroke: #cccccc; stroke-linecap: round"/>
     </g>
     <g id="text_9">
      <!-- 0.25 -->
      <g style="fill: #262626" transform="translate(15.513563 266.399921) scale(0.132 -0.132)">
       <defs>
        <path id="ArialMT-35" d="M 266 1200 
L 856 1250 
Q 922 819 1161 601 
Q 1400 384 1738 384 
Q 2144 384 2425 690 
Q 2706 997 2706 1503 
Q 2706 1984 2436 2262 
Q 2166 2541 1728 2541 
Q 1456 2541 1237 2417 
Q 1019 2294 894 2097 
L 366 2166 
L 809 4519 
L 3088 4519 
L 3088 3981 
L 1259 3981 
L 1013 2750 
Q 1425 3038 1878 3038 
Q 2478 3038 2890 2622 
Q 3303 2206 3303 1553 
Q 3303 931 2941 478 
Q 2500 -78 1738 -78 
Q 1113 -78 717 272 
Q 322 622 266 1200 
z
" transform="scale(0.015625)"/>
       </defs>
       <use xlink:href="#ArialMT-30"/>
       <use xlink:href="#ArialMT-2e" x="55.615234"/>
       <use xlink:href="#ArialMT-32" x="83.398438"/>
       <use xlink:href="#ArialMT-35" x="139.013672"/>
      </g>
     </g>
    </g>
    <g id="ytick_3">
     <g id="line2d_9">
      <path d="M 50.702 227.2296 
L 369.799 227.2296 
" clip-path="url(#pa9deb0d8ab)" style="fill: none; stroke: #cccccc; stroke-linecap: round"/>
     </g>
     <g id="text_10">
      <!-- 0.50 -->
      <g style="fill: #262626" transform="translate(15.513563 231.953756) scale(0.132 -0.132)">
       <use xlink:href="#ArialMT-30"/>
       <use xlink:href="#ArialMT-2e" x="55.615234"/>
       <use xlink:href="#ArialMT-35" x="83.398438"/>
       <use xlink:href="#ArialMT-30" x="139.013672"/>
      </g>
     </g>
    </g>
    <g id="ytick_4">
     <g id="line2d_10">
      <path d="M 50.702 192.783435 
L 369.799 192.783435 
" clip-path="url(#pa9deb0d8ab)" style="fill: none; stroke: #cccccc; stroke-linecap: round"/>
     </g>
     <g id="text_11">
      <!-- 0.75 -->
      <g style="fill: #262626" transform="translate(15.513563 197.507591) scale(0.132 -0.132)">
       <defs>
        <path id="ArialMT-37" d="M 303 3981 
L 303 4522 
L 3269 4522 
L 3269 4084 
Q 2831 3619 2401 2847 
Q 1972 2075 1738 1259 
Q 1569 684 1522 0 
L 944 0 
Q 953 541 1156 1306 
Q 1359 2072 1739 2783 
Q 2119 3494 2547 3981 
L 303 3981 
z
" transform="scale(0.015625)"/>
       </defs>
       <use xlink:href="#ArialMT-30"/>
       <use xlink:href="#ArialMT-2e" x="55.615234"/>
       <use xlink:href="#ArialMT-37" x="83.398438"/>
       <use xlink:href="#ArialMT-35" x="139.013672"/>
      </g>
     </g>
    </g>
    <g id="ytick_5">
     <g id="line2d_11">
      <path d="M 50.702 158.33727 
L 369.799 158.33727 
" clip-path="url(#pa9deb0d8ab)" style="fill: none; stroke: #cccccc; stroke-linecap: round"/>
     </g>
     <g id="text_12">
      <!-- 1.00 -->
      <g style="fill: #262626" transform="translate(15.513563 163.061426) scale(0.132 -0.132)">
       <use xlink:href="#ArialMT-31"/>
       <use xlink:href="#ArialMT-2e" x="55.615234"/>
       <use xlink:href="#ArialMT-30" x="83.398438"/>
       <use xlink:href="#ArialMT-30" x="139.013672"/>
      </g>
     </g>
    </g>
    <g id="ytick_6">
     <g id="line2d_12">
      <path d="M 50.702 123.891105 
L 369.799 123.891105 
" clip-path="url(#pa9deb0d8ab)" style="fill: none; stroke: #cccccc; stroke-linecap: round"/>
     </g>
     <g id="text_13">
      <!-- 1.25 -->
      <g style="fill: #262626" transform="translate(15.513563 128.615261) scale(0.132 -0.132)">
       <use xlink:href="#ArialMT-31"/>
       <use xlink:href="#ArialMT-2e" x="55.615234"/>
       <use xlink:href="#ArialMT-32" x="83.398438"/>
       <use xlink:href="#ArialMT-35" x="139.013672"/>
      </g>
     </g>
    </g>
    <g id="ytick_7">
     <g id="line2d_13">
      <path d="M 50.702 89.44494 
L 369.799 89.44494 
" clip-path="url(#pa9deb0d8ab)" style="fill: none; stroke: #cccccc; stroke-linecap: round"/>
     </g>
     <g id="text_14">
      <!-- 1.50 -->
      <g style="fill: #262626" transform="translate(15.513563 94.169096) scale(0.132 -0.132)">
       <use xlink:href="#ArialMT-31"/>
       <use xlink:href="#ArialMT-2e" x="55.615234"/>
       <use xlink:href="#ArialMT-35" x="83.398438"/>
       <use xlink:href="#ArialMT-30" x="139.013672"/>
      </g>
     </g>
    </g>
    <g id="ytick_8">
     <g id="line2d_14">
      <path d="M 50.702 54.998775 
L 369.799 54.998775 
" clip-path="url(#pa9deb0d8ab)" style="fill: none; stroke: #cccccc; stroke-linecap: round"/>
     </g>
     <g id="text_15">
      <!-- 1.75 -->
      <g style="fill: #262626" transform="translate(15.513563 59.722931) scale(0.132 -0.132)">
       <use xlink:href="#ArialMT-31"/>
       <use xlink:href="#ArialMT-2e" x="55.615234"/>
       <use xlink:href="#ArialMT-37" x="83.398438"/>
       <use xlink:href="#ArialMT-35" x="139.013672"/>
      </g>
     </g>
    </g>
    <g id="ytick_9">
     <g id="line2d_15">
      <path d="M 50.702 20.55261 
L 369.799 20.55261 
" clip-path="url(#pa9deb0d8ab)" style="fill: none; stroke: #cccccc; stroke-linecap: round"/>
     </g>
     <g id="text_16">
      <!-- 2.00 -->
      <g style="fill: #262626" transform="translate(15.513563 25.276766) scale(0.132 -0.132)">
       <use xlink:href="#ArialMT-32"/>
       <use xlink:href="#ArialMT-2e" x="55.615234"/>
       <use xlink:href="#ArialMT-30" x="83.398438"/>
       <use xlink:href="#ArialMT-30" x="139.013672"/>
      </g>
     </g>
    </g>
   </g>
   <g id="line2d_16">
    <path d="M 65.206409 271.756833 
L 71.249913 271.589162 
L 77.897767 271.310274 
L 92.402177 270.332383 
L 106.906589 268.847831 
L 121.410997 266.828177 
L 135.311055 264.349465 
L 140.750212 263.238486 
L 154.045917 260.126266 
L 167.341629 256.444454 
L 180.637338 252.151191 
L 193.933047 247.202608 
L 206.624401 241.815886 
L 210.854845 239.885566 
L 223.546196 233.58575 
L 227.776662 231.340424 
L 239.863658 224.433438 
L 251.950671 216.81949 
L 264.037684 208.466317 
L 276.12468 199.34281 
L 288.211694 189.41919 
L 291.233443 186.795698 
L 296.672608 186.593323 
L 303.320456 186.261204 
L 307.550905 186.052758 
L 311.781353 185.801493 
L 316.011819 185.572622 
L 320.242268 185.301731 
L 324.472716 185.058258 
L 328.703165 184.772789 
L 331.724931 184.59663 
L 335.95538 184.301281 
L 338.977129 184.119709 
L 341.998878 183.897894 
L 345.020627 183.7125 
L 348.042393 183.486377 
L 351.064142 183.297654 
L 354.085891 183.067787 
L 355.294591 182.983298 
L 355.294591 182.983298 
" clip-path="url(#pa9deb0d8ab)" style="fill: none; stroke: #1f77b4; stroke-width: 1.5; stroke-linecap: round"/>
   </g>
   <g id="line2d_17">
    <path d="M 65.206409 271.756833 
L 79.710819 271.517936 
L 96.632631 270.631289 
L 112.950091 269.12406 
L 118.389244 268.485555 
L 134.102356 266.182824 
L 149.815468 263.193964 
L 164.31988 259.775602 
L 178.824284 255.671521 
L 193.328697 250.826576 
L 207.228755 245.423244 
L 211.4592 243.640764 
L 224.754895 237.511758 
L 238.050608 230.604648 
L 251.346321 222.874619 
L 264.642034 214.277951 
L 277.937747 204.772238 
L 290.629093 194.797765 
L 291.233443 292.624151 
L 296.672608 292.61009 
L 300.903057 292.624264 
L 305.133505 292.6075 
L 309.363954 292.624314 
L 313.59442 292.605886 
L 316.616169 292.624341 
L 319.637918 292.605022 
L 322.659667 292.624355 
L 325.681416 292.604311 
L 328.703165 292.624368 
L 331.724931 292.603716 
L 334.74668 292.624374 
L 337.768429 292.603204 
L 340.790178 292.624377 
L 343.811927 292.602762 
L 346.833694 292.624382 
L 349.855443 292.602374 
L 352.877192 292.624383 
L 355.294591 292.624384 
L 355.294591 292.624384 
" clip-path="url(#pa9deb0d8ab)" style="fill: none; stroke: #ff7f0e; stroke-width: 1.5; stroke-linecap: round"/>
   </g>
   <g id="patch_3">
    <path d="M 50.702 305.748 
L 50.702 17.028439 
" style="fill: none; stroke: #cccccc; stroke-width: 1.25; stroke-linejoin: miter; stroke-linecap: square"/>
   </g>
   <g id="patch_4">
    <path d="M 369.799 305.748 
L 369.799 17.028439 
" style="fill: none; stroke: #cccccc; stroke-width: 1.25; stroke-linejoin: miter; stroke-linecap: square"/>
   </g>
   <g id="patch_5">
    <path d="M 50.702 305.748 
L 369.799 305.748 
" style="fill: none; stroke: #cccccc; stroke-width: 1.25; stroke-linejoin: miter; stroke-linecap: square"/>
   </g>
   <g id="patch_6">
    <path d="M 50.702 17.028439 
L 369.799 17.028439 
" style="fill: none; stroke: #cccccc; stroke-width: 1.25; stroke-linejoin: miter; stroke-linecap: square"/>
   </g>
   <g id="legend_1">
    <g id="patch_7">
     <path d="M 251.659 79.860439 
L 360.559 79.860439 
Q 363.199 79.860439 363.199 77.220439 
L 363.199 26.268439 
Q 363.199 23.628439 360.559 23.628439 
L 251.659 23.628439 
Q 249.019 23.628439 249.019 26.268439 
L 249.019 77.220439 
Q 249.019 79.860439 251.659 79.860439 
z
" style="fill: #ffffff; opacity: 0.8; stroke: #cccccc; stroke-linejoin: miter"/>
    </g>
    <g id="line2d_18">
     <path d="M 254.299 42.108439 
L 267.499 42.108439 
L 280.699 42.108439 
" style="fill: none; stroke: #1f77b4; stroke-width: 1.5; stroke-linecap: round"/>
    </g>
    <g id="text_17">
     <!-- $\int_0^t \mathcal{D}^\delta(s)\,\mathrm{d}s$ -->
     <g style="fill: #262626" transform="translate(291.259 46.728439) scale(0.132 -0.132)">
      <defs>
       <path id="DejaVuSansDisplay-222b" d="M 2134 5525 
Q 2172 6263 2528 6556 
Q 2884 6850 3218 6850 
Q 3553 6850 3833 6575 
Q 4113 6300 4200 5678 
L 3544 5613 
Q 3469 6188 3219 6188 
Q 2906 6188 2869 5413 
L 2581 -597 
Q 2547 -1334 2187 -1628 
Q 1828 -1922 1497 -1922 
Q 1163 -1922 883 -1647 
Q 603 -1372 516 -750 
L 1172 -684 
Q 1247 -1259 1497 -1259 
Q 1809 -1259 1847 -488 
L 2134 5525 
z
" transform="scale(0.015625)"/>
       <path id="DejaVuSans-30" d="M 2034 4250 
Q 1547 4250 1301 3770 
Q 1056 3291 1056 2328 
Q 1056 1369 1301 889 
Q 1547 409 2034 409 
Q 2525 409 2770 889 
Q 3016 1369 3016 2328 
Q 3016 3291 2770 3770 
Q 2525 4250 2034 4250 
z
M 2034 4750 
Q 2819 4750 3233 4129 
Q 3647 3509 3647 2328 
Q 3647 1150 3233 529 
Q 2819 -91 2034 -91 
Q 1250 -91 836 529 
Q 422 1150 422 2328 
Q 422 3509 836 4129 
Q 1250 4750 2034 4750 
z
" transform="scale(0.015625)"/>
       <path id="STIXNonUnicode-Italic-e230" d="M 314 3418 
L 218 3539 
Q 621 3923 1126 4083 
Q 1619 4237 2490 4237 
Q 3475 4237 4028 4080 
Q 4582 3923 4812 3596 
Q 5043 3270 5043 2701 
Q 5043 2349 4950 1993 
Q 4858 1638 4634 1273 
Q 4410 909 4070 630 
Q 3731 352 3190 176 
Q 2650 0 1978 0 
L 333 0 
L 378 154 
Q 576 154 678 275 
Q 781 397 870 710 
L 1491 2867 
Q 1517 2957 1581 3155 
Q 1645 3354 1673 3466 
Q 1702 3578 1702 3642 
Q 1702 3878 1414 3878 
Q 877 3878 314 3418 
z
M 2438 3750 
L 1510 557 
Q 1478 454 1478 390 
Q 1478 307 1568 281 
Q 1658 256 1856 256 
Q 2093 256 2355 297 
Q 2618 339 2989 489 
Q 3360 640 3645 886 
Q 3930 1133 4134 1597 
Q 4339 2061 4339 2675 
Q 4339 3328 3977 3654 
Q 3616 3981 2758 3981 
Q 2643 3981 2553 3913 
Q 2464 3846 2438 3750 
z
" transform="scale(0.015625)"/>
       <path id="DejaVuSans-Oblique-3b4" d="M 3472 4053 
Q 3197 4272 2450 4272 
Q 1659 4272 1588 3906 
Q 1531 3619 2328 3469 
Q 2953 3353 3253 3003 
Q 3616 2581 3447 1716 
Q 3284 888 2763 400 
Q 2238 -91 1488 -91 
Q 741 -91 406 400 
Q 72 888 241 1747 
Q 363 2384 891 2900 
Q 1097 3100 1353 3213 
Q 913 3459 1000 3900 
Q 1166 4750 2544 4750 
Q 3234 4750 3566 4531 
L 3472 4053 
z
M 1753 3056 
Q 1525 2966 1306 2738 
Q 969 2384 847 1747 
Q 722 1113 919 756 
Q 1119 397 1584 397 
Q 2044 397 2381 759 
Q 2722 1122 2838 1716 
Q 2956 2338 2731 2638 
Q 2491 2959 2103 2994 
Q 1906 3013 1753 3056 
z
" transform="scale(0.015625)"/>
       <path id="DejaVuSans-28" d="M 1984 4856 
Q 1566 4138 1362 3434 
Q 1159 2731 1159 2009 
Q 1159 1288 1364 580 
Q 1569 -128 1984 -844 
L 1484 -844 
Q 1016 -109 783 600 
Q 550 1309 550 2009 
Q 550 2706 781 3412 
Q 1013 4119 1484 4856 
L 1984 4856 
z
" transform="scale(0.015625)"/>
       <path id="DejaVuSans-Oblique-73" d="M 3200 3397 
L 3091 2853 
Q 2863 2978 2609 3040 
Q 2356 3103 2088 3103 
Q 1634 3103 1373 2948 
Q 1113 2794 1113 2528 
Q 1113 2219 1719 2053 
Q 1766 2041 1788 2034 
L 1972 1978 
Q 2547 1819 2739 1644 
Q 2931 1469 2931 1166 
Q 2931 609 2489 259 
Q 2047 -91 1331 -91 
Q 1053 -91 747 -37 
Q 441 16 72 128 
L 184 722 
Q 500 559 806 475 
Q 1113 391 1394 391 
Q 1816 391 2080 572 
Q 2344 753 2344 1031 
Q 2344 1331 1650 1516 
L 1591 1531 
L 1394 1581 
Q 956 1697 753 1886 
Q 550 2075 550 2369 
Q 550 2928 970 3256 
Q 1391 3584 2113 3584 
Q 2397 3584 2667 3537 
Q 2938 3491 3200 3397 
z
" transform="scale(0.015625)"/>
       <path id="DejaVuSans-29" d="M 513 4856 
L 1013 4856 
Q 1481 4119 1714 3412 
Q 1947 2706 1947 2009 
Q 1947 1309 1714 600 
Q 1481 -109 1013 -844 
L 513 -844 
Q 928 -128 1133 580 
Q 1338 1288 1338 2009 
Q 1338 2731 1133 3434 
Q 928 4138 513 4856 
z
" transform="scale(0.015625)"/>
       <path id="DejaVuSans-64" d="M 2906 2969 
L 2906 4863 
L 3481 4863 
L 3481 0 
L 2906 0 
L 2906 525 
Q 2725 213 2448 61 
Q 2172 -91 1784 -91 
Q 1150 -91 751 415 
Q 353 922 353 1747 
Q 353 2572 751 3078 
Q 1150 3584 1784 3584 
Q 2172 3584 2448 3432 
Q 2725 3281 2906 2969 
z
M 947 1747 
Q 947 1113 1208 752 
Q 1469 391 1925 391 
Q 2381 391 2643 752 
Q 2906 1113 2906 1747 
Q 2906 2381 2643 2742 
Q 2381 3103 1925 3103 
Q 1469 3103 1208 2742 
Q 947 2381 947 1747 
z
" transform="scale(0.015625)"/>
      </defs>
      <use xlink:href="#DejaVuSansDisplay-222b" transform="translate(0 0.690625)"/>
      <use xlink:href="#DejaVuSans-Oblique-74" transform="translate(86.744141 85.846875) scale(0.7)"/>
      <use xlink:href="#DejaVuSans-30" transform="translate(71.759766 -51.215625) scale(0.7)"/>
      <use xlink:href="#STIXNonUnicode-Italic-e230" transform="translate(116.295898 0.690625)"/>
      <use xlink:href="#DejaVuSans-Oblique-3b4" transform="translate(197.352921 38.971875) scale(0.7)"/>
      <use xlink:href="#DejaVuSans-28" transform="translate(242.914444 0.690625)"/>
      <use xlink:href="#DejaVuSans-Oblique-73" transform="translate(281.928116 0.690625)"/>
      <use xlink:href="#DejaVuSans-29" transform="translate(334.027725 0.690625)"/>
      <use xlink:href="#DejaVuSans-64" transform="translate(389.277073 0.690625)"/>
      <use xlink:href="#DejaVuSans-Oblique-73" transform="translate(452.753636 0.690625)"/>
     </g>
    </g>
    <g id="line2d_19">
     <path d="M 254.299 67.336939 
L 267.499 67.336939 
L 280.699 67.336939 
" style="fill: none; stroke: #ff7f0e; stroke-width: 1.5; stroke-linecap: round"/>
    </g>
    <g id="text_18">
     <!-- $E_t(u^\delta(t))$ -->
     <g style="fill: #262626" transform="translate(291.259 71.956939) scale(0.132 -0.132)">
      <defs>
       <path id="DejaVuSans-Oblique-45" d="M 1081 4666 
L 4031 4666 
L 3928 4134 
L 1606 4134 
L 1338 2753 
L 3566 2753 
L 3463 2222 
L 1234 2222 
L 909 531 
L 3284 531 
L 3181 0 
L 172 0 
L 1081 4666 
z
" transform="scale(0.015625)"/>
       <path id="DejaVuSans-Oblique-75" d="M 428 1388 
L 838 3500 
L 1416 3500 
L 1006 1409 
Q 975 1256 961 1147 
Q 947 1038 947 966 
Q 947 700 1109 554 
Q 1272 409 1569 409 
Q 2031 409 2368 721 
Q 2706 1034 2809 1563 
L 3194 3500 
L 3769 3500 
L 3091 0 
L 2516 0 
L 2631 550 
Q 2388 244 2052 76 
Q 1716 -91 1338 -91 
Q 878 -91 622 161 
Q 366 413 366 863 
Q 366 956 381 1097 
Q 397 1238 428 1388 
z
" transform="scale(0.015625)"/>
      </defs>
      <use xlink:href="#DejaVuSans-Oblique-45" transform="translate(0 0.765625)"/>
      <use xlink:href="#DejaVuSans-Oblique-74" transform="translate(63.183594 -15.640625) scale(0.7)"/>
      <use xlink:href="#DejaVuSans-28" transform="translate(93.364258 0.765625)"/>
      <use xlink:href="#DejaVuSans-Oblique-75" transform="translate(132.37793 0.765625)"/>
      <use xlink:href="#DejaVuSans-Oblique-3b4" transform="translate(200.222982 39.046875) scale(0.7)"/>
      <use xlink:href="#DejaVuSans-28" transform="translate(245.784505 0.765625)"/>
      <use xlink:href="#DejaVuSans-Oblique-74" transform="translate(284.798177 0.765625)"/>
      <use xlink:href="#DejaVuSans-29" transform="translate(324.007161 0.765625)"/>
      <use xlink:href="#DejaVuSans-29" transform="translate(363.020833 0.765625)"/>
     </g>
    </g>
   </g>
  </g>
  <g id="axes_2">
   <g id="patch_8">
    <path d="M 385.351 305.748 
L 704.448 305.748 
L 704.448 17.028439 
L 385.351 17.028439 
z
" style="fill: #ffffff"/>
   </g>
   <g id="matplotlib.axis_3">
    <g id="xtick_7">
     <g id="line2d_20">
      <path d="M 399.855409 305.748 
L 399.855409 17.028439 
" clip-path="url(#pefaa802566)" style="fill: none; stroke: #cccccc; stroke-linecap: round"/>
     </g>
     <g id="text_19">
      <!-- 0.0 -->
      <g style="fill: #262626" transform="translate(390.681409 324.696312) scale(0.132 -0.132)">
       <use xlink:href="#ArialMT-30"/>
       <use xlink:href="#ArialMT-2e" x="55.615234"/>
       <use xlink:href="#ArialMT-30" x="83.398438"/>
      </g>
     </g>
    </g>
    <g id="xtick_8">
     <g id="line2d_21">
      <path d="M 457.873045 305.748 
L 457.873045 17.028439 
" clip-path="url(#pefaa802566)" style="fill: none; stroke: #cccccc; stroke-linecap: round"/>
     </g>
     <g id="text_20">
      <!-- 0.2 -->
      <g style="fill: #262626" transform="translate(448.699045 324.696312) scale(0.132 -0.132)">
       <use xlink:href="#ArialMT-30"/>
       <use xlink:href="#ArialMT-2e" x="55.615234"/>
       <use xlink:href="#ArialMT-32" x="83.398438"/>
      </g>
     </g>
    </g>
    <g id="xtick_9">
     <g id="line2d_22">
      <path d="M 515.890682 305.748 
L 515.890682 17.028439 
" clip-path="url(#pefaa802566)" style="fill: none; stroke: #cccccc; stroke-linecap: round"/>
     </g>
     <g id="text_21">
      <!-- 0.4 -->
      <g style="fill: #262626" transform="translate(506.716682 324.696312) scale(0.132 -0.132)">
       <use xlink:href="#ArialMT-30"/>
       <use xlink:href="#ArialMT-2e" x="55.615234"/>
       <use xlink:href="#ArialMT-34" x="83.398438"/>
      </g>
     </g>
    </g>
    <g id="xtick_10">
     <g id="line2d_23">
      <path d="M 573.908318 305.748 
L 573.908318 17.028439 
" clip-path="url(#pefaa802566)" style="fill: none; stroke: #cccccc; stroke-linecap: round"/>
     </g>
     <g id="text_22">
      <!-- 0.6 -->
      <g style="fill: #262626" transform="translate(564.734318 324.696312) scale(0.132 -0.132)">
       <use xlink:href="#ArialMT-30"/>
       <use xlink:href="#ArialMT-2e" x="55.615234"/>
       <use xlink:href="#ArialMT-36" x="83.398438"/>
      </g>
     </g>
    </g>
    <g id="xtick_11">
     <g id="line2d_24">
      <path d="M 631.925955 305.748 
L 631.925955 17.028439 
" clip-path="url(#pefaa802566)" style="fill: none; stroke: #cccccc; stroke-linecap: round"/>
     </g>
     <g id="text_23">
      <!-- 0.8 -->
      <g style="fill: #262626" transform="translate(622.751955 324.696312) scale(0.132 -0.132)">
       <use xlink:href="#ArialMT-30"/>
       <use xlink:href="#ArialMT-2e" x="55.615234"/>
       <use xlink:href="#ArialMT-38" x="83.398438"/>
      </g>
     </g>
    </g>
    <g id="xtick_12">
     <g id="line2d_25">
      <path d="M 689.943591 305.748 
L 689.943591 17.028439 
" clip-path="url(#pefaa802566)" style="fill: none; stroke: #cccccc; stroke-linecap: round"/>
     </g>
     <g id="text_24">
      <!-- 1.0 -->
      <g style="fill: #262626" transform="translate(680.769591 324.696312) scale(0.132 -0.132)">
       <use xlink:href="#ArialMT-31"/>
       <use xlink:href="#ArialMT-2e" x="55.615234"/>
       <use xlink:href="#ArialMT-30" x="83.398438"/>
      </g>
     </g>
    </g>
    <g id="text_25">
     <!-- $t$ -->
     <g style="fill: #262626" transform="translate(542.0195 341.627062) scale(0.144 -0.144)">
      <use xlink:href="#DejaVuSans-Oblique-74" transform="translate(0 0.78125)"/>
     </g>
    </g>
   </g>
   <g id="matplotlib.axis_4">
    <g id="ytick_10">
     <g id="line2d_26">
      <path d="M 385.351 296.12193 
L 704.448 296.12193 
" clip-path="url(#pefaa802566)" style="fill: none; stroke: #cccccc; stroke-linecap: round"/>
     </g>
    </g>
    <g id="ytick_11">
     <g id="line2d_27">
      <path d="M 385.351 261.675765 
L 704.448 261.675765 
" clip-path="url(#pefaa802566)" style="fill: none; stroke: #cccccc; stroke-linecap: round"/>
     </g>
    </g>
    <g id="ytick_12">
     <g id="line2d_28">
      <path d="M 385.351 227.2296 
L 704.448 227.2296 
" clip-path="url(#pefaa802566)" style="fill: none; stroke: #cccccc; stroke-linecap: round"/>
     </g>
    </g>
    <g id="ytick_13">
     <g id="line2d_29">
      <path d="M 385.351 192.783435 
L 704.448 192.783435 
" clip-path="url(#pefaa802566)" style="fill: none; stroke: #cccccc; stroke-linecap: round"/>
     </g>
    </g>
    <g id="ytick_14">
     <g id="line2d_30">
      <path d="M 385.351 158.33727 
L 704.448 158.33727 
" clip-path="url(#pefaa802566)" style="fill: none; stroke: #cccccc; stroke-linecap: round"/>
     </g>
    </g>
    <g id="ytick_15">
     <g id="line2d_31">
      <path d="M 385.351 123.891105 
L 704.448 123.891105 
" clip-path="url(#pefaa802566)" style="fill: none; stroke: #cccccc; stroke-linecap: round"/>
     </g>
    </g>
    <g id="ytick_16">
     <g id="line2d_32">
      <path d="M 385.351 89.44494 
L 704.448 89.44494 
" clip-path="url(#pefaa802566)" style="fill: none; stroke: #cccccc; stroke-linecap: round"/>
     </g>
    </g>
    <g id="ytick_17">
     <g id="line2d_33">
      <path d="M 385.351 54.998775 
L 704.448 54.998775 
" clip-path="url(#pefaa802566)" style="fill: none; stroke: #cccccc; stroke-linecap: round"/>
     </g>
    </g>
    <g id="ytick_18">
     <g id="line2d_34">
      <path d="M 385.351 20.55261 
L 704.448 20.55261 
" clip-path="url(#pefaa802566)" style="fill: none; stroke: #cccccc; stroke-linecap: round"/>
     </g>
    </g>
   </g>
   <g id="line2d_35">
    <path d="M 399.855409 271.756833 
L 402.272811 271.660144 
L 404.690212 271.358349 
L 407.107614 270.818621 
L 409.525016 269.993081 
L 411.338067 269.153034 
L 413.151118 268.096906 
L 414.964169 266.801437 
L 416.777221 265.244961 
L 418.590272 263.407791 
L 419.194622 262.729933 
L 421.612024 262.515787 
L 424.029426 262.079614 
L 426.446827 261.37883 
L 428.259878 260.647721 
L 430.07293 259.713755 
L 431.885981 258.553094 
L 433.699032 257.143111 
L 435.512083 255.462996 
L 437.325135 253.494014 
L 438.533835 252.012599 
L 440.951237 251.680747 
L 443.368639 251.105298 
L 445.181691 250.48442 
L 446.994742 249.6752 
L 448.807793 248.653477 
L 450.620845 247.395811 
L 452.433896 245.880232 
L 454.246948 244.086743 
L 456.059999 241.997456 
L 457.873051 239.596641 
L 460.290452 239.136447 
L 462.707853 238.406786 
L 464.520904 237.650368 
L 466.333955 236.687867 
L 468.147006 235.495557 
L 469.960057 234.050996 
L 471.773109 232.333636 
L 473.58616 230.325017 
L 475.399211 228.008845 
L 477.212262 225.370866 
L 479.629663 224.769017 
L 481.442714 224.124874 
L 483.255765 223.289192 
L 485.068816 222.237843 
L 486.881867 220.947519 
L 488.694918 219.396478 
L 490.507969 217.564997 
L 492.32102 215.435465 
L 494.134071 212.992424 
L 495.947122 210.222398 
L 496.551473 209.224312 
L 498.968875 208.465496 
L 500.781927 207.683553 
L 502.594979 206.692357 
L 504.408031 205.468285 
L 506.221082 203.989117 
L 508.034134 202.234551 
L 509.847186 200.186434 
L 511.660238 197.828722 
L 513.47329 195.147413 
L 515.286342 192.130373 
L 515.890692 191.048222 
L 517.703743 190.380464 
L 519.516794 189.517992 
L 521.329845 188.436696 
L 523.142896 187.113444 
L 524.955947 185.526744 
L 526.768998 183.657128 
L 528.582049 181.4873 
L 530.3951 179.002009 
L 532.208151 176.188071 
L 534.021202 173.034011 
L 535.229903 170.737422 
L 537.042953 169.929457 
L 538.856002 168.909062 
L 540.669051 167.652755 
L 542.482101 166.138547 
L 544.29515 164.346417 
L 546.1082 162.258461 
L 547.921249 159.858951 
L 549.734298 157.13409 
L 551.547348 154.071979 
L 553.360397 150.662409 
L 554.569097 148.191865 
L 556.382148 147.230641 
L 558.195199 146.039657 
L 560.00825 144.59646 
L 561.821301 142.880477 
L 563.634352 140.873238 
L 565.447403 138.558421 
L 567.260454 135.921768 
L 569.073505 132.950878 
L 570.886556 129.635088 
L 573.303957 124.661747 
L 573.908308 123.31782 
L 575.721359 122.190467 
L 577.53441 120.816753 
L 579.347461 119.175513 
L 581.160512 117.247752 
L 582.973563 115.016559 
L 584.786614 112.467104 
L 586.599665 109.586598 
L 588.412716 106.363824 
L 590.830117 101.518115 
L 593.247519 96.027972 
L 595.060571 94.722126 
L 596.873624 93.154241 
L 598.686677 91.304639 
L 600.499729 89.155926 
L 602.312782 86.692736 
L 604.125835 83.901674 
L 605.938887 80.771192 
L 607.75194 77.291323 
L 610.169344 72.093326 
L 612.586747 66.241845 
L 615.608499 66.108035 
L 618.0259 65.775749 
L 620.443301 65.195254 
L 622.860703 64.335001 
L 625.278104 63.172258 
L 627.695506 61.690617 
L 630.112907 59.878085 
L 631.925958 58.29613 
L 634.343359 58.188339 
L 636.760761 57.849682 
L 639.178162 57.240865 
L 641.595563 56.334556 
L 644.012965 55.111709 
L 646.430366 53.558832 
L 648.847768 51.666208 
L 651.265169 49.426791 
L 653.68257 49.303998 
L 656.099972 48.925723 
L 658.517373 48.258266 
L 660.330424 47.553882 
L 662.143475 46.66704 
L 664.560877 45.191906 
L 666.978278 43.374011 
L 669.395679 41.206748 
L 670.60438 39.990534 
L 673.021781 39.856687 
L 675.439183 39.449662 
L 677.252234 38.947069 
L 679.065285 38.265581 
L 680.878336 37.398834 
L 682.691387 36.342032 
L 685.108788 34.631089 
L 687.52619 32.569345 
L 689.943591 30.152055 
L 689.943591 30.152055 
" clip-path="url(#pefaa802566)" style="fill: none; stroke: #1f77b4; stroke-width: 1.5; stroke-linecap: round"/>
   </g>
   <g id="line2d_36">
    <path d="M 399.855409 271.756833 
L 402.272811 271.660144 
L 404.690212 271.358349 
L 407.107614 270.818621 
L 409.525016 269.993081 
L 411.338067 269.153034 
L 413.151118 268.096906 
L 414.964169 266.801437 
L 416.777221 265.244961 
L 418.590272 263.407791 
L 419.194622 271.332235 
L 421.612024 271.118089 
L 424.029426 270.681916 
L 426.446827 269.981132 
L 428.259878 269.250023 
L 430.07293 268.316057 
L 431.885981 267.155396 
L 433.699032 265.745413 
L 435.512083 264.065298 
L 437.325135 262.096316 
L 437.929485 261.372868 
L 438.533835 270.045045 
L 440.951237 269.713192 
L 443.368639 269.137743 
L 445.181691 268.516865 
L 446.994742 267.707645 
L 448.807793 266.685922 
L 450.620845 265.428256 
L 452.433896 263.912677 
L 454.246948 262.119188 
L 456.059999 260.029901 
L 457.2687 258.464866 
L 457.873051 267.846932 
L 460.290452 267.386739 
L 462.707853 266.657078 
L 464.520904 265.90066 
L 466.333955 264.938159 
L 468.147006 263.745849 
L 469.960057 262.301288 
L 471.773109 260.583928 
L 473.58616 258.575309 
L 475.399211 256.259137 
L 476.607911 254.53704 
L 477.212262 264.662234 
L 479.629663 264.060385 
L 481.442714 263.416242 
L 483.255765 262.58056 
L 485.068816 261.529211 
L 486.881867 260.238887 
L 488.694918 258.687846 
L 490.507969 256.856366 
L 492.32102 254.726833 
L 494.134071 252.283792 
L 495.947122 249.513766 
L 496.551473 260.39151 
L 498.968875 259.632694 
L 500.781927 258.850752 
L 502.594979 257.859556 
L 504.408031 256.635483 
L 506.221082 255.156315 
L 508.034134 253.401749 
L 509.847186 251.353632 
L 511.660238 248.995921 
L 513.47329 246.314612 
L 515.286342 243.297571 
L 515.890692 254.917 
L 517.703743 254.249241 
L 519.516794 253.38677 
L 521.329845 252.305473 
L 523.142896 250.982221 
L 524.955947 249.395521 
L 526.768998 247.525905 
L 528.582049 245.356077 
L 530.3951 242.870787 
L 532.208151 240.056848 
L 534.021202 236.902789 
L 534.625553 235.774122 
L 535.229903 248.10836 
L 537.042953 247.300395 
L 538.856002 246.28 
L 540.669051 245.023693 
L 542.482101 243.509485 
L 544.29515 241.717355 
L 546.1082 239.629399 
L 547.921249 237.229889 
L 549.734298 234.505028 
L 551.547348 231.442917 
L 553.360397 228.033347 
L 553.964747 226.818009 
L 554.569097 239.828131 
L 556.382148 238.866907 
L 558.195199 237.675924 
L 560.00825 236.232726 
L 561.821301 234.516744 
L 563.634352 232.509505 
L 565.447403 230.194687 
L 567.260454 227.558034 
L 569.073505 224.587145 
L 570.886556 221.271354 
L 573.303957 216.298014 
L 573.908308 229.936582 
L 575.721359 228.809229 
L 577.53441 227.435515 
L 579.347461 225.794275 
L 581.160512 223.866513 
L 582.973563 221.635321 
L 584.786614 219.085865 
L 586.599665 216.205359 
L 588.412716 212.982585 
L 590.830117 208.136877 
L 592.643168 204.080613 
L 593.247519 218.295706 
L 595.060571 216.98986 
L 596.873624 215.421975 
L 598.686677 213.572373 
L 600.499729 211.42366 
L 602.312782 208.96047 
L 604.125835 206.169407 
L 605.938887 203.038926 
L 607.75194 199.559056 
L 610.169344 194.36106 
L 611.982396 190.034528 
L 612.586747 292.295003 
L 615.608499 292.161193 
L 618.0259 291.828907 
L 620.443301 291.248413 
L 622.860703 290.38816 
L 625.278104 289.225416 
L 627.695506 287.743775 
L 630.112907 285.931244 
L 631.321608 284.898041 
L 631.925958 292.295076 
L 634.343359 292.187285 
L 636.760761 291.848627 
L 639.178162 291.23981 
L 641.595563 290.333502 
L 644.012965 289.110654 
L 646.430366 287.557777 
L 648.847768 285.665154 
L 650.660819 284.018437 
L 651.265169 292.295147 
L 653.68257 292.172354 
L 656.099972 291.794079 
L 658.517373 291.126622 
L 660.330424 290.422237 
L 662.143475 289.535395 
L 664.560877 288.060262 
L 666.978278 286.242366 
L 669.395679 284.075104 
L 670.00003 283.4781 
L 670.60438 292.295189 
L 673.021781 292.161342 
L 675.439183 291.754317 
L 677.252234 291.251725 
L 679.065285 290.570237 
L 680.878336 289.70349 
L 682.691387 288.646688 
L 685.108788 286.935744 
L 687.52619 284.874001 
L 689.339241 283.0946 
L 689.943591 292.295214 
L 689.943591 292.295214 
" clip-path="url(#pefaa802566)" style="fill: none; stroke: #ff7f0e; stroke-width: 1.5; stroke-linecap: round"/>
   </g>
   <g id="patch_9">
    <path d="M 385.351 305.748 
L 385.351 17.028439 
" style="fill: none; stroke: #cccccc; stroke-width: 1.25; stroke-linejoin: miter; stroke-linecap: square"/>
   </g>
   <g id="patch_10">
    <path d="M 704.448 305.748 
L 704.448 17.028439 
" style="fill: none; stroke: #cccccc; stroke-width: 1.25; stroke-linejoin: miter; stroke-linecap: square"/>
   </g>
   <g id="patch_11">
    <path d="M 385.351 305.748 
L 704.448 305.748 
" style="fill: none; stroke: #cccccc; stroke-width: 1.25; stroke-linejoin: miter; stroke-linecap: square"/>
   </g>
   <g id="patch_12">
    <path d="M 385.351 17.028439 
L 704.448 17.028439 
" style="fill: none; stroke: #cccccc; stroke-width: 1.25; stroke-linejoin: miter; stroke-linecap: square"/>
   </g>
   <g id="legend_2">
    <g id="patch_13">
     <path d="M 394.591 79.860439 
L 503.491 79.860439 
Q 506.131 79.860439 506.131 77.220439 
L 506.131 26.268439 
Q 506.131 23.628439 503.491 23.628439 
L 394.591 23.628439 
Q 391.951 23.628439 391.951 26.268439 
L 391.951 77.220439 
Q 391.951 79.860439 394.591 79.860439 
z
" style="fill: #ffffff; opacity: 0.8; stroke: #cccccc; stroke-linejoin: miter"/>
    </g>
    <g id="line2d_37">
     <path d="M 397.231 42.108439 
L 410.431 42.108439 
L 423.631 42.108439 
" style="fill: none; stroke: #1f77b4; stroke-width: 1.5; stroke-linecap: round"/>
    </g>
    <g id="text_26">
     <!-- $\int_0^t \mathcal{D}^\delta(s)\,\mathrm{d}s$ -->
     <g style="fill: #262626" transform="translate(434.191 46.728439) scale(0.132 -0.132)">
      <use xlink:href="#DejaVuSansDisplay-222b" transform="translate(0 0.690625)"/>
      <use xlink:href="#DejaVuSans-Oblique-74" transform="translate(86.744141 85.846875) scale(0.7)"/>
      <use xlink:href="#DejaVuSans-30" transform="translate(71.759766 -51.215625) scale(0.7)"/>
      <use xlink:href="#STIXNonUnicode-Italic-e230" transform="translate(116.295898 0.690625)"/>
      <use xlink:href="#DejaVuSans-Oblique-3b4" transform="translate(197.352921 38.971875) scale(0.7)"/>
      <use xlink:href="#DejaVuSans-28" transform="translate(242.914444 0.690625)"/>
      <use xlink:href="#DejaVuSans-Oblique-73" transform="translate(281.928116 0.690625)"/>
      <use xlink:href="#DejaVuSans-29" transform="translate(334.027725 0.690625)"/>
      <use xlink:href="#DejaVuSans-64" transform="translate(389.277073 0.690625)"/>
      <use xlink:href="#DejaVuSans-Oblique-73" transform="translate(452.753636 0.690625)"/>
     </g>
    </g>
    <g id="line2d_38">
     <path d="M 397.231 67.336939 
L 410.431 67.336939 
L 423.631 67.336939 
" style="fill: none; stroke: #ff7f0e; stroke-width: 1.5; stroke-linecap: round"/>
    </g>
    <g id="text_27">
     <!-- $E_t(u^\delta(t))$ -->
     <g style="fill: #262626" transform="translate(434.191 71.956939) scale(0.132 -0.132)">
      <use xlink:href="#DejaVuSans-Oblique-45" transform="translate(0 0.765625)"/>
      <use xlink:href="#DejaVuSans-Oblique-74" transform="translate(63.183594 -15.640625) scale(0.7)"/>
      <use xlink:href="#DejaVuSans-28" transform="translate(93.364258 0.765625)"/>
      <use xlink:href="#DejaVuSans-Oblique-75" transform="translate(132.37793 0.765625)"/>
      <use xlink:href="#DejaVuSans-Oblique-3b4" transform="translate(200.222982 39.046875) scale(0.7)"/>
      <use xlink:href="#DejaVuSans-28" transform="translate(245.784505 0.765625)"/>
      <use xlink:href="#DejaVuSans-Oblique-74" transform="translate(284.798177 0.765625)"/>
      <use xlink:href="#DejaVuSans-29" transform="translate(324.007161 0.765625)"/>
      <use xlink:href="#DejaVuSans-29" transform="translate(363.020833 0.765625)"/>
     </g>
    </g>
   </g>
  </g>
 </g>
 <defs>
  <clipPath id="pa9deb0d8ab">
   <rect x="50.702" y="17.028439" width="319.097" height="288.719561"/>
  </clipPath>
  <clipPath id="pefaa802566">
   <rect x="385.351" y="17.028439" width="319.097" height="288.719561"/>
  </clipPath>
 </defs>
</svg>
