<?xml version="1.0" encoding="utf-8" standalone="no"?>
<!DOCTYPE svg PUBLIC "-//W3C//DTD SVG 1.1//EN"
  "http://www.w3.org/Graphics/SVG/1.1/DTD/svg11.dtd">
<svg xmlns:xlink="http://www.w3.org/1999/xlink" width="864pt" height="576pt" viewBox="0 0 864 576" xmlns="http://www.w3.org/2000/svg" version="1.1">
 <metadata>
  <rdf:RDF xmlns:dc="http://purl.org/dc/elements/1.1/" xmlns:cc="http://creativecommons.org/ns#" xmlns:rdf="http://www.w3.org/1999/02/22-rdf-syntax-ns#">
   <cc:Work>
    <dc:type rdf:resource="http://purl.org/dc/dcmitype/StillImage"/>
    <dc:date>2025-03-14T16:17:21.548877</dc:date>
    <dc:format>image/svg+xml</dc:format>
    <dc:creator>
     <cc:Agent>
      <dc:title>Matplotlib v3.9.2, https://matplotlib.org/</dc:title>
     </cc:Agent>
    </dc:creator>
   </cc:Work>
  </rdf:RDF>
 </metadata>
 <defs>
  <style type="text/css">*{stroke-linejoin: round; stroke-linecap: butt}</style>
 </defs>
 <g id="figure_1">
  <g id="patch_1">
   <path d="M 0 576 
L 864 576 
L 864 0 
L 0 0 
z
" style="fill: #ffffff"/>
  </g>
  <g id="axes_1">
   <g id="patch_2">
    <path d="M 108 512.64 
L 777.6 512.64 
L 777.6 69.12 
L 108 69.12 
z
" style="fill: #ffffff"/>
   </g>
   <g id="matplotlib.axis_1">
    <g id="xtick_1">
     <g id="line2d_1">
      <path d="M 138.436364 512.64 
L 138.436364 69.12 
" clip-path="url(#p9c42a804c3)" style="fill: none; stroke: #cccccc; stroke-linecap: round"/>
     </g>
     <g id="text_1">
      <!-- 0.0 -->
      <g style="fill: #262626" transform="translate(129.262364 531.588313) scale(0.132 -0.132)">
       <defs>
        <path id="ArialMT-30" d="M 266 2259 
Q 266 3072 433 3567 
Q 600 4063 929 4331 
Q 1259 4600 1759 4600 
Q 2128 4600 2406 4451 
Q 2684 4303 2865 4023 
Q 3047 3744 3150 3342 
Q 3253 2941 3253 2259 
Q 3253 1453 3087 958 
Q 2922 463 2592 192 
Q 2263 -78 1759 -78 
Q 1097 -78 719 397 
Q 266 969 266 2259 
z
M 844 2259 
Q 844 1131 1108 757 
Q 1372 384 1759 384 
Q 2147 384 2411 759 
Q 2675 1134 2675 2259 
Q 2675 3391 2411 3762 
Q 2147 4134 1753 4134 
Q 1366 4134 1134 3806 
Q 844 3388 844 2259 
z
" transform="scale(0.015625)"/>
        <path id="ArialMT-2e" d="M 581 0 
L 581 641 
L 1222 641 
L 1222 0 
L 581 0 
z
" transform="scale(0.015625)"/>
       </defs>
       <use xlink:href="#ArialMT-30"/>
       <use xlink:href="#ArialMT-2e" x="55.615234"/>
       <use xlink:href="#ArialMT-30" x="83.398438"/>
      </g>
     </g>
    </g>
    <g id="xtick_2">
     <g id="line2d_2">
      <path d="M 260.435455 512.64 
L 260.435455 69.12 
" clip-path="url(#p9c42a804c3)" style="fill: none; stroke: #cccccc; stroke-linecap: round"/>
     </g>
     <g id="text_2">
      <!-- 0.2 -->
      <g style="fill: #262626" transform="translate(251.261455 531.588313) scale(0.132 -0.132)">
       <defs>
        <path id="ArialMT-32" d="M 3222 541 
L 3222 0 
L 194 0 
Q 188 203 259 391 
Q 375 700 629 1000 
Q 884 1300 1366 1694 
Q 2113 2306 2375 2664 
Q 2638 3022 2638 3341 
Q 2638 3675 2398 3904 
Q 2159 4134 1775 4134 
Q 1369 4134 1125 3890 
Q 881 3647 878 3216 
L 300 3275 
Q 359 3922 746 4261 
Q 1134 4600 1788 4600 
Q 2447 4600 2831 4234 
Q 3216 3869 3216 3328 
Q 3216 3053 3103 2787 
Q 2991 2522 2730 2228 
Q 2469 1934 1863 1422 
Q 1356 997 1212 845 
Q 1069 694 975 541 
L 3222 541 
z
" transform="scale(0.015625)"/>
       </defs>
       <use xlink:href="#ArialMT-30"/>
       <use xlink:href="#ArialMT-2e" x="55.615234"/>
       <use xlink:href="#ArialMT-32" x="83.398438"/>
      </g>
     </g>
    </g>
    <g id="xtick_3">
     <g id="line2d_3">
      <path d="M 382.434545 512.64 
L 382.434545 69.12 
" clip-path="url(#p9c42a804c3)" style="fill: none; stroke: #cccccc; stroke-linecap: round"/>
     </g>
     <g id="text_3">
      <!-- 0.4 -->
      <g style="fill: #262626" transform="translate(373.260545 531.588313) scale(0.132 -0.132)">
       <defs>
        <path id="ArialMT-34" d="M 2069 0 
L 2069 1097 
L 81 1097 
L 81 1613 
L 2172 4581 
L 2631 4581 
L 2631 1613 
L 3250 1613 
L 3250 1097 
L 2631 1097 
L 2631 0 
L 2069 0 
z
M 2069 1613 
L 2069 3678 
L 634 1613 
L 2069 1613 
z
" transform="scale(0.015625)"/>
       </defs>
       <use xlink:href="#ArialMT-30"/>
       <use xlink:href="#ArialMT-2e" x="55.615234"/>
       <use xlink:href="#ArialMT-34" x="83.398438"/>
      </g>
     </g>
    </g>
    <g id="xtick_4">
     <g id="line2d_4">
      <path d="M 504.433636 512.64 
L 504.433636 69.12 
" clip-path="url(#p9c42a804c3)" style="fill: none; stroke: #cccccc; stroke-linecap: round"/>
     </g>
     <g id="text_4">
      <!-- 0.6 -->
      <g style="fill: #262626" transform="translate(495.259636 531.588313) scale(0.132 -0.132)">
       <defs>
        <path id="ArialMT-36" d="M 3184 3459 
L 2625 3416 
Q 2550 3747 2413 3897 
Q 2184 4138 1850 4138 
Q 1581 4138 1378 3988 
Q 1113 3794 959 3422 
Q 806 3050 800 2363 
Q 1003 2672 1297 2822 
Q 1591 2972 1913 2972 
Q 2475 2972 2870 2558 
Q 3266 2144 3266 1488 
Q 3266 1056 3080 686 
Q 2894 316 2569 119 
Q 2244 -78 1831 -78 
Q 1128 -78 684 439 
Q 241 956 241 2144 
Q 241 3472 731 4075 
Q 1159 4600 1884 4600 
Q 2425 4600 2770 4297 
Q 3116 3994 3184 3459 
z
M 888 1484 
Q 888 1194 1011 928 
Q 1134 663 1356 523 
Q 1578 384 1822 384 
Q 2178 384 2434 671 
Q 2691 959 2691 1453 
Q 2691 1928 2437 2201 
Q 2184 2475 1800 2475 
Q 1419 2475 1153 2201 
Q 888 1928 888 1484 
z
" transform="scale(0.015625)"/>
       </defs>
       <use xlink:href="#ArialMT-30"/>
       <use xlink:href="#ArialMT-2e" x="55.615234"/>
       <use xlink:href="#ArialMT-36" x="83.398438"/>
      </g>
     </g>
    </g>
    <g id="xtick_5">
     <g id="line2d_5">
      <path d="M 626.432727 512.64 
L 626.432727 69.12 
" clip-path="url(#p9c42a804c3)" style="fill: none; stroke: #cccccc; stroke-linecap: round"/>
     </g>
     <g id="text_5">
      <!-- 0.8 -->
      <g style="fill: #262626" transform="translate(617.258727 531.588313) scale(0.132 -0.132)">
       <defs>
        <path id="ArialMT-38" d="M 1131 2484 
Q 781 2613 612 2850 
Q 444 3088 444 3419 
Q 444 3919 803 4259 
Q 1163 4600 1759 4600 
Q 2359 4600 2725 4251 
Q 3091 3903 3091 3403 
Q 3091 3084 2923 2848 
Q 2756 2613 2416 2484 
Q 2838 2347 3058 2040 
Q 3278 1734 3278 1309 
Q 3278 722 2862 322 
Q 2447 -78 1769 -78 
Q 1091 -78 675 323 
Q 259 725 259 1325 
Q 259 1772 486 2073 
Q 713 2375 1131 2484 
z
M 1019 3438 
Q 1019 3113 1228 2906 
Q 1438 2700 1772 2700 
Q 2097 2700 2305 2904 
Q 2513 3109 2513 3406 
Q 2513 3716 2298 3927 
Q 2084 4138 1766 4138 
Q 1444 4138 1231 3931 
Q 1019 3725 1019 3438 
z
M 838 1322 
Q 838 1081 952 856 
Q 1066 631 1291 507 
Q 1516 384 1775 384 
Q 2178 384 2440 643 
Q 2703 903 2703 1303 
Q 2703 1709 2433 1975 
Q 2163 2241 1756 2241 
Q 1359 2241 1098 1978 
Q 838 1716 838 1322 
z
" transform="scale(0.015625)"/>
       </defs>
       <use xlink:href="#ArialMT-30"/>
       <use xlink:href="#ArialMT-2e" x="55.615234"/>
       <use xlink:href="#ArialMT-38" x="83.398438"/>
      </g>
     </g>
    </g>
    <g id="xtick_6">
     <g id="line2d_6">
      <path d="M 748.431818 512.64 
L 748.431818 69.12 
" clip-path="url(#p9c42a804c3)" style="fill: none; stroke: #cccccc; stroke-linecap: round"/>
     </g>
     <g id="text_6">
      <!-- 1.0 -->
      <g style="fill: #262626" transform="translate(739.257818 531.588313) scale(0.132 -0.132)">
       <defs>
        <path id="ArialMT-31" d="M 2384 0 
L 1822 0 
L 1822 3584 
Q 1619 3391 1289 3197 
Q 959 3003 697 2906 
L 697 3450 
Q 1169 3672 1522 3987 
Q 1875 4303 2022 4600 
L 2384 4600 
L 2384 0 
z
" transform="scale(0.015625)"/>
       </defs>
       <use xlink:href="#ArialMT-31"/>
       <use xlink:href="#ArialMT-2e" x="55.615234"/>
       <use xlink:href="#ArialMT-30" x="83.398438"/>
      </g>
     </g>
    </g>
    <g id="text_7">
     <!-- $t$ -->
     <g style="fill: #262626" transform="translate(439.92 548.519063) scale(0.144 -0.144)">
      <defs>
       <path id="DejaVuSans-Oblique-74" d="M 2706 3500 
L 2619 3053 
L 1472 3053 
L 1100 1153 
Q 1081 1047 1072 975 
Q 1063 903 1063 863 
Q 1063 663 1183 572 
Q 1303 481 1569 481 
L 2150 481 
L 2053 0 
L 1503 0 
Q 991 0 739 200 
Q 488 400 488 806 
Q 488 878 497 964 
Q 506 1050 525 1153 
L 897 3053 
L 409 3053 
L 500 3500 
L 978 3500 
L 1172 4494 
L 1747 4494 
L 1556 3500 
L 2706 3500 
z
" transform="scale(0.015625)"/>
      </defs>
      <use xlink:href="#DejaVuSans-Oblique-74" transform="translate(0 0.78125)"/>
     </g>
    </g>
   </g>
   <g id="matplotlib.axis_2">
    <g id="ytick_1">
     <g id="line2d_7">
      <path d="M 108 506.226102 
L 777.6 506.226102 
" clip-path="url(#p9c42a804c3)" style="fill: none; stroke: #cccccc; stroke-linecap: round"/>
     </g>
     <g id="text_8">
      <!-- 0.0 -->
      <g style="fill: #262626" transform="translate(80.152 510.950259) scale(0.132 -0.132)">
       <use xlink:href="#ArialMT-30"/>
       <use xlink:href="#ArialMT-2e" x="55.615234"/>
       <use xlink:href="#ArialMT-30" x="83.398438"/>
      </g>
     </g>
    </g>
    <g id="ytick_2">
     <g id="line2d_8">
      <path d="M 108 452.073794 
L 777.6 452.073794 
" clip-path="url(#p9c42a804c3)" style="fill: none; stroke: #cccccc; stroke-linecap: round"/>
     </g>
     <g id="text_9">
      <!-- 0.1 -->
      <g style="fill: #262626" transform="translate(80.152 456.79795) scale(0.132 -0.132)">
       <use xlink:href="#ArialMT-30"/>
       <use xlink:href="#ArialMT-2e" x="55.615234"/>
       <use xlink:href="#ArialMT-31" x="83.398438"/>
      </g>
     </g>
    </g>
    <g id="ytick_3">
     <g id="line2d_9">
      <path d="M 108 397.921486 
L 777.6 397.921486 
" clip-path="url(#p9c42a804c3)" style="fill: none; stroke: #cccccc; stroke-linecap: round"/>
     </g>
     <g id="text_10">
      <!-- 0.2 -->
      <g style="fill: #262626" transform="translate(80.152 402.645642) scale(0.132 -0.132)">
       <use xlink:href="#ArialMT-30"/>
       <use xlink:href="#ArialMT-2e" x="55.615234"/>
       <use xlink:href="#ArialMT-32" x="83.398438"/>
      </g>
     </g>
    </g>
    <g id="ytick_4">
     <g id="line2d_10">
      <path d="M 108 343.769178 
L 777.6 343.769178 
" clip-path="url(#p9c42a804c3)" style="fill: none; stroke: #cccccc; stroke-linecap: round"/>
     </g>
     <g id="text_11">
      <!-- 0.3 -->
      <g style="fill: #262626" transform="translate(80.152 348.493334) scale(0.132 -0.132)">
       <defs>
        <path id="ArialMT-33" d="M 269 1209 
L 831 1284 
Q 928 806 1161 595 
Q 1394 384 1728 384 
Q 2125 384 2398 659 
Q 2672 934 2672 1341 
Q 2672 1728 2419 1979 
Q 2166 2231 1775 2231 
Q 1616 2231 1378 2169 
L 1441 2663 
Q 1497 2656 1531 2656 
Q 1891 2656 2178 2843 
Q 2466 3031 2466 3422 
Q 2466 3731 2256 3934 
Q 2047 4138 1716 4138 
Q 1388 4138 1169 3931 
Q 950 3725 888 3313 
L 325 3413 
Q 428 3978 793 4289 
Q 1159 4600 1703 4600 
Q 2078 4600 2393 4439 
Q 2709 4278 2876 4000 
Q 3044 3722 3044 3409 
Q 3044 3113 2884 2869 
Q 2725 2625 2413 2481 
Q 2819 2388 3044 2092 
Q 3269 1797 3269 1353 
Q 3269 753 2831 336 
Q 2394 -81 1725 -81 
Q 1122 -81 723 278 
Q 325 638 269 1209 
z
" transform="scale(0.015625)"/>
       </defs>
       <use xlink:href="#ArialMT-30"/>
       <use xlink:href="#ArialMT-2e" x="55.615234"/>
       <use xlink:href="#ArialMT-33" x="83.398438"/>
      </g>
     </g>
    </g>
    <g id="ytick_5">
     <g id="line2d_11">
      <path d="M 108 289.616869 
L 777.6 289.616869 
" clip-path="url(#p9c42a804c3)" style="fill: none; stroke: #cccccc; stroke-linecap: round"/>
     </g>
     <g id="text_12">
      <!-- 0.4 -->
      <g style="fill: #262626" transform="translate(80.152 294.341026) scale(0.132 -0.132)">
       <use xlink:href="#ArialMT-30"/>
       <use xlink:href="#ArialMT-2e" x="55.615234"/>
       <use xlink:href="#ArialMT-34" x="83.398438"/>
      </g>
     </g>
    </g>
    <g id="ytick_6">
     <g id="line2d_12">
      <path d="M 108 235.464561 
L 777.6 235.464561 
" clip-path="url(#p9c42a804c3)" style="fill: none; stroke: #cccccc; stroke-linecap: round"/>
     </g>
     <g id="text_13">
      <!-- 0.5 -->
      <g style="fill: #262626" transform="translate(80.152 240.188717) scale(0.132 -0.132)">
       <defs>
        <path id="ArialMT-35" d="M 266 1200 
L 856 1250 
Q 922 819 1161 601 
Q 1400 384 1738 384 
Q 2144 384 2425 690 
Q 2706 997 2706 1503 
Q 2706 1984 2436 2262 
Q 2166 2541 1728 2541 
Q 1456 2541 1237 2417 
Q 1019 2294 894 2097 
L 366 2166 
L 809 4519 
L 3088 4519 
L 3088 3981 
L 1259 3981 
L 1013 2750 
Q 1425 3038 1878 3038 
Q 2478 3038 2890 2622 
Q 3303 2206 3303 1553 
Q 3303 931 2941 478 
Q 2500 -78 1738 -78 
Q 1113 -78 717 272 
Q 322 622 266 1200 
z
" transform="scale(0.015625)"/>
       </defs>
       <use xlink:href="#ArialMT-30"/>
       <use xlink:href="#ArialMT-2e" x="55.615234"/>
       <use xlink:href="#ArialMT-35" x="83.398438"/>
      </g>
     </g>
    </g>
    <g id="ytick_7">
     <g id="line2d_13">
      <path d="M 108 181.312253 
L 777.6 181.312253 
" clip-path="url(#p9c42a804c3)" style="fill: none; stroke: #cccccc; stroke-linecap: round"/>
     </g>
     <g id="text_14">
      <!-- 0.6 -->
      <g style="fill: #262626" transform="translate(80.152 186.036409) scale(0.132 -0.132)">
       <use xlink:href="#ArialMT-30"/>
       <use xlink:href="#ArialMT-2e" x="55.615234"/>
       <use xlink:href="#ArialMT-36" x="83.398438"/>
      </g>
     </g>
    </g>
    <g id="ytick_8">
     <g id="line2d_14">
      <path d="M 108 127.159944 
L 777.6 127.159944 
" clip-path="url(#p9c42a804c3)" style="fill: none; stroke: #cccccc; stroke-linecap: round"/>
     </g>
     <g id="text_15">
      <!-- 0.7 -->
      <g style="fill: #262626" transform="translate(80.152 131.884101) scale(0.132 -0.132)">
       <defs>
        <path id="ArialMT-37" d="M 303 3981 
L 303 4522 
L 3269 4522 
L 3269 4084 
Q 2831 3619 2401 2847 
Q 1972 2075 1738 1259 
Q 1569 684 1522 0 
L 944 0 
Q 953 541 1156 1306 
Q 1359 2072 1739 2783 
Q 2119 3494 2547 3981 
L 303 3981 
z
" transform="scale(0.015625)"/>
       </defs>
       <use xlink:href="#ArialMT-30"/>
       <use xlink:href="#ArialMT-2e" x="55.615234"/>
       <use xlink:href="#ArialMT-37" x="83.398438"/>
      </g>
     </g>
    </g>
    <g id="ytick_9">
     <g id="line2d_15">
      <path d="M 108 73.007636 
L 777.6 73.007636 
" clip-path="url(#p9c42a804c3)" style="fill: none; stroke: #cccccc; stroke-linecap: round"/>
     </g>
     <g id="text_16">
      <!-- 0.8 -->
      <g style="fill: #262626" transform="translate(80.152 77.731792) scale(0.132 -0.132)">
       <use xlink:href="#ArialMT-30"/>
       <use xlink:href="#ArialMT-2e" x="55.615234"/>
       <use xlink:href="#ArialMT-38" x="83.398438"/>
      </g>
     </g>
    </g>
    <g id="text_17">
     <!-- $\mathcal{E}_t(u^\delta)$ -->
     <g style="fill: #262626" transform="translate(73.29 310.896) rotate(-90) scale(0.144 -0.144)">
      <defs>
       <path id="STIXNonUnicode-Italic-e231" d="M 3270 973 
L 3373 858 
Q 2893 346 2272 128 
Q 1856 -26 1331 -26 
Q 896 -26 576 169 
Q 256 365 256 736 
Q 256 1267 659 1651 
Q 1062 2035 1619 2259 
Q 1485 2323 1414 2368 
Q 1344 2413 1257 2493 
Q 1171 2573 1132 2688 
Q 1094 2803 1094 2963 
Q 1094 3309 1401 3629 
Q 1709 3949 2112 4118 
Q 2515 4288 2848 4288 
Q 3296 4288 3565 4128 
Q 3834 3968 3834 3654 
Q 3834 3514 3718 3338 
Q 3603 3162 3373 3162 
Q 3238 3162 3132 3251 
Q 3027 3341 3027 3475 
Q 3027 3622 3123 3731 
Q 3219 3840 3219 3859 
Q 3219 3981 3148 4029 
Q 3078 4077 2918 4077 
Q 2432 4077 2038 3792 
Q 1645 3507 1645 3155 
Q 1645 2893 1881 2742 
Q 2118 2592 2502 2592 
L 2938 2592 
L 2880 2349 
Q 2605 2349 2275 2243 
Q 1946 2138 1645 1958 
Q 1344 1779 1142 1494 
Q 941 1210 941 896 
Q 941 614 1155 467 
Q 1370 320 1741 320 
Q 2131 320 2576 515 
Q 3021 710 3270 973 
z
" transform="scale(0.015625)"/>
       <path id="DejaVuSans-28" d="M 1984 4856 
Q 1566 4138 1362 3434 
Q 1159 2731 1159 2009 
Q 1159 1288 1364 580 
Q 1569 -128 1984 -844 
L 1484 -844 
Q 1016 -109 783 600 
Q 550 1309 550 2009 
Q 550 2706 781 3412 
Q 1013 4119 1484 4856 
L 1984 4856 
z
" transform="scale(0.015625)"/>
       <path id="DejaVuSans-Oblique-75" d="M 428 1388 
L 838 3500 
L 1416 3500 
L 1006 1409 
Q 975 1256 961 1147 
Q 947 1038 947 966 
Q 947 700 1109 554 
Q 1272 409 1569 409 
Q 2031 409 2368 721 
Q 2706 1034 2809 1563 
L 3194 3500 
L 3769 3500 
L 3091 0 
L 2516 0 
L 2631 550 
Q 2388 244 2052 76 
Q 1716 -91 1338 -91 
Q 878 -91 622 161 
Q 366 413 366 863 
Q 366 956 381 1097 
Q 397 1238 428 1388 
z
" transform="scale(0.015625)"/>
       <path id="DejaVuSans-Oblique-3b4" d="M 3472 4053 
Q 3197 4272 2450 4272 
Q 1659 4272 1588 3906 
Q 1531 3619 2328 3469 
Q 2953 3353 3253 3003 
Q 3616 2581 3447 1716 
Q 3284 888 2763 400 
Q 2238 -91 1488 -91 
Q 741 -91 406 400 
Q 72 888 241 1747 
Q 363 2384 891 2900 
Q 1097 3100 1353 3213 
Q 913 3459 1000 3900 
Q 1166 4750 2544 4750 
Q 3234 4750 3566 4531 
L 3472 4053 
z
M 1753 3056 
Q 1525 2966 1306 2738 
Q 969 2384 847 1747 
Q 722 1113 919 756 
Q 1119 397 1584 397 
Q 2044 397 2381 759 
Q 2722 1122 2838 1716 
Q 2956 2338 2731 2638 
Q 2491 2959 2103 2994 
Q 1906 3013 1753 3056 
z
" transform="scale(0.015625)"/>
       <path id="DejaVuSans-29" d="M 513 4856 
L 1013 4856 
Q 1481 4119 1714 3412 
Q 1947 2706 1947 2009 
Q 1947 1309 1714 600 
Q 1481 -109 1013 -844 
L 513 -844 
Q 928 -128 1133 580 
Q 1338 1288 1338 2009 
Q 1338 2731 1133 3434 
Q 928 4138 513 4856 
z
" transform="scale(0.015625)"/>
      </defs>
      <use xlink:href="#STIXNonUnicode-Italic-e231" transform="translate(0 0.765625)"/>
      <use xlink:href="#DejaVuSans-Oblique-74" transform="translate(56.257019 -15.640625) scale(0.7)"/>
      <use xlink:href="#DejaVuSans-28" transform="translate(86.437683 0.765625)"/>
      <use xlink:href="#DejaVuSans-Oblique-75" transform="translate(125.451355 0.765625)"/>
      <use xlink:href="#DejaVuSans-Oblique-3b4" transform="translate(193.296407 39.046875) scale(0.7)"/>
      <use xlink:href="#DejaVuSans-29" transform="translate(238.857931 0.765625)"/>
     </g>
    </g>
   </g>
   <g id="line2d_16">
    <path d="M 138.436364 410.466078 
L 161.263636 409.93677 
L 167.604545 409.574409 
L 171.409091 409.364405 
L 177.75 408.8707 
L 181.554545 408.581891 
L 187.895455 407.955671 
L 191.7 407.587363 
L 198.040909 406.827152 
L 201.845455 406.378498 
L 208.186364 405.482536 
L 211.990909 404.952422 
L 218.331818 403.918694 
L 222.136364 403.305885 
L 228.477273 402.132081 
L 232.281818 401.43519 
L 238.622727 400.11872 
L 242.427273 399.336125 
L 248.768182 397.874125 
L 252.572727 397.004172 
L 258.913636 395.393486 
L 262.718182 394.434286 
L 269.059091 392.671639 
L 272.863636 391.621159 
L 279.204545 389.702952 
L 283.009091 388.559036 
L 289.35 386.4815 
L 293.154545 385.241875 
L 299.495455 383.001024 
L 303.3 381.663284 
L 309.640909 379.254922 
L 313.445455 377.816573 
L 319.786364 375.236383 
L 323.590909 373.694771 
L 327.395455 372.039366 
L 331.2 370.418594 
L 335.004545 368.682075 
L 338.809091 366.980497 
L 342.613636 365.161236 
L 346.418182 363.377286 
L 350.222727 361.473636 
L 354.027273 359.605717 
L 357.831818 357.616 
L 361.636364 355.662449 
L 365.440909 353.585018 
L 369.245455 351.544141 
L 373.05 349.377254 
L 376.854545 347.247372 
L 380.659091 344.989301 
L 384.463636 342.768623 
L 388.268182 340.417659 
L 392.072727 338.104474 
L 395.877273 335.658808 
L 399.681818 333.251325 
L 403.486364 330.709198 
L 407.290909 328.205707 
L 411.095455 325.565312 
L 414.9 322.963988 
L 418.704545 320.223533 
L 422.509091 317.522537 
L 426.313636 314.680231 
L 430.118182 311.877804 
L 433.922727 308.931823 
L 437.727273 306.026124 
L 441.531818 302.974678 
L 445.336364 299.963933 
L 449.140909 296.805164 
L 452.945455 293.687517 
L 456.75 290.419586 
L 460.554545 287.193245 
L 464.359091 283.814458 
L 468.163636 280.477583 
L 471.968182 276.985971 
L 475.772727 273.53682 
L 479.577273 269.930607 
L 483.381818 266.367372 
L 487.186364 262.644913 
L 490.990909 258.965624 
L 494.795455 255.125014 
L 498.6 251.328075 
L 502.404545 247.367587 
L 506.209091 243.451125 
L 510.013636 239.368951 
L 513.818182 235.331191 
L 517.622727 231.125589 
L 521.427273 226.964885 
L 525.231818 222.634144 
L 529.036364 218.348559 
L 532.840909 213.890872 
L 536.645455 209.478921 
L 540.45 204.892705 
L 544.254545 200.352517 
L 548.059091 195.635933 
L 551.863636 190.965764 
L 558.204545 182.885661 
L 562.009091 178.039774 
L 568.35 169.661913 
L 572.154545 164.637243 
L 578.495455 155.957008 
L 582.3 150.750648 
L 588.640909 141.763037 
L 592.445455 136.372213 
L 598.786364 127.072802 
L 602.590909 121.494608 
L 608.931818 111.87859 
L 611.468182 108.000538 
L 612.736364 492.479085 
L 616.540909 492.431427 
L 620.345455 492.479276 
L 624.15 492.423823 
L 625.418182 492.479396 
L 626.686364 492.421938 
L 627.954545 492.479445 
L 629.222727 492.420253 
L 630.490909 492.479493 
L 631.759091 492.418718 
L 633.027273 492.479529 
L 634.295455 492.417307 
L 635.563636 492.479565 
L 636.831818 492.416003 
L 638.1 492.479601 
L 639.368182 492.414793 
L 640.636364 492.479624 
L 641.904545 492.413645 
L 643.172727 492.479655 
L 644.440909 492.412588 
L 645.709091 492.47968 
L 646.977273 492.411585 
L 648.245455 492.479702 
L 649.513636 492.410644 
L 650.781818 492.479725 
L 652.05 492.409738 
L 653.318182 492.479747 
L 654.586364 492.40889 
L 655.854545 492.479771 
L 657.122727 492.408086 
L 658.390909 492.479783 
L 659.659091 492.407302 
L 660.927273 492.479803 
L 662.195455 492.406579 
L 663.463636 492.479813 
L 664.731818 492.405851 
L 666 492.479834 
L 667.268182 492.40519 
L 668.536364 492.479844 
L 669.804545 492.404533 
L 671.072727 492.479851 
L 672.340909 492.403904 
L 673.609091 492.47987 
L 674.877273 492.403317 
L 676.145455 492.479881 
L 677.413636 492.402736 
L 678.681818 492.479888 
L 679.95 492.402169 
L 681.218182 492.479894 
L 682.486364 492.401625 
L 683.754545 492.479912 
L 685.022727 492.401112 
L 686.290909 492.479911 
L 687.559091 492.400602 
L 688.827273 492.479927 
L 690.095455 492.400121 
L 691.363636 492.479938 
L 692.631818 492.399657 
L 693.9 492.479933 
L 695.168182 492.399187 
L 696.436364 492.479949 
L 697.704545 492.39877 
L 698.972727 492.479946 
L 700.240909 492.398333 
L 701.509091 492.479963 
L 702.777273 492.397928 
L 704.045455 492.479961 
L 705.313636 492.397524 
L 706.581818 492.479964 
L 707.85 492.397125 
L 709.118182 492.479969 
L 710.386364 492.39676 
L 711.654545 492.479977 
L 712.922727 492.396405 
L 714.190909 492.479972 
L 715.459091 492.39603 
L 716.727273 492.479975 
L 717.995455 492.395675 
L 719.263636 492.47998 
L 720.531818 492.395343 
L 721.8 492.479989 
L 723.068182 492.395021 
L 724.336364 492.479985 
L 725.604545 492.394696 
L 726.872727 492.479988 
L 728.140909 492.394374 
L 729.409091 492.479995 
L 730.677273 492.394087 
L 731.945455 492.479991 
L 733.213636 492.393781 
L 734.481818 492.479995 
L 735.75 492.393499 
L 737.018182 492.479989 
L 738.286364 492.393215 
L 739.554545 492.479992 
L 740.822727 492.392928 
L 742.090909 492.479999 
L 743.359091 492.392682 
L 744.627273 492.479996 
L 745.895455 492.392399 
L 747.163636 492.48 
L 747.163636 492.48 
" clip-path="url(#p9c42a804c3)" style="fill: none; stroke: #1f77b4; stroke-width: 1.5; stroke-linecap: round"/>
   </g>
   <g id="line2d_17">
    <path d="M 138.436364 410.466078 
L 140.972727 410.371812 
L 143.509091 410.086069 
L 146.045455 409.600118 
L 148.581818 408.899951 
L 151.118182 407.966936 
L 153.654545 406.778704 
L 156.190909 405.310119 
L 158.727273 403.534158 
L 161.263636 401.422836 
L 163.8 398.947975 
L 166.336364 396.081784 
L 168.872727 392.7974 
L 171.409091 389.069195 
L 173.945455 384.873034 
L 176.481818 380.186396 
L 177.75 377.652564 
L 179.018182 408.797317 
L 181.554545 408.477571 
L 184.090909 407.955679 
L 186.627273 407.216755 
L 189.163636 406.241424 
L 191.7 405.006761 
L 194.236364 403.487195 
L 196.772727 401.655475 
L 199.309091 399.483487 
L 201.845455 396.943095 
L 204.381818 394.006612 
L 206.918182 390.647361 
L 209.454545 386.839916 
L 211.990909 382.560463 
L 214.527273 377.786749 
L 217.063636 372.498187 
L 218.331818 369.654881 
L 219.6 403.738385 
L 222.136364 403.195618 
L 224.672727 402.434132 
L 227.209091 401.434181 
L 229.745455 400.172494 
L 232.281818 398.623281 
L 234.818182 396.759122 
L 237.354545 394.551904 
L 239.890909 391.973433 
L 242.427273 388.996127 
L 244.963636 385.593423 
L 247.5 381.740047 
L 250.036364 377.412292 
L 252.572727 372.588079 
L 255.109091 367.247027 
L 257.645455 361.370381 
L 258.913636 358.225815 
L 260.181818 395.099335 
L 262.718182 394.315304 
L 265.254545 393.290677 
L 267.790909 392.001894 
L 270.327273 390.422953 
L 272.863636 388.526307 
L 275.4 386.283794 
L 277.936364 383.667235 
L 280.472727 380.649147 
L 283.009091 377.20303 
L 285.545455 373.303772 
L 288.081818 368.927802 
L 290.618182 364.053286 
L 293.154545 358.65988 
L 295.690909 352.729137 
L 298.227273 346.243952 
L 299.495455 342.788619 
L 300.763636 382.582791 
L 303.3 381.533392 
L 305.836364 380.217398 
L 308.372727 378.608585 
L 310.909091 376.679307 
L 313.445455 374.401369 
L 315.981818 371.74661 
L 318.518182 368.687643 
L 321.054545 365.198097 
L 323.590909 361.252957 
L 326.127273 356.828854 
L 328.663636 351.904065 
L 331.2 346.458499 
L 333.736364 340.473692 
L 336.272727 333.932876 
L 338.809091 326.820785 
L 340.077273 323.046085 
L 341.345455 365.797938 
L 343.881818 364.454509 
L 346.418182 362.815629 
L 348.954545 360.853509 
L 351.490909 358.539937 
L 354.027273 355.846817 
L 356.563636 352.746809 
L 359.1 349.213656 
L 361.636364 345.222505 
L 364.172727 340.750131 
L 366.709091 335.775006 
L 369.245455 330.27715 
L 371.781818 324.238376 
L 374.318182 317.641947 
L 376.854545 310.472725 
L 379.390909 302.716911 
L 380.659091 298.615113 
L 381.927273 344.281944 
L 384.463636 342.61266 
L 387 340.617358 
L 389.536364 338.267813 
L 392.072727 335.53596 
L 394.609091 332.394525 
L 397.145455 328.817426 
L 399.681818 324.780005 
L 402.218182 320.259151 
L 404.754545 315.233367 
L 407.290909 309.683045 
L 409.827273 303.590044 
L 412.363636 296.937759 
L 414.9 289.711326 
L 417.436364 281.89688 
L 419.972727 273.482255 
L 421.240909 269.046355 
L 422.509091 317.522537 
L 425.045455 315.493667 
L 427.581818 313.107714 
L 430.118182 310.336692 
L 432.654545 307.153506 
L 435.190909 303.532123 
L 437.727273 299.44798 
L 440.263636 294.878194 
L 442.8 289.801557 
L 445.336364 284.198413 
L 447.872727 278.05088 
L 450.409091 271.342497 
L 452.945455 264.058545 
L 455.481818 256.185371 
L 458.018182 247.710646 
L 460.554545 238.623459 
L 461.822727 233.84692 
L 463.090909 284.979475 
L 465.627273 282.556741 
L 468.163636 279.746228 
L 470.7 276.520839 
L 473.236364 272.854769 
L 475.772727 268.72363 
L 478.309091 264.104589 
L 480.845455 258.976679 
L 483.381818 253.320423 
L 485.918182 247.117986 
L 488.454545 240.353215 
L 490.990909 233.011422 
L 493.527273 225.079149 
L 496.063636 216.544194 
L 498.6 207.395777 
L 501.136364 197.623698 
L 502.404545 192.501098 
L 503.672727 246.103576 
L 506.209091 243.253071 
L 508.745455 239.985044 
L 511.281818 236.27385 
L 513.818182 232.095231 
L 516.354545 227.426515 
L 518.890909 222.246913 
L 521.427273 216.537158 
L 523.963636 210.279495 
L 526.5 203.457947 
L 529.036364 196.058023 
L 531.572727 188.066327 
L 534.109091 179.470756 
L 536.645455 170.260657 
L 539.181818 160.426089 
L 541.718182 149.958144 
L 542.986364 144.484109 
L 544.254545 200.352452 
L 546.790909 197.041383 
L 549.327273 193.284597 
L 551.863636 189.05808 
L 554.4 184.339301 
L 556.936364 179.107539 
L 559.472727 173.343848 
L 562.009091 167.030668 
L 564.545455 160.15199 
L 567.081818 152.693515 
L 569.618182 144.642074 
L 572.154545 135.985595 
L 574.690909 126.713427 
L 577.227273 116.815951 
L 579.763636 106.284193 
L 583.568182 89.28 
L 584.836364 491.185466 
L 587.372727 491.099428 
L 589.909091 490.852435 
L 592.445455 490.41611 
L 594.981818 489.765781 
L 597.518182 488.880252 
L 600.054545 487.741445 
L 602.590909 486.333983 
L 605.127273 484.644876 
L 607.663636 482.66301 
L 610.2 480.379101 
L 612.736364 477.785119 
L 615.272727 474.874266 
L 617.809091 471.640707 
L 620.345455 468.079404 
L 622.881818 464.186133 
L 624.15 462.113826 
L 625.418182 491.185749 
L 627.954545 491.075368 
L 630.490909 490.762108 
L 633.027273 490.22099 
L 635.563636 489.431112 
L 638.1 488.37508 
L 640.636364 487.038332 
L 643.172727 485.408827 
L 645.709091 483.476346 
L 648.245455 481.232594 
L 650.781818 478.670295 
L 653.318182 475.783497 
L 655.854545 472.567158 
L 658.390909 469.016789 
L 660.927273 465.128743 
L 663.463636 460.899918 
L 664.731818 458.656795 
L 666 491.186029 
L 668.536364 491.059754 
L 671.072727 490.703427 
L 673.609091 490.095079 
L 676.145455 489.216725 
L 678.681818 488.053552 
L 681.218182 486.593476 
L 683.754545 484.826412 
L 686.290909 482.744095 
L 688.827273 480.339618 
L 691.363636 477.607188 
L 693.9 474.542028 
L 696.436364 471.13988 
L 698.972727 467.397312 
L 701.509091 463.311435 
L 704.045455 458.879509 
L 705.313636 456.533155 
L 706.581818 491.186197 
L 709.118182 491.048129 
L 711.654545 490.66015 
L 714.190909 490.002841 
L 716.727273 489.060454 
L 719.263636 487.820282 
L 721.8 486.271882 
L 724.336364 484.406765 
L 726.872727 482.217914 
L 729.409091 479.699527 
L 731.945455 476.846808 
L 734.481818 473.655572 
L 737.018182 470.122435 
L 739.554545 466.244585 
L 742.090909 462.019343 
L 744.627273 457.444795 
L 745.895455 455.025919 
L 747.163636 491.186293 
L 747.163636 491.186293 
" clip-path="url(#p9c42a804c3)" style="fill: none; stroke: #ff7f0e; stroke-width: 1.5; stroke-linecap: round"/>
   </g>
   <g id="patch_3">
    <path d="M 108 512.64 
L 108 69.12 
" style="fill: none; stroke: #cccccc; stroke-width: 1.25; stroke-linejoin: miter; stroke-linecap: square"/>
   </g>
   <g id="patch_4">
    <path d="M 777.6 512.64 
L 777.6 69.12 
" style="fill: none; stroke: #cccccc; stroke-width: 1.25; stroke-linejoin: miter; stroke-linecap: square"/>
   </g>
   <g id="patch_5">
    <path d="M 108 512.64 
L 777.6 512.64 
" style="fill: none; stroke: #cccccc; stroke-width: 1.25; stroke-linejoin: miter; stroke-linecap: square"/>
   </g>
   <g id="patch_6">
    <path d="M 108 69.12 
L 777.6 69.12 
" style="fill: none; stroke: #cccccc; stroke-width: 1.25; stroke-linejoin: miter; stroke-linecap: square"/>
   </g>
   <g id="text_18">
    <!-- Total Energy Over Time -->
    <g style="fill: #262626" transform="translate(367.579125 63.12) scale(0.144 -0.144)">
     <defs>
      <path id="ArialMT-54" d="M 1659 0 
L 1659 4041 
L 150 4041 
L 150 4581 
L 3781 4581 
L 3781 4041 
L 2266 4041 
L 2266 0 
L 1659 0 
z
" transform="scale(0.015625)"/>
      <path id="ArialMT-6f" d="M 213 1659 
Q 213 2581 725 3025 
Q 1153 3394 1769 3394 
Q 2453 3394 2887 2945 
Q 3322 2497 3322 1706 
Q 3322 1066 3130 698 
Q 2938 331 2570 128 
Q 2203 -75 1769 -75 
Q 1072 -75 642 372 
Q 213 819 213 1659 
z
M 791 1659 
Q 791 1022 1069 705 
Q 1347 388 1769 388 
Q 2188 388 2466 706 
Q 2744 1025 2744 1678 
Q 2744 2294 2464 2611 
Q 2184 2928 1769 2928 
Q 1347 2928 1069 2612 
Q 791 2297 791 1659 
z
" transform="scale(0.015625)"/>
      <path id="ArialMT-74" d="M 1650 503 
L 1731 6 
Q 1494 -44 1306 -44 
Q 1000 -44 831 53 
Q 663 150 594 308 
Q 525 466 525 972 
L 525 2881 
L 113 2881 
L 113 3319 
L 525 3319 
L 525 4141 
L 1084 4478 
L 1084 3319 
L 1650 3319 
L 1650 2881 
L 1084 2881 
L 1084 941 
Q 1084 700 1114 631 
Q 1144 563 1211 522 
Q 1278 481 1403 481 
Q 1497 481 1650 503 
z
" transform="scale(0.015625)"/>
      <path id="ArialMT-61" d="M 2588 409 
Q 2275 144 1986 34 
Q 1697 -75 1366 -75 
Q 819 -75 525 192 
Q 231 459 231 875 
Q 231 1119 342 1320 
Q 453 1522 633 1644 
Q 813 1766 1038 1828 
Q 1203 1872 1538 1913 
Q 2219 1994 2541 2106 
Q 2544 2222 2544 2253 
Q 2544 2597 2384 2738 
Q 2169 2928 1744 2928 
Q 1347 2928 1158 2789 
Q 969 2650 878 2297 
L 328 2372 
Q 403 2725 575 2942 
Q 747 3159 1072 3276 
Q 1397 3394 1825 3394 
Q 2250 3394 2515 3294 
Q 2781 3194 2906 3042 
Q 3031 2891 3081 2659 
Q 3109 2516 3109 2141 
L 3109 1391 
Q 3109 606 3145 398 
Q 3181 191 3288 0 
L 2700 0 
Q 2613 175 2588 409 
z
M 2541 1666 
Q 2234 1541 1622 1453 
Q 1275 1403 1131 1340 
Q 988 1278 909 1158 
Q 831 1038 831 891 
Q 831 666 1001 516 
Q 1172 366 1500 366 
Q 1825 366 2078 508 
Q 2331 650 2450 897 
Q 2541 1088 2541 1459 
L 2541 1666 
z
" transform="scale(0.015625)"/>
      <path id="ArialMT-6c" d="M 409 0 
L 409 4581 
L 972 4581 
L 972 0 
L 409 0 
z
" transform="scale(0.015625)"/>
      <path id="ArialMT-20" transform="scale(0.015625)"/>
      <path id="ArialMT-45" d="M 506 0 
L 506 4581 
L 3819 4581 
L 3819 4041 
L 1113 4041 
L 1113 2638 
L 3647 2638 
L 3647 2100 
L 1113 2100 
L 1113 541 
L 3925 541 
L 3925 0 
L 506 0 
z
" transform="scale(0.015625)"/>
      <path id="ArialMT-6e" d="M 422 0 
L 422 3319 
L 928 3319 
L 928 2847 
Q 1294 3394 1984 3394 
Q 2284 3394 2536 3286 
Q 2788 3178 2913 3003 
Q 3038 2828 3088 2588 
Q 3119 2431 3119 2041 
L 3119 0 
L 2556 0 
L 2556 2019 
Q 2556 2363 2490 2533 
Q 2425 2703 2258 2804 
Q 2091 2906 1866 2906 
Q 1506 2906 1245 2678 
Q 984 2450 984 1813 
L 984 0 
L 422 0 
z
" transform="scale(0.015625)"/>
      <path id="ArialMT-65" d="M 2694 1069 
L 3275 997 
Q 3138 488 2766 206 
Q 2394 -75 1816 -75 
Q 1088 -75 661 373 
Q 234 822 234 1631 
Q 234 2469 665 2931 
Q 1097 3394 1784 3394 
Q 2450 3394 2872 2941 
Q 3294 2488 3294 1666 
Q 3294 1616 3291 1516 
L 816 1516 
Q 847 969 1125 678 
Q 1403 388 1819 388 
Q 2128 388 2347 550 
Q 2566 713 2694 1069 
z
M 847 1978 
L 2700 1978 
Q 2663 2397 2488 2606 
Q 2219 2931 1791 2931 
Q 1403 2931 1139 2672 
Q 875 2413 847 1978 
z
" transform="scale(0.015625)"/>
      <path id="ArialMT-72" d="M 416 0 
L 416 3319 
L 922 3319 
L 922 2816 
Q 1116 3169 1280 3281 
Q 1444 3394 1641 3394 
Q 1925 3394 2219 3213 
L 2025 2691 
Q 1819 2813 1613 2813 
Q 1428 2813 1281 2702 
Q 1134 2591 1072 2394 
Q 978 2094 978 1738 
L 978 0 
L 416 0 
z
" transform="scale(0.015625)"/>
      <path id="ArialMT-67" d="M 319 -275 
L 866 -356 
Q 900 -609 1056 -725 
Q 1266 -881 1628 -881 
Q 2019 -881 2231 -725 
Q 2444 -569 2519 -288 
Q 2563 -116 2559 434 
Q 2191 0 1641 0 
Q 956 0 581 494 
Q 206 988 206 1678 
Q 206 2153 378 2554 
Q 550 2956 876 3175 
Q 1203 3394 1644 3394 
Q 2231 3394 2613 2919 
L 2613 3319 
L 3131 3319 
L 3131 450 
Q 3131 -325 2973 -648 
Q 2816 -972 2473 -1159 
Q 2131 -1347 1631 -1347 
Q 1038 -1347 672 -1080 
Q 306 -813 319 -275 
z
M 784 1719 
Q 784 1066 1043 766 
Q 1303 466 1694 466 
Q 2081 466 2343 764 
Q 2606 1063 2606 1700 
Q 2606 2309 2336 2618 
Q 2066 2928 1684 2928 
Q 1309 2928 1046 2623 
Q 784 2319 784 1719 
z
" transform="scale(0.015625)"/>
      <path id="ArialMT-79" d="M 397 -1278 
L 334 -750 
Q 519 -800 656 -800 
Q 844 -800 956 -737 
Q 1069 -675 1141 -563 
Q 1194 -478 1313 -144 
Q 1328 -97 1363 -6 
L 103 3319 
L 709 3319 
L 1400 1397 
Q 1534 1031 1641 628 
Q 1738 1016 1872 1384 
L 2581 3319 
L 3144 3319 
L 1881 -56 
Q 1678 -603 1566 -809 
Q 1416 -1088 1222 -1217 
Q 1028 -1347 759 -1347 
Q 597 -1347 397 -1278 
z
" transform="scale(0.015625)"/>
      <path id="ArialMT-4f" d="M 309 2231 
Q 309 3372 921 4017 
Q 1534 4663 2503 4663 
Q 3138 4663 3647 4359 
Q 4156 4056 4423 3514 
Q 4691 2972 4691 2284 
Q 4691 1588 4409 1038 
Q 4128 488 3612 205 
Q 3097 -78 2500 -78 
Q 1853 -78 1343 234 
Q 834 547 571 1087 
Q 309 1628 309 2231 
z
M 934 2222 
Q 934 1394 1379 917 
Q 1825 441 2497 441 
Q 3181 441 3623 922 
Q 4066 1403 4066 2288 
Q 4066 2847 3877 3264 
Q 3688 3681 3323 3911 
Q 2959 4141 2506 4141 
Q 1863 4141 1398 3698 
Q 934 3256 934 2222 
z
" transform="scale(0.015625)"/>
      <path id="ArialMT-76" d="M 1344 0 
L 81 3319 
L 675 3319 
L 1388 1331 
Q 1503 1009 1600 663 
Q 1675 925 1809 1294 
L 2547 3319 
L 3125 3319 
L 1869 0 
L 1344 0 
z
" transform="scale(0.015625)"/>
      <path id="ArialMT-69" d="M 425 3934 
L 425 4581 
L 988 4581 
L 988 3934 
L 425 3934 
z
M 425 0 
L 425 3319 
L 988 3319 
L 988 0 
L 425 0 
z
" transform="scale(0.015625)"/>
      <path id="ArialMT-6d" d="M 422 0 
L 422 3319 
L 925 3319 
L 925 2853 
Q 1081 3097 1340 3245 
Q 1600 3394 1931 3394 
Q 2300 3394 2536 3241 
Q 2772 3088 2869 2813 
Q 3263 3394 3894 3394 
Q 4388 3394 4653 3120 
Q 4919 2847 4919 2278 
L 4919 0 
L 4359 0 
L 4359 2091 
Q 4359 2428 4304 2576 
Q 4250 2725 4106 2815 
Q 3963 2906 3769 2906 
Q 3419 2906 3187 2673 
Q 2956 2441 2956 1928 
L 2956 0 
L 2394 0 
L 2394 2156 
Q 2394 2531 2256 2718 
Q 2119 2906 1806 2906 
Q 1569 2906 1367 2781 
Q 1166 2656 1075 2415 
Q 984 2175 984 1722 
L 984 0 
L 422 0 
z
" transform="scale(0.015625)"/>
     </defs>
     <use xlink:href="#ArialMT-54"/>
     <use xlink:href="#ArialMT-6f" x="49.958984"/>
     <use xlink:href="#ArialMT-74" x="105.574219"/>
     <use xlink:href="#ArialMT-61" x="133.357422"/>
     <use xlink:href="#ArialMT-6c" x="188.972656"/>
     <use xlink:href="#ArialMT-20" x="211.189453"/>
     <use xlink:href="#ArialMT-45" x="238.972656"/>
     <use xlink:href="#ArialMT-6e" x="305.671875"/>
     <use xlink:href="#ArialMT-65" x="361.287109"/>
     <use xlink:href="#ArialMT-72" x="416.902344"/>
     <use xlink:href="#ArialMT-67" x="450.203125"/>
     <use xlink:href="#ArialMT-79" x="505.818359"/>
     <use xlink:href="#ArialMT-20" x="555.818359"/>
     <use xlink:href="#ArialMT-4f" x="583.601562"/>
     <use xlink:href="#ArialMT-76" x="661.384766"/>
     <use xlink:href="#ArialMT-65" x="711.384766"/>
     <use xlink:href="#ArialMT-72" x="767"/>
     <use xlink:href="#ArialMT-20" x="800.300781"/>
     <use xlink:href="#ArialMT-54" x="826.333984"/>
     <use xlink:href="#ArialMT-69" x="883.667969"/>
     <use xlink:href="#ArialMT-6d" x="905.884766"/>
     <use xlink:href="#ArialMT-65" x="989.185547"/>
    </g>
   </g>
   <g id="legend_1">
    <g id="patch_7">
     <path d="M 682.428 128.652 
L 768.36 128.652 
Q 771 128.652 771 126.012 
L 771 78.36 
Q 771 75.72 768.36 75.72 
L 682.428 75.72 
Q 679.788 75.72 679.788 78.36 
L 679.788 126.012 
Q 679.788 128.652 682.428 128.652 
z
" style="fill: #ffffff; opacity: 0.8; stroke: #cccccc; stroke-linejoin: miter"/>
    </g>
    <g id="line2d_18">
     <path d="M 685.068 88.92 
L 698.268 88.92 
L 711.468 88.92 
" style="fill: none; stroke: #1f77b4; stroke-width: 1.5; stroke-linecap: round"/>
    </g>
    <g id="text_19">
     <!-- $\delta = \frac{1}{240}$ -->
     <g style="fill: #262626" transform="translate(722.028 93.54) scale(0.132 -0.132)">
      <defs>
       <path id="DejaVuSans-3d" d="M 678 2906 
L 4684 2906 
L 4684 2381 
L 678 2381 
L 678 2906 
z
M 678 1631 
L 4684 1631 
L 4684 1100 
L 678 1100 
L 678 1631 
z
" transform="scale(0.015625)"/>
       <path id="DejaVuSans-31" d="M 794 531 
L 1825 531 
L 1825 4091 
L 703 3866 
L 703 4441 
L 1819 4666 
L 2450 4666 
L 2450 531 
L 3481 531 
L 3481 0 
L 794 0 
L 794 531 
z
" transform="scale(0.015625)"/>
       <path id="DejaVuSans-32" d="M 1228 531 
L 3431 531 
L 3431 0 
L 469 0 
L 469 531 
Q 828 903 1448 1529 
Q 2069 2156 2228 2338 
Q 2531 2678 2651 2914 
Q 2772 3150 2772 3378 
Q 2772 3750 2511 3984 
Q 2250 4219 1831 4219 
Q 1534 4219 1204 4116 
Q 875 4013 500 3803 
L 500 4441 
Q 881 4594 1212 4672 
Q 1544 4750 1819 4750 
Q 2544 4750 2975 4387 
Q 3406 4025 3406 3419 
Q 3406 3131 3298 2873 
Q 3191 2616 2906 2266 
Q 2828 2175 2409 1742 
Q 1991 1309 1228 531 
z
" transform="scale(0.015625)"/>
       <path id="DejaVuSans-34" d="M 2419 4116 
L 825 1625 
L 2419 1625 
L 2419 4116 
z
M 2253 4666 
L 3047 4666 
L 3047 1625 
L 3713 1625 
L 3713 1100 
L 3047 1100 
L 3047 0 
L 2419 0 
L 2419 1100 
L 313 1100 
L 313 1709 
L 2253 4666 
z
" transform="scale(0.015625)"/>
       <path id="DejaVuSans-30" d="M 2034 4250 
Q 1547 4250 1301 3770 
Q 1056 3291 1056 2328 
Q 1056 1369 1301 889 
Q 1547 409 2034 409 
Q 2525 409 2770 889 
Q 3016 1369 3016 2328 
Q 3016 3291 2770 3770 
Q 2525 4250 2034 4250 
z
M 2034 4750 
Q 2819 4750 3233 4129 
Q 3647 3509 3647 2328 
Q 3647 1150 3233 529 
Q 2819 -91 2034 -91 
Q 1250 -91 836 529 
Q 422 1150 422 2328 
Q 422 3509 836 4129 
Q 1250 4750 2034 4750 
z
" transform="scale(0.015625)"/>
      </defs>
      <use xlink:href="#DejaVuSans-Oblique-3b4" transform="translate(0 0.16875)"/>
      <use xlink:href="#DejaVuSans-3d" transform="translate(80.664062 0.16875)"/>
      <use xlink:href="#DejaVuSans-31" transform="translate(228.935547 43.965625) scale(0.7)"/>
      <use xlink:href="#DejaVuSans-32" transform="translate(183.935547 -39.2375) scale(0.7)"/>
      <use xlink:href="#DejaVuSans-34" transform="translate(228.47168 -39.2375) scale(0.7)"/>
      <use xlink:href="#DejaVuSans-30" transform="translate(273.007812 -39.2375) scale(0.7)"/>
      <path d="M 183.935547 18.965625 
L 183.935547 25.215625 
L 317.543945 25.215625 
L 317.543945 18.965625 
L 183.935547 18.965625 
z
"/>
     </g>
    </g>
    <g id="line2d_19">
     <path d="M 685.068 113.472 
L 698.268 113.472 
L 711.468 113.472 
" style="fill: none; stroke: #ff7f0e; stroke-width: 1.5; stroke-linecap: round"/>
    </g>
    <g id="text_20">
     <!-- $\delta = \frac{1}{15}$ -->
     <g style="fill: #262626" transform="translate(722.028 118.092) scale(0.132 -0.132)">
      <defs>
       <path id="DejaVuSans-35" d="M 691 4666 
L 3169 4666 
L 3169 4134 
L 1269 4134 
L 1269 2991 
Q 1406 3038 1543 3061 
Q 1681 3084 1819 3084 
Q 2600 3084 3056 2656 
Q 3513 2228 3513 1497 
Q 3513 744 3044 326 
Q 2575 -91 1722 -91 
Q 1428 -91 1123 -41 
Q 819 9 494 109 
L 494 744 
Q 775 591 1075 516 
Q 1375 441 1709 441 
Q 2250 441 2565 725 
Q 2881 1009 2881 1497 
Q 2881 1984 2565 2268 
Q 2250 2553 1709 2553 
Q 1456 2553 1204 2497 
Q 953 2441 691 2322 
L 691 4666 
z
" transform="scale(0.015625)"/>
      </defs>
      <use xlink:href="#DejaVuSans-Oblique-3b4" transform="translate(0 0.16875)"/>
      <use xlink:href="#DejaVuSans-3d" transform="translate(80.664062 0.16875)"/>
      <use xlink:href="#DejaVuSans-31" transform="translate(205.935547 43.965625) scale(0.7)"/>
      <use xlink:href="#DejaVuSans-31" transform="translate(183.935547 -38.31875) scale(0.7)"/>
      <use xlink:href="#DejaVuSans-35" transform="translate(228.47168 -38.31875) scale(0.7)"/>
      <path d="M 183.935547 18.965625 
L 183.935547 25.215625 
L 273.007812 25.215625 
L 273.007812 18.965625 
L 183.935547 18.965625 
z
"/>
     </g>
    </g>
   </g>
  </g>
 </g>
 <defs>
  <clipPath id="p9c42a804c3">
   <rect x="108" y="69.12" width="669.6" height="443.52"/>
  </clipPath>
 </defs>
</svg>
