<?xml version="1.0" encoding="utf-8" standalone="no"?>
<!DOCTYPE svg PUBLIC "-//W3C//DTD SVG 1.1//EN"
  "http://www.w3.org/Graphics/SVG/1.1/DTD/svg11.dtd">
<svg xmlns:xlink="http://www.w3.org/1999/xlink" width="864pt" height="576pt" viewBox="0 0 864 576" xmlns="http://www.w3.org/2000/svg" version="1.1">
 <metadata>
  <rdf:RDF xmlns:dc="http://purl.org/dc/elements/1.1/" xmlns:cc="http://creativecommons.org/ns#" xmlns:rdf="http://www.w3.org/1999/02/22-rdf-syntax-ns#">
   <cc:Work>
    <dc:type rdf:resource="http://purl.org/dc/dcmitype/StillImage"/>
    <dc:date>2024-09-24T10:51:18.654142</dc:date>
    <dc:format>image/svg+xml</dc:format>
    <dc:creator>
     <cc:Agent>
      <dc:title>Matplotlib v3.9.2, https://matplotlib.org/</dc:title>
     </cc:Agent>
    </dc:creator>
   </cc:Work>
  </rdf:RDF>
 </metadata>
 <defs>
  <style type="text/css">*{stroke-linejoin: round; stroke-linecap: butt}</style>
 </defs>
 <g id="figure_1">
  <g id="patch_1">
   <path d="M 0 576 
L 864 576 
L 864 0 
L 0 0 
z
" style="fill: #ffffff"/>
  </g>
  <g id="axes_1">
   <g id="patch_2">
    <path d="M 108 512.64 
L 777.6 512.64 
L 777.6 69.12 
L 108 69.12 
z
" style="fill: #ffffff"/>
   </g>
   <g id="matplotlib.axis_1">
    <g id="xtick_1">
     <g id="line2d_1">
      <path d="M 138.436364 512.64 
L 138.436364 69.12 
" clip-path="url(#pc1b65ee13b)" style="fill: none; stroke: #cccccc; stroke-linecap: round"/>
     </g>
     <g id="text_1">
      <!-- 0.0 -->
      <g style="fill: #262626" transform="translate(127.940301 532.169938) scale(0.132 -0.132)">
       <defs>
        <path id="DejaVuSans-30" d="M 2034 4250 
Q 1547 4250 1301 3770 
Q 1056 3291 1056 2328 
Q 1056 1369 1301 889 
Q 1547 409 2034 409 
Q 2525 409 2770 889 
Q 3016 1369 3016 2328 
Q 3016 3291 2770 3770 
Q 2525 4250 2034 4250 
z
M 2034 4750 
Q 2819 4750 3233 4129 
Q 3647 3509 3647 2328 
Q 3647 1150 3233 529 
Q 2819 -91 2034 -91 
Q 1250 -91 836 529 
Q 422 1150 422 2328 
Q 422 3509 836 4129 
Q 1250 4750 2034 4750 
z
" transform="scale(0.015625)"/>
        <path id="DejaVuSans-2e" d="M 684 794 
L 1344 794 
L 1344 0 
L 684 0 
L 684 794 
z
" transform="scale(0.015625)"/>
       </defs>
       <use xlink:href="#DejaVuSans-30"/>
       <use xlink:href="#DejaVuSans-2e" x="63.623047"/>
       <use xlink:href="#DejaVuSans-30" x="95.410156"/>
      </g>
     </g>
    </g>
    <g id="xtick_2">
     <g id="line2d_2">
      <path d="M 260.670756 512.64 
L 260.670756 69.12 
" clip-path="url(#pc1b65ee13b)" style="fill: none; stroke: #cccccc; stroke-linecap: round"/>
     </g>
     <g id="text_2">
      <!-- 0.2 -->
      <g style="fill: #262626" transform="translate(250.174693 532.169938) scale(0.132 -0.132)">
       <defs>
        <path id="DejaVuSans-32" d="M 1228 531 
L 3431 531 
L 3431 0 
L 469 0 
L 469 531 
Q 828 903 1448 1529 
Q 2069 2156 2228 2338 
Q 2531 2678 2651 2914 
Q 2772 3150 2772 3378 
Q 2772 3750 2511 3984 
Q 2250 4219 1831 4219 
Q 1534 4219 1204 4116 
Q 875 4013 500 3803 
L 500 4441 
Q 881 4594 1212 4672 
Q 1544 4750 1819 4750 
Q 2544 4750 2975 4387 
Q 3406 4025 3406 3419 
Q 3406 3131 3298 2873 
Q 3191 2616 2906 2266 
Q 2828 2175 2409 1742 
Q 1991 1309 1228 531 
z
" transform="scale(0.015625)"/>
       </defs>
       <use xlink:href="#DejaVuSans-30"/>
       <use xlink:href="#DejaVuSans-2e" x="63.623047"/>
       <use xlink:href="#DejaVuSans-32" x="95.410156"/>
      </g>
     </g>
    </g>
    <g id="xtick_3">
     <g id="line2d_3">
      <path d="M 382.905148 512.64 
L 382.905148 69.12 
" clip-path="url(#pc1b65ee13b)" style="fill: none; stroke: #cccccc; stroke-linecap: round"/>
     </g>
     <g id="text_3">
      <!-- 0.4 -->
      <g style="fill: #262626" transform="translate(372.409085 532.169938) scale(0.132 -0.132)">
       <defs>
        <path id="DejaVuSans-34" d="M 2419 4116 
L 825 1625 
L 2419 1625 
L 2419 4116 
z
M 2253 4666 
L 3047 4666 
L 3047 1625 
L 3713 1625 
L 3713 1100 
L 3047 1100 
L 3047 0 
L 2419 0 
L 2419 1100 
L 313 1100 
L 313 1709 
L 2253 4666 
z
" transform="scale(0.015625)"/>
       </defs>
       <use xlink:href="#DejaVuSans-30"/>
       <use xlink:href="#DejaVuSans-2e" x="63.623047"/>
       <use xlink:href="#DejaVuSans-34" x="95.410156"/>
      </g>
     </g>
    </g>
    <g id="xtick_4">
     <g id="line2d_4">
      <path d="M 505.13954 512.64 
L 505.13954 69.12 
" clip-path="url(#pc1b65ee13b)" style="fill: none; stroke: #cccccc; stroke-linecap: round"/>
     </g>
     <g id="text_4">
      <!-- 0.6 -->
      <g style="fill: #262626" transform="translate(494.643477 532.169938) scale(0.132 -0.132)">
       <defs>
        <path id="DejaVuSans-36" d="M 2113 2584 
Q 1688 2584 1439 2293 
Q 1191 2003 1191 1497 
Q 1191 994 1439 701 
Q 1688 409 2113 409 
Q 2538 409 2786 701 
Q 3034 994 3034 1497 
Q 3034 2003 2786 2293 
Q 2538 2584 2113 2584 
z
M 3366 4563 
L 3366 3988 
Q 3128 4100 2886 4159 
Q 2644 4219 2406 4219 
Q 1781 4219 1451 3797 
Q 1122 3375 1075 2522 
Q 1259 2794 1537 2939 
Q 1816 3084 2150 3084 
Q 2853 3084 3261 2657 
Q 3669 2231 3669 1497 
Q 3669 778 3244 343 
Q 2819 -91 2113 -91 
Q 1303 -91 875 529 
Q 447 1150 447 2328 
Q 447 3434 972 4092 
Q 1497 4750 2381 4750 
Q 2619 4750 2861 4703 
Q 3103 4656 3366 4563 
z
" transform="scale(0.015625)"/>
       </defs>
       <use xlink:href="#DejaVuSans-30"/>
       <use xlink:href="#DejaVuSans-2e" x="63.623047"/>
       <use xlink:href="#DejaVuSans-36" x="95.410156"/>
      </g>
     </g>
    </g>
    <g id="xtick_5">
     <g id="line2d_5">
      <path d="M 627.373932 512.64 
L 627.373932 69.12 
" clip-path="url(#pc1b65ee13b)" style="fill: none; stroke: #cccccc; stroke-linecap: round"/>
     </g>
     <g id="text_5">
      <!-- 0.8 -->
      <g style="fill: #262626" transform="translate(616.87787 532.169938) scale(0.132 -0.132)">
       <defs>
        <path id="DejaVuSans-38" d="M 2034 2216 
Q 1584 2216 1326 1975 
Q 1069 1734 1069 1313 
Q 1069 891 1326 650 
Q 1584 409 2034 409 
Q 2484 409 2743 651 
Q 3003 894 3003 1313 
Q 3003 1734 2745 1975 
Q 2488 2216 2034 2216 
z
M 1403 2484 
Q 997 2584 770 2862 
Q 544 3141 544 3541 
Q 544 4100 942 4425 
Q 1341 4750 2034 4750 
Q 2731 4750 3128 4425 
Q 3525 4100 3525 3541 
Q 3525 3141 3298 2862 
Q 3072 2584 2669 2484 
Q 3125 2378 3379 2068 
Q 3634 1759 3634 1313 
Q 3634 634 3220 271 
Q 2806 -91 2034 -91 
Q 1263 -91 848 271 
Q 434 634 434 1313 
Q 434 1759 690 2068 
Q 947 2378 1403 2484 
z
M 1172 3481 
Q 1172 3119 1398 2916 
Q 1625 2713 2034 2713 
Q 2441 2713 2670 2916 
Q 2900 3119 2900 3481 
Q 2900 3844 2670 4047 
Q 2441 4250 2034 4250 
Q 1625 4250 1398 4047 
Q 1172 3844 1172 3481 
z
" transform="scale(0.015625)"/>
       </defs>
       <use xlink:href="#DejaVuSans-30"/>
       <use xlink:href="#DejaVuSans-2e" x="63.623047"/>
       <use xlink:href="#DejaVuSans-38" x="95.410156"/>
      </g>
     </g>
    </g>
    <g id="xtick_6">
     <g id="line2d_6">
      <path d="M 749.608324 512.64 
L 749.608324 69.12 
" clip-path="url(#pc1b65ee13b)" style="fill: none; stroke: #cccccc; stroke-linecap: round"/>
     </g>
     <g id="text_6">
      <!-- 1.0 -->
      <g style="fill: #262626" transform="translate(739.112262 532.169938) scale(0.132 -0.132)">
       <defs>
        <path id="DejaVuSans-31" d="M 794 531 
L 1825 531 
L 1825 4091 
L 703 3866 
L 703 4441 
L 1819 4666 
L 2450 4666 
L 2450 531 
L 3481 531 
L 3481 0 
L 794 0 
L 794 531 
z
" transform="scale(0.015625)"/>
       </defs>
       <use xlink:href="#DejaVuSans-31"/>
       <use xlink:href="#DejaVuSans-2e" x="63.623047"/>
       <use xlink:href="#DejaVuSans-30" x="95.410156"/>
      </g>
     </g>
    </g>
    <g id="text_7">
     <!-- $t$ -->
     <g style="fill: #262626" transform="translate(439.92 549.856875) scale(0.144 -0.144)">
      <defs>
       <path id="DejaVuSans-Oblique-74" d="M 2706 3500 
L 2619 3053 
L 1472 3053 
L 1100 1153 
Q 1081 1047 1072 975 
Q 1063 903 1063 863 
Q 1063 663 1183 572 
Q 1303 481 1569 481 
L 2150 481 
L 2053 0 
L 1503 0 
Q 991 0 739 200 
Q 488 400 488 806 
Q 488 878 497 964 
Q 506 1050 525 1153 
L 897 3053 
L 409 3053 
L 500 3500 
L 978 3500 
L 1172 4494 
L 1747 4494 
L 1556 3500 
L 2706 3500 
z
" transform="scale(0.015625)"/>
      </defs>
      <use xlink:href="#DejaVuSans-Oblique-74" transform="translate(0 0.78125)"/>
     </g>
    </g>
   </g>
   <g id="matplotlib.axis_2">
    <g id="ytick_1">
     <g id="line2d_7">
      <path d="M 108 492.48 
L 777.6 492.48 
" clip-path="url(#pc1b65ee13b)" style="fill: none; stroke: #cccccc; stroke-linecap: round"/>
     </g>
     <g id="text_8">
      <!-- 0 -->
      <g style="fill: #262626" transform="translate(90.1015 497.494969) scale(0.132 -0.132)">
       <use xlink:href="#DejaVuSans-30"/>
      </g>
     </g>
    </g>
    <g id="ytick_2">
     <g id="line2d_8">
      <path d="M 108 441.490433 
L 777.6 441.490433 
" clip-path="url(#pc1b65ee13b)" style="fill: none; stroke: #cccccc; stroke-linecap: round"/>
     </g>
     <g id="text_9">
      <!-- 2000 -->
      <g style="fill: #262626" transform="translate(64.906 446.505402) scale(0.132 -0.132)">
       <use xlink:href="#DejaVuSans-32"/>
       <use xlink:href="#DejaVuSans-30" x="63.623047"/>
       <use xlink:href="#DejaVuSans-30" x="127.246094"/>
       <use xlink:href="#DejaVuSans-30" x="190.869141"/>
      </g>
     </g>
    </g>
    <g id="ytick_3">
     <g id="line2d_9">
      <path d="M 108 390.500866 
L 777.6 390.500866 
" clip-path="url(#pc1b65ee13b)" style="fill: none; stroke: #cccccc; stroke-linecap: round"/>
     </g>
     <g id="text_10">
      <!-- 4000 -->
      <g style="fill: #262626" transform="translate(64.906 395.515835) scale(0.132 -0.132)">
       <use xlink:href="#DejaVuSans-34"/>
       <use xlink:href="#DejaVuSans-30" x="63.623047"/>
       <use xlink:href="#DejaVuSans-30" x="127.246094"/>
       <use xlink:href="#DejaVuSans-30" x="190.869141"/>
      </g>
     </g>
    </g>
    <g id="ytick_4">
     <g id="line2d_10">
      <path d="M 108 339.511299 
L 777.6 339.511299 
" clip-path="url(#pc1b65ee13b)" style="fill: none; stroke: #cccccc; stroke-linecap: round"/>
     </g>
     <g id="text_11">
      <!-- 6000 -->
      <g style="fill: #262626" transform="translate(64.906 344.526268) scale(0.132 -0.132)">
       <use xlink:href="#DejaVuSans-36"/>
       <use xlink:href="#DejaVuSans-30" x="63.623047"/>
       <use xlink:href="#DejaVuSans-30" x="127.246094"/>
       <use xlink:href="#DejaVuSans-30" x="190.869141"/>
      </g>
     </g>
    </g>
    <g id="ytick_5">
     <g id="line2d_11">
      <path d="M 108 288.521733 
L 777.6 288.521733 
" clip-path="url(#pc1b65ee13b)" style="fill: none; stroke: #cccccc; stroke-linecap: round"/>
     </g>
     <g id="text_12">
      <!-- 8000 -->
      <g style="fill: #262626" transform="translate(64.906 293.536701) scale(0.132 -0.132)">
       <use xlink:href="#DejaVuSans-38"/>
       <use xlink:href="#DejaVuSans-30" x="63.623047"/>
       <use xlink:href="#DejaVuSans-30" x="127.246094"/>
       <use xlink:href="#DejaVuSans-30" x="190.869141"/>
      </g>
     </g>
    </g>
    <g id="ytick_6">
     <g id="line2d_12">
      <path d="M 108 237.532166 
L 777.6 237.532166 
" clip-path="url(#pc1b65ee13b)" style="fill: none; stroke: #cccccc; stroke-linecap: round"/>
     </g>
     <g id="text_13">
      <!-- 10000 -->
      <g style="fill: #262626" transform="translate(56.5075 242.547134) scale(0.132 -0.132)">
       <use xlink:href="#DejaVuSans-31"/>
       <use xlink:href="#DejaVuSans-30" x="63.623047"/>
       <use xlink:href="#DejaVuSans-30" x="127.246094"/>
       <use xlink:href="#DejaVuSans-30" x="190.869141"/>
       <use xlink:href="#DejaVuSans-30" x="254.492188"/>
      </g>
     </g>
    </g>
    <g id="ytick_7">
     <g id="line2d_13">
      <path d="M 108 186.542599 
L 777.6 186.542599 
" clip-path="url(#pc1b65ee13b)" style="fill: none; stroke: #cccccc; stroke-linecap: round"/>
     </g>
     <g id="text_14">
      <!-- 12000 -->
      <g style="fill: #262626" transform="translate(56.5075 191.557568) scale(0.132 -0.132)">
       <use xlink:href="#DejaVuSans-31"/>
       <use xlink:href="#DejaVuSans-32" x="63.623047"/>
       <use xlink:href="#DejaVuSans-30" x="127.246094"/>
       <use xlink:href="#DejaVuSans-30" x="190.869141"/>
       <use xlink:href="#DejaVuSans-30" x="254.492188"/>
      </g>
     </g>
    </g>
    <g id="ytick_8">
     <g id="line2d_14">
      <path d="M 108 135.553032 
L 777.6 135.553032 
" clip-path="url(#pc1b65ee13b)" style="fill: none; stroke: #cccccc; stroke-linecap: round"/>
     </g>
     <g id="text_15">
      <!-- 14000 -->
      <g style="fill: #262626" transform="translate(56.5075 140.568001) scale(0.132 -0.132)">
       <use xlink:href="#DejaVuSans-31"/>
       <use xlink:href="#DejaVuSans-34" x="63.623047"/>
       <use xlink:href="#DejaVuSans-30" x="127.246094"/>
       <use xlink:href="#DejaVuSans-30" x="190.869141"/>
       <use xlink:href="#DejaVuSans-30" x="254.492188"/>
      </g>
     </g>
    </g>
    <g id="ytick_9">
     <g id="line2d_15">
      <path d="M 108 84.563465 
L 777.6 84.563465 
" clip-path="url(#pc1b65ee13b)" style="fill: none; stroke: #cccccc; stroke-linecap: round"/>
     </g>
     <g id="text_16">
      <!-- 16000 -->
      <g style="fill: #262626" transform="translate(56.5075 89.578434) scale(0.132 -0.132)">
       <use xlink:href="#DejaVuSans-31"/>
       <use xlink:href="#DejaVuSans-36" x="63.623047"/>
       <use xlink:href="#DejaVuSans-30" x="127.246094"/>
       <use xlink:href="#DejaVuSans-30" x="190.869141"/>
       <use xlink:href="#DejaVuSans-30" x="254.492188"/>
      </g>
     </g>
    </g>
    <g id="text_17">
     <!-- Number of Iterations -->
     <g style="fill: #262626" transform="translate(49.51275 365.6115) rotate(-90) scale(0.144 -0.144)">
      <defs>
       <path id="DejaVuSans-4e" d="M 628 4666 
L 1478 4666 
L 3547 763 
L 3547 4666 
L 4159 4666 
L 4159 0 
L 3309 0 
L 1241 3903 
L 1241 0 
L 628 0 
L 628 4666 
z
" transform="scale(0.015625)"/>
       <path id="DejaVuSans-75" d="M 544 1381 
L 544 3500 
L 1119 3500 
L 1119 1403 
Q 1119 906 1312 657 
Q 1506 409 1894 409 
Q 2359 409 2629 706 
Q 2900 1003 2900 1516 
L 2900 3500 
L 3475 3500 
L 3475 0 
L 2900 0 
L 2900 538 
Q 2691 219 2414 64 
Q 2138 -91 1772 -91 
Q 1169 -91 856 284 
Q 544 659 544 1381 
z
M 1991 3584 
L 1991 3584 
z
" transform="scale(0.015625)"/>
       <path id="DejaVuSans-6d" d="M 3328 2828 
Q 3544 3216 3844 3400 
Q 4144 3584 4550 3584 
Q 5097 3584 5394 3201 
Q 5691 2819 5691 2113 
L 5691 0 
L 5113 0 
L 5113 2094 
Q 5113 2597 4934 2840 
Q 4756 3084 4391 3084 
Q 3944 3084 3684 2787 
Q 3425 2491 3425 1978 
L 3425 0 
L 2847 0 
L 2847 2094 
Q 2847 2600 2669 2842 
Q 2491 3084 2119 3084 
Q 1678 3084 1418 2786 
Q 1159 2488 1159 1978 
L 1159 0 
L 581 0 
L 581 3500 
L 1159 3500 
L 1159 2956 
Q 1356 3278 1631 3431 
Q 1906 3584 2284 3584 
Q 2666 3584 2933 3390 
Q 3200 3197 3328 2828 
z
" transform="scale(0.015625)"/>
       <path id="DejaVuSans-62" d="M 3116 1747 
Q 3116 2381 2855 2742 
Q 2594 3103 2138 3103 
Q 1681 3103 1420 2742 
Q 1159 2381 1159 1747 
Q 1159 1113 1420 752 
Q 1681 391 2138 391 
Q 2594 391 2855 752 
Q 3116 1113 3116 1747 
z
M 1159 2969 
Q 1341 3281 1617 3432 
Q 1894 3584 2278 3584 
Q 2916 3584 3314 3078 
Q 3713 2572 3713 1747 
Q 3713 922 3314 415 
Q 2916 -91 2278 -91 
Q 1894 -91 1617 61 
Q 1341 213 1159 525 
L 1159 0 
L 581 0 
L 581 4863 
L 1159 4863 
L 1159 2969 
z
" transform="scale(0.015625)"/>
       <path id="DejaVuSans-65" d="M 3597 1894 
L 3597 1613 
L 953 1613 
Q 991 1019 1311 708 
Q 1631 397 2203 397 
Q 2534 397 2845 478 
Q 3156 559 3463 722 
L 3463 178 
Q 3153 47 2828 -22 
Q 2503 -91 2169 -91 
Q 1331 -91 842 396 
Q 353 884 353 1716 
Q 353 2575 817 3079 
Q 1281 3584 2069 3584 
Q 2775 3584 3186 3129 
Q 3597 2675 3597 1894 
z
M 3022 2063 
Q 3016 2534 2758 2815 
Q 2500 3097 2075 3097 
Q 1594 3097 1305 2825 
Q 1016 2553 972 2059 
L 3022 2063 
z
" transform="scale(0.015625)"/>
       <path id="DejaVuSans-72" d="M 2631 2963 
Q 2534 3019 2420 3045 
Q 2306 3072 2169 3072 
Q 1681 3072 1420 2755 
Q 1159 2438 1159 1844 
L 1159 0 
L 581 0 
L 581 3500 
L 1159 3500 
L 1159 2956 
Q 1341 3275 1631 3429 
Q 1922 3584 2338 3584 
Q 2397 3584 2469 3576 
Q 2541 3569 2628 3553 
L 2631 2963 
z
" transform="scale(0.015625)"/>
       <path id="DejaVuSans-20" transform="scale(0.015625)"/>
       <path id="DejaVuSans-6f" d="M 1959 3097 
Q 1497 3097 1228 2736 
Q 959 2375 959 1747 
Q 959 1119 1226 758 
Q 1494 397 1959 397 
Q 2419 397 2687 759 
Q 2956 1122 2956 1747 
Q 2956 2369 2687 2733 
Q 2419 3097 1959 3097 
z
M 1959 3584 
Q 2709 3584 3137 3096 
Q 3566 2609 3566 1747 
Q 3566 888 3137 398 
Q 2709 -91 1959 -91 
Q 1206 -91 779 398 
Q 353 888 353 1747 
Q 353 2609 779 3096 
Q 1206 3584 1959 3584 
z
" transform="scale(0.015625)"/>
       <path id="DejaVuSans-66" d="M 2375 4863 
L 2375 4384 
L 1825 4384 
Q 1516 4384 1395 4259 
Q 1275 4134 1275 3809 
L 1275 3500 
L 2222 3500 
L 2222 3053 
L 1275 3053 
L 1275 0 
L 697 0 
L 697 3053 
L 147 3053 
L 147 3500 
L 697 3500 
L 697 3744 
Q 697 4328 969 4595 
Q 1241 4863 1831 4863 
L 2375 4863 
z
" transform="scale(0.015625)"/>
       <path id="DejaVuSans-49" d="M 628 4666 
L 1259 4666 
L 1259 0 
L 628 0 
L 628 4666 
z
" transform="scale(0.015625)"/>
       <path id="DejaVuSans-74" d="M 1172 4494 
L 1172 3500 
L 2356 3500 
L 2356 3053 
L 1172 3053 
L 1172 1153 
Q 1172 725 1289 603 
Q 1406 481 1766 481 
L 2356 481 
L 2356 0 
L 1766 0 
Q 1100 0 847 248 
Q 594 497 594 1153 
L 594 3053 
L 172 3053 
L 172 3500 
L 594 3500 
L 594 4494 
L 1172 4494 
z
" transform="scale(0.015625)"/>
       <path id="DejaVuSans-61" d="M 2194 1759 
Q 1497 1759 1228 1600 
Q 959 1441 959 1056 
Q 959 750 1161 570 
Q 1363 391 1709 391 
Q 2188 391 2477 730 
Q 2766 1069 2766 1631 
L 2766 1759 
L 2194 1759 
z
M 3341 1997 
L 3341 0 
L 2766 0 
L 2766 531 
Q 2569 213 2275 61 
Q 1981 -91 1556 -91 
Q 1019 -91 701 211 
Q 384 513 384 1019 
Q 384 1609 779 1909 
Q 1175 2209 1959 2209 
L 2766 2209 
L 2766 2266 
Q 2766 2663 2505 2880 
Q 2244 3097 1772 3097 
Q 1472 3097 1187 3025 
Q 903 2953 641 2809 
L 641 3341 
Q 956 3463 1253 3523 
Q 1550 3584 1831 3584 
Q 2591 3584 2966 3190 
Q 3341 2797 3341 1997 
z
" transform="scale(0.015625)"/>
       <path id="DejaVuSans-69" d="M 603 3500 
L 1178 3500 
L 1178 0 
L 603 0 
L 603 3500 
z
M 603 4863 
L 1178 4863 
L 1178 4134 
L 603 4134 
L 603 4863 
z
" transform="scale(0.015625)"/>
       <path id="DejaVuSans-6e" d="M 3513 2113 
L 3513 0 
L 2938 0 
L 2938 2094 
Q 2938 2591 2744 2837 
Q 2550 3084 2163 3084 
Q 1697 3084 1428 2787 
Q 1159 2491 1159 1978 
L 1159 0 
L 581 0 
L 581 3500 
L 1159 3500 
L 1159 2956 
Q 1366 3272 1645 3428 
Q 1925 3584 2291 3584 
Q 2894 3584 3203 3211 
Q 3513 2838 3513 2113 
z
" transform="scale(0.015625)"/>
       <path id="DejaVuSans-73" d="M 2834 3397 
L 2834 2853 
Q 2591 2978 2328 3040 
Q 2066 3103 1784 3103 
Q 1356 3103 1142 2972 
Q 928 2841 928 2578 
Q 928 2378 1081 2264 
Q 1234 2150 1697 2047 
L 1894 2003 
Q 2506 1872 2764 1633 
Q 3022 1394 3022 966 
Q 3022 478 2636 193 
Q 2250 -91 1575 -91 
Q 1294 -91 989 -36 
Q 684 19 347 128 
L 347 722 
Q 666 556 975 473 
Q 1284 391 1588 391 
Q 1994 391 2212 530 
Q 2431 669 2431 922 
Q 2431 1156 2273 1281 
Q 2116 1406 1581 1522 
L 1381 1569 
Q 847 1681 609 1914 
Q 372 2147 372 2553 
Q 372 3047 722 3315 
Q 1072 3584 1716 3584 
Q 2034 3584 2315 3537 
Q 2597 3491 2834 3397 
z
" transform="scale(0.015625)"/>
      </defs>
      <use xlink:href="#DejaVuSans-4e"/>
      <use xlink:href="#DejaVuSans-75" x="74.804688"/>
      <use xlink:href="#DejaVuSans-6d" x="138.183594"/>
      <use xlink:href="#DejaVuSans-62" x="235.595703"/>
      <use xlink:href="#DejaVuSans-65" x="299.072266"/>
      <use xlink:href="#DejaVuSans-72" x="360.595703"/>
      <use xlink:href="#DejaVuSans-20" x="401.708984"/>
      <use xlink:href="#DejaVuSans-6f" x="433.496094"/>
      <use xlink:href="#DejaVuSans-66" x="494.677734"/>
      <use xlink:href="#DejaVuSans-20" x="529.882812"/>
      <use xlink:href="#DejaVuSans-49" x="561.669922"/>
      <use xlink:href="#DejaVuSans-74" x="591.162109"/>
      <use xlink:href="#DejaVuSans-65" x="630.371094"/>
      <use xlink:href="#DejaVuSans-72" x="691.894531"/>
      <use xlink:href="#DejaVuSans-61" x="733.007812"/>
      <use xlink:href="#DejaVuSans-74" x="794.287109"/>
      <use xlink:href="#DejaVuSans-69" x="833.496094"/>
      <use xlink:href="#DejaVuSans-6f" x="861.279297"/>
      <use xlink:href="#DejaVuSans-6e" x="922.460938"/>
      <use xlink:href="#DejaVuSans-73" x="985.839844"/>
     </g>
    </g>
   </g>
   <g id="line2d_16">
    <path d="M 138.436364 492.48 
L 139.658708 492.48 
L 139.658708 452.708138 
L 142.103395 452.708138 
L 142.103395 451.994284 
L 166.550274 452.070768 
L 166.550274 452.121758 
L 178.773713 452.198242 
L 178.773713 452.249232 
L 188.552464 452.300221 
L 188.552464 452.376706 
L 198.331216 452.45319 
L 198.331216 452.529674 
L 205.665279 452.631653 
L 205.665279 452.657148 
L 215.444031 452.759127 
L 215.444031 452.810117 
L 220.333406 452.861107 
L 220.333406 452.937591 
L 230.112158 453.03957 
L 230.112158 453.09056 
L 237.446221 453.192539 
L 237.446221 453.243528 
L 242.335597 453.320013 
L 242.335597 453.396497 
L 249.66966 453.498476 
L 249.66966 453.57496 
L 257.003724 453.67694 
L 257.003724 453.778919 
L 264.337788 453.855403 
L 264.337788 453.957382 
L 269.227163 454.008372 
L 269.227163 454.084856 
L 274.116539 454.16134 
L 274.116539 454.26332 
L 279.005915 454.339804 
L 279.005915 454.416288 
L 283.89529 454.467278 
L 283.89529 454.543762 
L 288.784666 454.645741 
L 288.784666 454.696731 
L 293.674042 454.773215 
L 293.674042 454.8497 
L 298.563417 454.951679 
L 298.563417 455.028163 
L 303.452793 455.104647 
L 303.452793 455.155637 
L 308.342169 455.181132 
L 308.342169 455.283111 
L 313.231544 455.38509 
L 313.231544 455.43608 
L 318.12092 455.512564 
L 318.12092 455.614543 
L 323.010296 455.640038 
L 323.010296 455.767512 
L 327.899671 455.843996 
L 327.899671 455.920481 
L 332.789047 456.02246 
L 332.789047 456.098944 
L 337.678423 456.149934 
L 337.678423 456.277408 
L 342.567798 456.353892 
L 342.567798 456.404881 
L 347.457174 456.506861 
L 347.457174 456.583345 
L 352.34655 456.685324 
L 352.34655 456.736314 
L 357.235926 456.838293 
L 357.235926 456.940272 
L 362.125301 457.016756 
L 362.125301 457.067746 
L 367.014677 457.169725 
L 367.014677 457.271704 
L 371.904053 457.348188 
L 371.904053 457.424673 
L 376.793428 457.501157 
L 376.793428 457.628631 
L 381.682804 457.705115 
L 381.682804 457.7816 
L 386.57218 457.883579 
L 386.57218 457.985558 
L 391.461555 458.062042 
L 391.461555 458.138527 
L 396.350931 458.215011 
L 396.350931 458.31699 
L 401.240307 458.418969 
L 401.240307 458.495454 
L 406.129682 458.597433 
L 406.129682 458.699412 
L 411.019058 458.750402 
L 411.019058 458.877875 
L 415.908434 458.95436 
L 415.908434 459.005349 
L 418.353122 459.005349 
L 418.353122 459.132823 
L 423.242497 459.209308 
L 423.242497 459.260297 
L 425.687185 459.260297 
L 425.687185 459.387771 
L 430.576561 459.464255 
L 430.576561 459.54074 
L 435.465936 459.642719 
L 435.465936 459.719203 
L 440.355312 459.821182 
L 440.355312 459.897667 
L 442.8 459.897667 
L 442.8 460.025141 
L 447.689376 460.07613 
L 447.689376 460.178109 
L 452.578751 460.254594 
L 452.578751 460.331078 
L 457.468127 460.407562 
L 457.468127 460.535036 
L 462.357503 460.611521 
L 462.357503 460.688005 
L 467.246878 460.789984 
L 467.246878 460.866469 
L 472.136254 460.968448 
L 472.136254 461.044932 
L 477.02563 461.121416 
L 477.02563 461.197901 
L 481.915005 461.29988 
L 481.915005 461.376364 
L 486.804381 461.452849 
L 486.804381 461.529333 
L 491.693757 461.605817 
L 491.693757 461.707796 
L 496.583133 461.784281 
L 496.583133 461.860765 
L 501.472508 461.962744 
L 501.472508 462.039229 
L 506.361884 462.115713 
L 506.361884 462.217692 
L 511.25126 462.268682 
L 511.25126 462.370661 
L 516.140635 462.447145 
L 516.140635 462.498135 
L 521.030011 462.600114 
L 521.030011 462.676598 
L 525.919387 462.778577 
L 525.919387 462.855062 
L 530.808762 462.906051 
L 530.808762 462.982536 
L 535.698138 463.05902 
L 535.698138 463.135504 
L 540.587514 463.211989 
L 540.587514 463.288473 
L 545.476889 463.390452 
L 545.476889 463.466936 
L 550.366265 463.543421 
L 550.366265 463.619905 
L 555.255641 463.69639 
L 555.255641 463.747379 
L 560.145016 463.823863 
L 560.145016 463.900348 
L 565.034392 463.976832 
L 565.034392 464.053316 
L 569.923768 464.129801 
L 569.923768 464.23178 
L 577.257831 464.333759 
L 577.257831 464.410243 
L 582.147207 464.512223 
L 582.147207 464.563212 
L 587.036583 464.639696 
L 587.036583 464.716181 
L 591.925958 464.792665 
L 591.925958 464.843655 
L 596.815334 464.945634 
L 596.815334 464.996623 
L 601.70471 465.047613 
L 601.70471 465.124097 
L 606.594085 465.175087 
L 606.594085 465.277066 
L 611.483461 465.328056 
L 611.483461 465.40454 
L 613.928149 465.40454 
L 613.928149 196.001163 
L 616.372837 196.001163 
L 616.372837 413.54815 
L 618.817525 413.54815 
L 618.817525 413.344192 
L 621.262212 413.344192 
L 621.262212 413.191224 
L 626.151588 413.089244 
L 626.151588 413.01276 
L 631.040964 412.96177 
L 631.040964 412.885286 
L 638.375027 412.808802 
L 638.375027 412.757812 
L 645.709091 412.681328 
L 645.709091 412.630338 
L 653.043154 412.528359 
L 653.043154 412.451875 
L 657.93253 412.37539 
L 657.93253 412.298906 
L 662.821906 412.222422 
L 662.821906 412.171432 
L 670.155969 412.069453 
L 670.155969 412.018463 
L 677.490033 411.967474 
L 677.490033 411.89099 
L 682.379409 411.814505 
L 682.379409 411.738021 
L 687.268784 411.661537 
L 687.268784 411.585052 
L 694.602848 411.508568 
L 694.602848 411.406589 
L 701.936911 411.30461 
L 701.936911 411.25362 
L 706.826287 411.177136 
L 706.826287 411.100651 
L 714.16035 410.998672 
L 714.16035 410.973177 
L 721.494414 410.871198 
L 721.494414 410.820209 
L 726.38379 410.769219 
L 726.38379 410.692735 
L 731.273165 410.61625 
L 731.273165 410.539766 
L 736.162541 410.463282 
L 736.162541 410.412292 
L 741.051917 410.310313 
L 741.051917 410.259323 
L 745.941292 410.208334 
L 745.941292 410.106355 
L 747.163636 410.106355 
L 747.163636 410.106355 
" clip-path="url(#pc1b65ee13b)" style="fill: none; stroke: #1f77b4; stroke-width: 1.5; stroke-linecap: round"/>
    <defs>
     <path id="m6ba4427466" d="M 0 0.1 
C 0.02652 0.1 0.051958 0.089463 0.070711 0.070711 
C 0.089463 0.051958 0.1 0.02652 0.1 0 
C 0.1 -0.02652 0.089463 -0.051958 0.070711 -0.070711 
C 0.051958 -0.089463 0.02652 -0.1 0 -0.1 
C -0.02652 -0.1 -0.051958 -0.089463 -0.070711 -0.070711 
C -0.089463 -0.051958 -0.1 -0.02652 -0.1 0 
C -0.1 0.02652 -0.089463 0.051958 -0.070711 0.070711 
C -0.051958 0.089463 -0.02652 0.1 0 0.1 
z
" style="stroke: #1f77b4"/>
    </defs>
    <g clip-path="url(#pc1b65ee13b)">
     <use xlink:href="#m6ba4427466" x="138.436364" y="492.48" style="fill: #1f77b4; stroke: #1f77b4"/>
     <use xlink:href="#m6ba4427466" x="140.881051" y="452.708138" style="fill: #1f77b4; stroke: #1f77b4"/>
     <use xlink:href="#m6ba4427466" x="143.325739" y="451.994284" style="fill: #1f77b4; stroke: #1f77b4"/>
     <use xlink:href="#m6ba4427466" x="145.770427" y="451.994284" style="fill: #1f77b4; stroke: #1f77b4"/>
     <use xlink:href="#m6ba4427466" x="148.215115" y="451.994284" style="fill: #1f77b4; stroke: #1f77b4"/>
     <use xlink:href="#m6ba4427466" x="150.659803" y="451.994284" style="fill: #1f77b4; stroke: #1f77b4"/>
     <use xlink:href="#m6ba4427466" x="153.104491" y="452.019779" style="fill: #1f77b4; stroke: #1f77b4"/>
     <use xlink:href="#m6ba4427466" x="155.549179" y="452.045273" style="fill: #1f77b4; stroke: #1f77b4"/>
     <use xlink:href="#m6ba4427466" x="157.993866" y="452.070768" style="fill: #1f77b4; stroke: #1f77b4"/>
     <use xlink:href="#m6ba4427466" x="160.438554" y="452.070768" style="fill: #1f77b4; stroke: #1f77b4"/>
     <use xlink:href="#m6ba4427466" x="162.883242" y="452.096263" style="fill: #1f77b4; stroke: #1f77b4"/>
     <use xlink:href="#m6ba4427466" x="165.32793" y="452.070768" style="fill: #1f77b4; stroke: #1f77b4"/>
     <use xlink:href="#m6ba4427466" x="167.772618" y="452.121758" style="fill: #1f77b4; stroke: #1f77b4"/>
     <use xlink:href="#m6ba4427466" x="170.217306" y="452.147253" style="fill: #1f77b4; stroke: #1f77b4"/>
     <use xlink:href="#m6ba4427466" x="172.661993" y="452.147253" style="fill: #1f77b4; stroke: #1f77b4"/>
     <use xlink:href="#m6ba4427466" x="175.106681" y="452.172747" style="fill: #1f77b4; stroke: #1f77b4"/>
     <use xlink:href="#m6ba4427466" x="177.551369" y="452.198242" style="fill: #1f77b4; stroke: #1f77b4"/>
     <use xlink:href="#m6ba4427466" x="179.996057" y="452.249232" style="fill: #1f77b4; stroke: #1f77b4"/>
     <use xlink:href="#m6ba4427466" x="182.440745" y="452.300221" style="fill: #1f77b4; stroke: #1f77b4"/>
     <use xlink:href="#m6ba4427466" x="184.885433" y="452.300221" style="fill: #1f77b4; stroke: #1f77b4"/>
     <use xlink:href="#m6ba4427466" x="187.33012" y="452.300221" style="fill: #1f77b4; stroke: #1f77b4"/>
     <use xlink:href="#m6ba4427466" x="189.774808" y="452.376706" style="fill: #1f77b4; stroke: #1f77b4"/>
     <use xlink:href="#m6ba4427466" x="192.219496" y="452.427695" style="fill: #1f77b4; stroke: #1f77b4"/>
     <use xlink:href="#m6ba4427466" x="194.664184" y="452.45319" style="fill: #1f77b4; stroke: #1f77b4"/>
     <use xlink:href="#m6ba4427466" x="197.108872" y="452.45319" style="fill: #1f77b4; stroke: #1f77b4"/>
     <use xlink:href="#m6ba4427466" x="199.55356" y="452.529674" style="fill: #1f77b4; stroke: #1f77b4"/>
     <use xlink:href="#m6ba4427466" x="201.998248" y="452.555169" style="fill: #1f77b4; stroke: #1f77b4"/>
     <use xlink:href="#m6ba4427466" x="204.442935" y="452.631653" style="fill: #1f77b4; stroke: #1f77b4"/>
     <use xlink:href="#m6ba4427466" x="206.887623" y="452.657148" style="fill: #1f77b4; stroke: #1f77b4"/>
     <use xlink:href="#m6ba4427466" x="209.332311" y="452.657148" style="fill: #1f77b4; stroke: #1f77b4"/>
     <use xlink:href="#m6ba4427466" x="211.776999" y="452.708138" style="fill: #1f77b4; stroke: #1f77b4"/>
     <use xlink:href="#m6ba4427466" x="214.221687" y="452.759127" style="fill: #1f77b4; stroke: #1f77b4"/>
     <use xlink:href="#m6ba4427466" x="216.666375" y="452.810117" style="fill: #1f77b4; stroke: #1f77b4"/>
     <use xlink:href="#m6ba4427466" x="219.111062" y="452.861107" style="fill: #1f77b4; stroke: #1f77b4"/>
     <use xlink:href="#m6ba4427466" x="221.55575" y="452.937591" style="fill: #1f77b4; stroke: #1f77b4"/>
     <use xlink:href="#m6ba4427466" x="224.000438" y="452.937591" style="fill: #1f77b4; stroke: #1f77b4"/>
     <use xlink:href="#m6ba4427466" x="226.445126" y="453.014075" style="fill: #1f77b4; stroke: #1f77b4"/>
     <use xlink:href="#m6ba4427466" x="228.889814" y="453.03957" style="fill: #1f77b4; stroke: #1f77b4"/>
     <use xlink:href="#m6ba4427466" x="231.334502" y="453.09056" style="fill: #1f77b4; stroke: #1f77b4"/>
     <use xlink:href="#m6ba4427466" x="233.779189" y="453.141549" style="fill: #1f77b4; stroke: #1f77b4"/>
     <use xlink:href="#m6ba4427466" x="236.223877" y="453.192539" style="fill: #1f77b4; stroke: #1f77b4"/>
     <use xlink:href="#m6ba4427466" x="238.668565" y="453.243528" style="fill: #1f77b4; stroke: #1f77b4"/>
     <use xlink:href="#m6ba4427466" x="241.113253" y="453.320013" style="fill: #1f77b4; stroke: #1f77b4"/>
     <use xlink:href="#m6ba4427466" x="243.557941" y="453.396497" style="fill: #1f77b4; stroke: #1f77b4"/>
     <use xlink:href="#m6ba4427466" x="246.002629" y="453.421992" style="fill: #1f77b4; stroke: #1f77b4"/>
     <use xlink:href="#m6ba4427466" x="248.447317" y="453.498476" style="fill: #1f77b4; stroke: #1f77b4"/>
     <use xlink:href="#m6ba4427466" x="250.892004" y="453.57496" style="fill: #1f77b4; stroke: #1f77b4"/>
     <use xlink:href="#m6ba4427466" x="253.336692" y="453.57496" style="fill: #1f77b4; stroke: #1f77b4"/>
     <use xlink:href="#m6ba4427466" x="255.78138" y="453.67694" style="fill: #1f77b4; stroke: #1f77b4"/>
     <use xlink:href="#m6ba4427466" x="258.226068" y="453.778919" style="fill: #1f77b4; stroke: #1f77b4"/>
     <use xlink:href="#m6ba4427466" x="260.670756" y="453.804414" style="fill: #1f77b4; stroke: #1f77b4"/>
     <use xlink:href="#m6ba4427466" x="263.115444" y="453.855403" style="fill: #1f77b4; stroke: #1f77b4"/>
     <use xlink:href="#m6ba4427466" x="265.560131" y="453.957382" style="fill: #1f77b4; stroke: #1f77b4"/>
     <use xlink:href="#m6ba4427466" x="268.004819" y="454.008372" style="fill: #1f77b4; stroke: #1f77b4"/>
     <use xlink:href="#m6ba4427466" x="270.449507" y="454.084856" style="fill: #1f77b4; stroke: #1f77b4"/>
     <use xlink:href="#m6ba4427466" x="272.894195" y="454.16134" style="fill: #1f77b4; stroke: #1f77b4"/>
     <use xlink:href="#m6ba4427466" x="275.338883" y="454.26332" style="fill: #1f77b4; stroke: #1f77b4"/>
     <use xlink:href="#m6ba4427466" x="277.783571" y="454.339804" style="fill: #1f77b4; stroke: #1f77b4"/>
     <use xlink:href="#m6ba4427466" x="280.228258" y="454.416288" style="fill: #1f77b4; stroke: #1f77b4"/>
     <use xlink:href="#m6ba4427466" x="282.672946" y="454.467278" style="fill: #1f77b4; stroke: #1f77b4"/>
     <use xlink:href="#m6ba4427466" x="285.117634" y="454.543762" style="fill: #1f77b4; stroke: #1f77b4"/>
     <use xlink:href="#m6ba4427466" x="287.562322" y="454.645741" style="fill: #1f77b4; stroke: #1f77b4"/>
     <use xlink:href="#m6ba4427466" x="290.00701" y="454.696731" style="fill: #1f77b4; stroke: #1f77b4"/>
     <use xlink:href="#m6ba4427466" x="292.451698" y="454.773215" style="fill: #1f77b4; stroke: #1f77b4"/>
     <use xlink:href="#m6ba4427466" x="294.896386" y="454.8497" style="fill: #1f77b4; stroke: #1f77b4"/>
     <use xlink:href="#m6ba4427466" x="297.341073" y="454.951679" style="fill: #1f77b4; stroke: #1f77b4"/>
     <use xlink:href="#m6ba4427466" x="299.785761" y="455.028163" style="fill: #1f77b4; stroke: #1f77b4"/>
     <use xlink:href="#m6ba4427466" x="302.230449" y="455.104647" style="fill: #1f77b4; stroke: #1f77b4"/>
     <use xlink:href="#m6ba4427466" x="304.675137" y="455.155637" style="fill: #1f77b4; stroke: #1f77b4"/>
     <use xlink:href="#m6ba4427466" x="307.119825" y="455.181132" style="fill: #1f77b4; stroke: #1f77b4"/>
     <use xlink:href="#m6ba4427466" x="309.564513" y="455.283111" style="fill: #1f77b4; stroke: #1f77b4"/>
     <use xlink:href="#m6ba4427466" x="312.0092" y="455.38509" style="fill: #1f77b4; stroke: #1f77b4"/>
     <use xlink:href="#m6ba4427466" x="314.453888" y="455.43608" style="fill: #1f77b4; stroke: #1f77b4"/>
     <use xlink:href="#m6ba4427466" x="316.898576" y="455.512564" style="fill: #1f77b4; stroke: #1f77b4"/>
     <use xlink:href="#m6ba4427466" x="319.343264" y="455.614543" style="fill: #1f77b4; stroke: #1f77b4"/>
     <use xlink:href="#m6ba4427466" x="321.787952" y="455.640038" style="fill: #1f77b4; stroke: #1f77b4"/>
     <use xlink:href="#m6ba4427466" x="324.23264" y="455.767512" style="fill: #1f77b4; stroke: #1f77b4"/>
     <use xlink:href="#m6ba4427466" x="326.677327" y="455.843996" style="fill: #1f77b4; stroke: #1f77b4"/>
     <use xlink:href="#m6ba4427466" x="329.122015" y="455.920481" style="fill: #1f77b4; stroke: #1f77b4"/>
     <use xlink:href="#m6ba4427466" x="331.566703" y="456.02246" style="fill: #1f77b4; stroke: #1f77b4"/>
     <use xlink:href="#m6ba4427466" x="334.011391" y="456.098944" style="fill: #1f77b4; stroke: #1f77b4"/>
     <use xlink:href="#m6ba4427466" x="336.456079" y="456.149934" style="fill: #1f77b4; stroke: #1f77b4"/>
     <use xlink:href="#m6ba4427466" x="338.900767" y="456.277408" style="fill: #1f77b4; stroke: #1f77b4"/>
     <use xlink:href="#m6ba4427466" x="341.345455" y="456.353892" style="fill: #1f77b4; stroke: #1f77b4"/>
     <use xlink:href="#m6ba4427466" x="343.790142" y="456.404881" style="fill: #1f77b4; stroke: #1f77b4"/>
     <use xlink:href="#m6ba4427466" x="346.23483" y="456.506861" style="fill: #1f77b4; stroke: #1f77b4"/>
     <use xlink:href="#m6ba4427466" x="348.679518" y="456.583345" style="fill: #1f77b4; stroke: #1f77b4"/>
     <use xlink:href="#m6ba4427466" x="351.124206" y="456.685324" style="fill: #1f77b4; stroke: #1f77b4"/>
     <use xlink:href="#m6ba4427466" x="353.568894" y="456.736314" style="fill: #1f77b4; stroke: #1f77b4"/>
     <use xlink:href="#m6ba4427466" x="356.013582" y="456.838293" style="fill: #1f77b4; stroke: #1f77b4"/>
     <use xlink:href="#m6ba4427466" x="358.458269" y="456.940272" style="fill: #1f77b4; stroke: #1f77b4"/>
     <use xlink:href="#m6ba4427466" x="360.902957" y="457.016756" style="fill: #1f77b4; stroke: #1f77b4"/>
     <use xlink:href="#m6ba4427466" x="363.347645" y="457.067746" style="fill: #1f77b4; stroke: #1f77b4"/>
     <use xlink:href="#m6ba4427466" x="365.792333" y="457.169725" style="fill: #1f77b4; stroke: #1f77b4"/>
     <use xlink:href="#m6ba4427466" x="368.237021" y="457.271704" style="fill: #1f77b4; stroke: #1f77b4"/>
     <use xlink:href="#m6ba4427466" x="370.681709" y="457.348188" style="fill: #1f77b4; stroke: #1f77b4"/>
     <use xlink:href="#m6ba4427466" x="373.126396" y="457.424673" style="fill: #1f77b4; stroke: #1f77b4"/>
     <use xlink:href="#m6ba4427466" x="375.571084" y="457.501157" style="fill: #1f77b4; stroke: #1f77b4"/>
     <use xlink:href="#m6ba4427466" x="378.015772" y="457.628631" style="fill: #1f77b4; stroke: #1f77b4"/>
     <use xlink:href="#m6ba4427466" x="380.46046" y="457.705115" style="fill: #1f77b4; stroke: #1f77b4"/>
     <use xlink:href="#m6ba4427466" x="382.905148" y="457.7816" style="fill: #1f77b4; stroke: #1f77b4"/>
     <use xlink:href="#m6ba4427466" x="385.349836" y="457.883579" style="fill: #1f77b4; stroke: #1f77b4"/>
     <use xlink:href="#m6ba4427466" x="387.794524" y="457.985558" style="fill: #1f77b4; stroke: #1f77b4"/>
     <use xlink:href="#m6ba4427466" x="390.239211" y="458.062042" style="fill: #1f77b4; stroke: #1f77b4"/>
     <use xlink:href="#m6ba4427466" x="392.683899" y="458.138527" style="fill: #1f77b4; stroke: #1f77b4"/>
     <use xlink:href="#m6ba4427466" x="395.128587" y="458.215011" style="fill: #1f77b4; stroke: #1f77b4"/>
     <use xlink:href="#m6ba4427466" x="397.573275" y="458.31699" style="fill: #1f77b4; stroke: #1f77b4"/>
     <use xlink:href="#m6ba4427466" x="400.017963" y="458.418969" style="fill: #1f77b4; stroke: #1f77b4"/>
     <use xlink:href="#m6ba4427466" x="402.462651" y="458.495454" style="fill: #1f77b4; stroke: #1f77b4"/>
     <use xlink:href="#m6ba4427466" x="404.907338" y="458.597433" style="fill: #1f77b4; stroke: #1f77b4"/>
     <use xlink:href="#m6ba4427466" x="407.352026" y="458.699412" style="fill: #1f77b4; stroke: #1f77b4"/>
     <use xlink:href="#m6ba4427466" x="409.796714" y="458.750402" style="fill: #1f77b4; stroke: #1f77b4"/>
     <use xlink:href="#m6ba4427466" x="412.241402" y="458.877875" style="fill: #1f77b4; stroke: #1f77b4"/>
     <use xlink:href="#m6ba4427466" x="414.68609" y="458.95436" style="fill: #1f77b4; stroke: #1f77b4"/>
     <use xlink:href="#m6ba4427466" x="417.130778" y="459.005349" style="fill: #1f77b4; stroke: #1f77b4"/>
     <use xlink:href="#m6ba4427466" x="419.575465" y="459.132823" style="fill: #1f77b4; stroke: #1f77b4"/>
     <use xlink:href="#m6ba4427466" x="422.020153" y="459.209308" style="fill: #1f77b4; stroke: #1f77b4"/>
     <use xlink:href="#m6ba4427466" x="424.464841" y="459.260297" style="fill: #1f77b4; stroke: #1f77b4"/>
     <use xlink:href="#m6ba4427466" x="426.909529" y="459.387771" style="fill: #1f77b4; stroke: #1f77b4"/>
     <use xlink:href="#m6ba4427466" x="429.354217" y="459.464255" style="fill: #1f77b4; stroke: #1f77b4"/>
     <use xlink:href="#m6ba4427466" x="431.798905" y="459.54074" style="fill: #1f77b4; stroke: #1f77b4"/>
     <use xlink:href="#m6ba4427466" x="434.243593" y="459.642719" style="fill: #1f77b4; stroke: #1f77b4"/>
     <use xlink:href="#m6ba4427466" x="436.68828" y="459.719203" style="fill: #1f77b4; stroke: #1f77b4"/>
     <use xlink:href="#m6ba4427466" x="439.132968" y="459.821182" style="fill: #1f77b4; stroke: #1f77b4"/>
     <use xlink:href="#m6ba4427466" x="441.577656" y="459.897667" style="fill: #1f77b4; stroke: #1f77b4"/>
     <use xlink:href="#m6ba4427466" x="444.022344" y="460.025141" style="fill: #1f77b4; stroke: #1f77b4"/>
     <use xlink:href="#m6ba4427466" x="446.467032" y="460.07613" style="fill: #1f77b4; stroke: #1f77b4"/>
     <use xlink:href="#m6ba4427466" x="448.91172" y="460.178109" style="fill: #1f77b4; stroke: #1f77b4"/>
     <use xlink:href="#m6ba4427466" x="451.356407" y="460.254594" style="fill: #1f77b4; stroke: #1f77b4"/>
     <use xlink:href="#m6ba4427466" x="453.801095" y="460.331078" style="fill: #1f77b4; stroke: #1f77b4"/>
     <use xlink:href="#m6ba4427466" x="456.245783" y="460.407562" style="fill: #1f77b4; stroke: #1f77b4"/>
     <use xlink:href="#m6ba4427466" x="458.690471" y="460.535036" style="fill: #1f77b4; stroke: #1f77b4"/>
     <use xlink:href="#m6ba4427466" x="461.135159" y="460.611521" style="fill: #1f77b4; stroke: #1f77b4"/>
     <use xlink:href="#m6ba4427466" x="463.579847" y="460.688005" style="fill: #1f77b4; stroke: #1f77b4"/>
     <use xlink:href="#m6ba4427466" x="466.024535" y="460.789984" style="fill: #1f77b4; stroke: #1f77b4"/>
     <use xlink:href="#m6ba4427466" x="468.469222" y="460.866469" style="fill: #1f77b4; stroke: #1f77b4"/>
     <use xlink:href="#m6ba4427466" x="470.91391" y="460.968448" style="fill: #1f77b4; stroke: #1f77b4"/>
     <use xlink:href="#m6ba4427466" x="473.358598" y="461.044932" style="fill: #1f77b4; stroke: #1f77b4"/>
     <use xlink:href="#m6ba4427466" x="475.803286" y="461.121416" style="fill: #1f77b4; stroke: #1f77b4"/>
     <use xlink:href="#m6ba4427466" x="478.247974" y="461.197901" style="fill: #1f77b4; stroke: #1f77b4"/>
     <use xlink:href="#m6ba4427466" x="480.692662" y="461.29988" style="fill: #1f77b4; stroke: #1f77b4"/>
     <use xlink:href="#m6ba4427466" x="483.137349" y="461.376364" style="fill: #1f77b4; stroke: #1f77b4"/>
     <use xlink:href="#m6ba4427466" x="485.582037" y="461.452849" style="fill: #1f77b4; stroke: #1f77b4"/>
     <use xlink:href="#m6ba4427466" x="488.026725" y="461.529333" style="fill: #1f77b4; stroke: #1f77b4"/>
     <use xlink:href="#m6ba4427466" x="490.471413" y="461.605817" style="fill: #1f77b4; stroke: #1f77b4"/>
     <use xlink:href="#m6ba4427466" x="492.916101" y="461.707796" style="fill: #1f77b4; stroke: #1f77b4"/>
     <use xlink:href="#m6ba4427466" x="495.360789" y="461.784281" style="fill: #1f77b4; stroke: #1f77b4"/>
     <use xlink:href="#m6ba4427466" x="497.805476" y="461.860765" style="fill: #1f77b4; stroke: #1f77b4"/>
     <use xlink:href="#m6ba4427466" x="500.250164" y="461.962744" style="fill: #1f77b4; stroke: #1f77b4"/>
     <use xlink:href="#m6ba4427466" x="502.694852" y="462.039229" style="fill: #1f77b4; stroke: #1f77b4"/>
     <use xlink:href="#m6ba4427466" x="505.13954" y="462.115713" style="fill: #1f77b4; stroke: #1f77b4"/>
     <use xlink:href="#m6ba4427466" x="507.584228" y="462.217692" style="fill: #1f77b4; stroke: #1f77b4"/>
     <use xlink:href="#m6ba4427466" x="510.028916" y="462.268682" style="fill: #1f77b4; stroke: #1f77b4"/>
     <use xlink:href="#m6ba4427466" x="512.473604" y="462.370661" style="fill: #1f77b4; stroke: #1f77b4"/>
     <use xlink:href="#m6ba4427466" x="514.918291" y="462.447145" style="fill: #1f77b4; stroke: #1f77b4"/>
     <use xlink:href="#m6ba4427466" x="517.362979" y="462.498135" style="fill: #1f77b4; stroke: #1f77b4"/>
     <use xlink:href="#m6ba4427466" x="519.807667" y="462.600114" style="fill: #1f77b4; stroke: #1f77b4"/>
     <use xlink:href="#m6ba4427466" x="522.252355" y="462.676598" style="fill: #1f77b4; stroke: #1f77b4"/>
     <use xlink:href="#m6ba4427466" x="524.697043" y="462.778577" style="fill: #1f77b4; stroke: #1f77b4"/>
     <use xlink:href="#m6ba4427466" x="527.141731" y="462.855062" style="fill: #1f77b4; stroke: #1f77b4"/>
     <use xlink:href="#m6ba4427466" x="529.586418" y="462.906051" style="fill: #1f77b4; stroke: #1f77b4"/>
     <use xlink:href="#m6ba4427466" x="532.031106" y="462.982536" style="fill: #1f77b4; stroke: #1f77b4"/>
     <use xlink:href="#m6ba4427466" x="534.475794" y="463.05902" style="fill: #1f77b4; stroke: #1f77b4"/>
     <use xlink:href="#m6ba4427466" x="536.920482" y="463.135504" style="fill: #1f77b4; stroke: #1f77b4"/>
     <use xlink:href="#m6ba4427466" x="539.36517" y="463.211989" style="fill: #1f77b4; stroke: #1f77b4"/>
     <use xlink:href="#m6ba4427466" x="541.809858" y="463.288473" style="fill: #1f77b4; stroke: #1f77b4"/>
     <use xlink:href="#m6ba4427466" x="544.254545" y="463.390452" style="fill: #1f77b4; stroke: #1f77b4"/>
     <use xlink:href="#m6ba4427466" x="546.699233" y="463.466936" style="fill: #1f77b4; stroke: #1f77b4"/>
     <use xlink:href="#m6ba4427466" x="549.143921" y="463.543421" style="fill: #1f77b4; stroke: #1f77b4"/>
     <use xlink:href="#m6ba4427466" x="551.588609" y="463.619905" style="fill: #1f77b4; stroke: #1f77b4"/>
     <use xlink:href="#m6ba4427466" x="554.033297" y="463.69639" style="fill: #1f77b4; stroke: #1f77b4"/>
     <use xlink:href="#m6ba4427466" x="556.477985" y="463.747379" style="fill: #1f77b4; stroke: #1f77b4"/>
     <use xlink:href="#m6ba4427466" x="558.922673" y="463.823863" style="fill: #1f77b4; stroke: #1f77b4"/>
     <use xlink:href="#m6ba4427466" x="561.36736" y="463.900348" style="fill: #1f77b4; stroke: #1f77b4"/>
     <use xlink:href="#m6ba4427466" x="563.812048" y="463.976832" style="fill: #1f77b4; stroke: #1f77b4"/>
     <use xlink:href="#m6ba4427466" x="566.256736" y="464.053316" style="fill: #1f77b4; stroke: #1f77b4"/>
     <use xlink:href="#m6ba4427466" x="568.701424" y="464.129801" style="fill: #1f77b4; stroke: #1f77b4"/>
     <use xlink:href="#m6ba4427466" x="571.146112" y="464.23178" style="fill: #1f77b4; stroke: #1f77b4"/>
     <use xlink:href="#m6ba4427466" x="573.5908" y="464.28277" style="fill: #1f77b4; stroke: #1f77b4"/>
     <use xlink:href="#m6ba4427466" x="576.035487" y="464.333759" style="fill: #1f77b4; stroke: #1f77b4"/>
     <use xlink:href="#m6ba4427466" x="578.480175" y="464.410243" style="fill: #1f77b4; stroke: #1f77b4"/>
     <use xlink:href="#m6ba4427466" x="580.924863" y="464.512223" style="fill: #1f77b4; stroke: #1f77b4"/>
     <use xlink:href="#m6ba4427466" x="583.369551" y="464.563212" style="fill: #1f77b4; stroke: #1f77b4"/>
     <use xlink:href="#m6ba4427466" x="585.814239" y="464.639696" style="fill: #1f77b4; stroke: #1f77b4"/>
     <use xlink:href="#m6ba4427466" x="588.258927" y="464.716181" style="fill: #1f77b4; stroke: #1f77b4"/>
     <use xlink:href="#m6ba4427466" x="590.703614" y="464.792665" style="fill: #1f77b4; stroke: #1f77b4"/>
     <use xlink:href="#m6ba4427466" x="593.148302" y="464.843655" style="fill: #1f77b4; stroke: #1f77b4"/>
     <use xlink:href="#m6ba4427466" x="595.59299" y="464.945634" style="fill: #1f77b4; stroke: #1f77b4"/>
     <use xlink:href="#m6ba4427466" x="598.037678" y="464.996623" style="fill: #1f77b4; stroke: #1f77b4"/>
     <use xlink:href="#m6ba4427466" x="600.482366" y="465.047613" style="fill: #1f77b4; stroke: #1f77b4"/>
     <use xlink:href="#m6ba4427466" x="602.927054" y="465.124097" style="fill: #1f77b4; stroke: #1f77b4"/>
     <use xlink:href="#m6ba4427466" x="605.371742" y="465.175087" style="fill: #1f77b4; stroke: #1f77b4"/>
     <use xlink:href="#m6ba4427466" x="607.816429" y="465.277066" style="fill: #1f77b4; stroke: #1f77b4"/>
     <use xlink:href="#m6ba4427466" x="610.261117" y="465.328056" style="fill: #1f77b4; stroke: #1f77b4"/>
     <use xlink:href="#m6ba4427466" x="612.705805" y="465.40454" style="fill: #1f77b4; stroke: #1f77b4"/>
     <use xlink:href="#m6ba4427466" x="615.150493" y="196.001163" style="fill: #1f77b4; stroke: #1f77b4"/>
     <use xlink:href="#m6ba4427466" x="617.595181" y="413.54815" style="fill: #1f77b4; stroke: #1f77b4"/>
     <use xlink:href="#m6ba4427466" x="620.039869" y="413.344192" style="fill: #1f77b4; stroke: #1f77b4"/>
     <use xlink:href="#m6ba4427466" x="622.484556" y="413.191224" style="fill: #1f77b4; stroke: #1f77b4"/>
     <use xlink:href="#m6ba4427466" x="624.929244" y="413.089244" style="fill: #1f77b4; stroke: #1f77b4"/>
     <use xlink:href="#m6ba4427466" x="627.373932" y="413.01276" style="fill: #1f77b4; stroke: #1f77b4"/>
     <use xlink:href="#m6ba4427466" x="629.81862" y="412.96177" style="fill: #1f77b4; stroke: #1f77b4"/>
     <use xlink:href="#m6ba4427466" x="632.263308" y="412.885286" style="fill: #1f77b4; stroke: #1f77b4"/>
     <use xlink:href="#m6ba4427466" x="634.707996" y="412.859791" style="fill: #1f77b4; stroke: #1f77b4"/>
     <use xlink:href="#m6ba4427466" x="637.152683" y="412.808802" style="fill: #1f77b4; stroke: #1f77b4"/>
     <use xlink:href="#m6ba4427466" x="639.597371" y="412.757812" style="fill: #1f77b4; stroke: #1f77b4"/>
     <use xlink:href="#m6ba4427466" x="642.042059" y="412.732317" style="fill: #1f77b4; stroke: #1f77b4"/>
     <use xlink:href="#m6ba4427466" x="644.486747" y="412.681328" style="fill: #1f77b4; stroke: #1f77b4"/>
     <use xlink:href="#m6ba4427466" x="646.931435" y="412.630338" style="fill: #1f77b4; stroke: #1f77b4"/>
     <use xlink:href="#m6ba4427466" x="649.376123" y="412.579349" style="fill: #1f77b4; stroke: #1f77b4"/>
     <use xlink:href="#m6ba4427466" x="651.820811" y="412.528359" style="fill: #1f77b4; stroke: #1f77b4"/>
     <use xlink:href="#m6ba4427466" x="654.265498" y="412.451875" style="fill: #1f77b4; stroke: #1f77b4"/>
     <use xlink:href="#m6ba4427466" x="656.710186" y="412.37539" style="fill: #1f77b4; stroke: #1f77b4"/>
     <use xlink:href="#m6ba4427466" x="659.154874" y="412.298906" style="fill: #1f77b4; stroke: #1f77b4"/>
     <use xlink:href="#m6ba4427466" x="661.599562" y="412.222422" style="fill: #1f77b4; stroke: #1f77b4"/>
     <use xlink:href="#m6ba4427466" x="664.04425" y="412.171432" style="fill: #1f77b4; stroke: #1f77b4"/>
     <use xlink:href="#m6ba4427466" x="666.488938" y="412.094948" style="fill: #1f77b4; stroke: #1f77b4"/>
     <use xlink:href="#m6ba4427466" x="668.933625" y="412.069453" style="fill: #1f77b4; stroke: #1f77b4"/>
     <use xlink:href="#m6ba4427466" x="671.378313" y="412.018463" style="fill: #1f77b4; stroke: #1f77b4"/>
     <use xlink:href="#m6ba4427466" x="673.823001" y="412.018463" style="fill: #1f77b4; stroke: #1f77b4"/>
     <use xlink:href="#m6ba4427466" x="676.267689" y="411.967474" style="fill: #1f77b4; stroke: #1f77b4"/>
     <use xlink:href="#m6ba4427466" x="678.712377" y="411.89099" style="fill: #1f77b4; stroke: #1f77b4"/>
     <use xlink:href="#m6ba4427466" x="681.157065" y="411.814505" style="fill: #1f77b4; stroke: #1f77b4"/>
     <use xlink:href="#m6ba4427466" x="683.601752" y="411.738021" style="fill: #1f77b4; stroke: #1f77b4"/>
     <use xlink:href="#m6ba4427466" x="686.04644" y="411.661537" style="fill: #1f77b4; stroke: #1f77b4"/>
     <use xlink:href="#m6ba4427466" x="688.491128" y="411.585052" style="fill: #1f77b4; stroke: #1f77b4"/>
     <use xlink:href="#m6ba4427466" x="690.935816" y="411.559557" style="fill: #1f77b4; stroke: #1f77b4"/>
     <use xlink:href="#m6ba4427466" x="693.380504" y="411.508568" style="fill: #1f77b4; stroke: #1f77b4"/>
     <use xlink:href="#m6ba4427466" x="695.825192" y="411.406589" style="fill: #1f77b4; stroke: #1f77b4"/>
     <use xlink:href="#m6ba4427466" x="698.26988" y="411.355599" style="fill: #1f77b4; stroke: #1f77b4"/>
     <use xlink:href="#m6ba4427466" x="700.714567" y="411.30461" style="fill: #1f77b4; stroke: #1f77b4"/>
     <use xlink:href="#m6ba4427466" x="703.159255" y="411.25362" style="fill: #1f77b4; stroke: #1f77b4"/>
     <use xlink:href="#m6ba4427466" x="705.603943" y="411.177136" style="fill: #1f77b4; stroke: #1f77b4"/>
     <use xlink:href="#m6ba4427466" x="708.048631" y="411.100651" style="fill: #1f77b4; stroke: #1f77b4"/>
     <use xlink:href="#m6ba4427466" x="710.493319" y="411.049662" style="fill: #1f77b4; stroke: #1f77b4"/>
     <use xlink:href="#m6ba4427466" x="712.938007" y="410.998672" style="fill: #1f77b4; stroke: #1f77b4"/>
     <use xlink:href="#m6ba4427466" x="715.382694" y="410.973177" style="fill: #1f77b4; stroke: #1f77b4"/>
     <use xlink:href="#m6ba4427466" x="717.827382" y="410.896693" style="fill: #1f77b4; stroke: #1f77b4"/>
     <use xlink:href="#m6ba4427466" x="720.27207" y="410.871198" style="fill: #1f77b4; stroke: #1f77b4"/>
     <use xlink:href="#m6ba4427466" x="722.716758" y="410.820209" style="fill: #1f77b4; stroke: #1f77b4"/>
     <use xlink:href="#m6ba4427466" x="725.161446" y="410.769219" style="fill: #1f77b4; stroke: #1f77b4"/>
     <use xlink:href="#m6ba4427466" x="727.606134" y="410.692735" style="fill: #1f77b4; stroke: #1f77b4"/>
     <use xlink:href="#m6ba4427466" x="730.050821" y="410.61625" style="fill: #1f77b4; stroke: #1f77b4"/>
     <use xlink:href="#m6ba4427466" x="732.495509" y="410.539766" style="fill: #1f77b4; stroke: #1f77b4"/>
     <use xlink:href="#m6ba4427466" x="734.940197" y="410.463282" style="fill: #1f77b4; stroke: #1f77b4"/>
     <use xlink:href="#m6ba4427466" x="737.384885" y="410.412292" style="fill: #1f77b4; stroke: #1f77b4"/>
     <use xlink:href="#m6ba4427466" x="739.829573" y="410.310313" style="fill: #1f77b4; stroke: #1f77b4"/>
     <use xlink:href="#m6ba4427466" x="742.274261" y="410.259323" style="fill: #1f77b4; stroke: #1f77b4"/>
     <use xlink:href="#m6ba4427466" x="744.718949" y="410.208334" style="fill: #1f77b4; stroke: #1f77b4"/>
     <use xlink:href="#m6ba4427466" x="747.163636" y="410.106355" style="fill: #1f77b4; stroke: #1f77b4"/>
    </g>
   </g>
   <g id="line2d_17">
    <path d="M 138.436364 492.48 
L 143.529463 492.48 
L 143.529463 433.281113 
L 153.715663 433.281113 
L 153.715663 433.230123 
L 163.901862 433.230123 
L 163.901862 433.332102 
L 174.088061 433.332102 
L 174.088061 433.485071 
L 184.274261 433.485071 
L 184.274261 433.689029 
L 194.46046 433.689029 
L 194.46046 433.918482 
L 204.646659 433.918482 
L 204.646659 434.147936 
L 214.832859 434.147936 
L 214.832859 434.479368 
L 225.019058 434.479368 
L 225.019058 434.785305 
L 235.205257 434.785305 
L 235.205257 435.142232 
L 245.391457 435.142232 
L 245.391457 435.550149 
L 255.577656 435.550149 
L 255.577656 435.958065 
L 265.763855 435.958065 
L 265.763855 436.391476 
L 275.950055 436.391476 
L 275.950055 436.875877 
L 286.136254 436.875877 
L 286.136254 437.360278 
L 296.322453 437.360278 
L 296.322453 437.870174 
L 306.508653 437.870174 
L 306.508653 438.354575 
L 316.694852 438.354575 
L 316.694852 438.838976 
L 326.881051 438.838976 
L 326.881051 439.374366 
L 337.067251 439.374366 
L 337.067251 439.935251 
L 347.25345 439.935251 
L 347.25345 440.445147 
L 357.43965 440.445147 
L 357.43965 441.031527 
L 367.625849 441.031527 
L 367.625849 441.592412 
L 377.812048 441.592412 
L 377.812048 442.127803 
L 387.998248 442.127803 
L 387.998248 442.714183 
L 398.184447 442.714183 
L 398.184447 443.275068 
L 408.370646 443.275068 
L 408.370646 443.810458 
L 418.556846 443.810458 
L 418.556846 444.396838 
L 428.743045 444.396838 
L 428.743045 444.932229 
L 438.929244 444.932229 
L 438.929244 445.518609 
L 449.115444 445.518609 
L 449.115444 446.053999 
L 459.301643 446.053999 
L 459.301643 446.58939 
L 469.487842 446.58939 
L 469.487842 447.150275 
L 479.674042 447.150275 
L 479.674042 447.685666 
L 489.860241 447.685666 
L 489.860241 448.195561 
L 500.04644 448.195561 
L 500.04644 448.705457 
L 510.23264 448.705457 
L 510.23264 449.189858 
L 520.418839 449.189858 
L 520.418839 449.699753 
L 530.605038 449.699753 
L 530.605038 450.209649 
L 540.791238 450.209649 
L 540.791238 450.64306 
L 550.977437 450.64306 
L 550.977437 451.152956 
L 561.163636 451.152956 
L 561.163636 451.611862 
L 571.349836 451.611862 
L 571.349836 452.070768 
L 581.536035 452.070768 
L 581.536035 452.50418 
L 591.722234 452.50418 
L 591.722234 452.937591 
L 601.908434 452.937591 
L 601.908434 453.345507 
L 612.094633 453.345507 
L 612.094633 200.947151 
L 622.280832 200.947151 
L 622.280832 365.057072 
L 632.467032 365.057072 
L 632.467032 364.980588 
L 642.653231 364.980588 
L 642.653231 365.108062 
L 652.83943 365.108062 
L 652.83943 365.082567 
L 663.02563 365.082567 
L 663.02563 365.082567 
L 673.211829 365.082567 
L 673.211829 365.108062 
L 683.398028 365.108062 
L 683.398028 365.057072 
L 693.584228 365.057072 
L 693.584228 364.904104 
L 703.770427 364.904104 
L 703.770427 364.751135 
L 713.956627 364.751135 
L 713.956627 364.623661 
L 724.142826 364.623661 
L 724.142826 364.470692 
L 734.329025 364.470692 
L 734.329025 364.215745 
L 739.422125 364.215745 
" clip-path="url(#pc1b65ee13b)" style="fill: none; stroke: #ff7f0e; stroke-width: 1.5; stroke-linecap: round"/>
    <defs>
     <path id="m98195cb69a" d="M 0 0.416667 
C 0.110501 0.416667 0.216492 0.372764 0.294628 0.294628 
C 0.372764 0.216492 0.416667 0.110501 0.416667 0 
C 0.416667 -0.110501 0.372764 -0.216492 0.294628 -0.294628 
C 0.216492 -0.372764 0.110501 -0.416667 0 -0.416667 
C -0.110501 -0.416667 -0.216492 -0.372764 -0.294628 -0.294628 
C -0.372764 -0.216492 -0.416667 -0.110501 -0.416667 0 
C -0.416667 0.110501 -0.372764 0.216492 -0.294628 0.294628 
C -0.216492 0.372764 -0.110501 0.416667 0 0.416667 
z
" style="stroke: #ff7f0e"/>
    </defs>
    <g clip-path="url(#pc1b65ee13b)">
     <use xlink:href="#m98195cb69a" x="138.436364" y="492.48" style="fill: #ff7f0e; stroke: #ff7f0e"/>
     <use xlink:href="#m98195cb69a" x="148.622563" y="433.281113" style="fill: #ff7f0e; stroke: #ff7f0e"/>
     <use xlink:href="#m98195cb69a" x="158.808762" y="433.230123" style="fill: #ff7f0e; stroke: #ff7f0e"/>
     <use xlink:href="#m98195cb69a" x="168.994962" y="433.332102" style="fill: #ff7f0e; stroke: #ff7f0e"/>
     <use xlink:href="#m98195cb69a" x="179.181161" y="433.485071" style="fill: #ff7f0e; stroke: #ff7f0e"/>
     <use xlink:href="#m98195cb69a" x="189.36736" y="433.689029" style="fill: #ff7f0e; stroke: #ff7f0e"/>
     <use xlink:href="#m98195cb69a" x="199.55356" y="433.918482" style="fill: #ff7f0e; stroke: #ff7f0e"/>
     <use xlink:href="#m98195cb69a" x="209.739759" y="434.147936" style="fill: #ff7f0e; stroke: #ff7f0e"/>
     <use xlink:href="#m98195cb69a" x="219.925958" y="434.479368" style="fill: #ff7f0e; stroke: #ff7f0e"/>
     <use xlink:href="#m98195cb69a" x="230.112158" y="434.785305" style="fill: #ff7f0e; stroke: #ff7f0e"/>
     <use xlink:href="#m98195cb69a" x="240.298357" y="435.142232" style="fill: #ff7f0e; stroke: #ff7f0e"/>
     <use xlink:href="#m98195cb69a" x="250.484556" y="435.550149" style="fill: #ff7f0e; stroke: #ff7f0e"/>
     <use xlink:href="#m98195cb69a" x="260.670756" y="435.958065" style="fill: #ff7f0e; stroke: #ff7f0e"/>
     <use xlink:href="#m98195cb69a" x="270.856955" y="436.391476" style="fill: #ff7f0e; stroke: #ff7f0e"/>
     <use xlink:href="#m98195cb69a" x="281.043154" y="436.875877" style="fill: #ff7f0e; stroke: #ff7f0e"/>
     <use xlink:href="#m98195cb69a" x="291.229354" y="437.360278" style="fill: #ff7f0e; stroke: #ff7f0e"/>
     <use xlink:href="#m98195cb69a" x="301.415553" y="437.870174" style="fill: #ff7f0e; stroke: #ff7f0e"/>
     <use xlink:href="#m98195cb69a" x="311.601752" y="438.354575" style="fill: #ff7f0e; stroke: #ff7f0e"/>
     <use xlink:href="#m98195cb69a" x="321.787952" y="438.838976" style="fill: #ff7f0e; stroke: #ff7f0e"/>
     <use xlink:href="#m98195cb69a" x="331.974151" y="439.374366" style="fill: #ff7f0e; stroke: #ff7f0e"/>
     <use xlink:href="#m98195cb69a" x="342.16035" y="439.935251" style="fill: #ff7f0e; stroke: #ff7f0e"/>
     <use xlink:href="#m98195cb69a" x="352.34655" y="440.445147" style="fill: #ff7f0e; stroke: #ff7f0e"/>
     <use xlink:href="#m98195cb69a" x="362.532749" y="441.031527" style="fill: #ff7f0e; stroke: #ff7f0e"/>
     <use xlink:href="#m98195cb69a" x="372.718949" y="441.592412" style="fill: #ff7f0e; stroke: #ff7f0e"/>
     <use xlink:href="#m98195cb69a" x="382.905148" y="442.127803" style="fill: #ff7f0e; stroke: #ff7f0e"/>
     <use xlink:href="#m98195cb69a" x="393.091347" y="442.714183" style="fill: #ff7f0e; stroke: #ff7f0e"/>
     <use xlink:href="#m98195cb69a" x="403.277547" y="443.275068" style="fill: #ff7f0e; stroke: #ff7f0e"/>
     <use xlink:href="#m98195cb69a" x="413.463746" y="443.810458" style="fill: #ff7f0e; stroke: #ff7f0e"/>
     <use xlink:href="#m98195cb69a" x="423.649945" y="444.396838" style="fill: #ff7f0e; stroke: #ff7f0e"/>
     <use xlink:href="#m98195cb69a" x="433.836145" y="444.932229" style="fill: #ff7f0e; stroke: #ff7f0e"/>
     <use xlink:href="#m98195cb69a" x="444.022344" y="445.518609" style="fill: #ff7f0e; stroke: #ff7f0e"/>
     <use xlink:href="#m98195cb69a" x="454.208543" y="446.053999" style="fill: #ff7f0e; stroke: #ff7f0e"/>
     <use xlink:href="#m98195cb69a" x="464.394743" y="446.58939" style="fill: #ff7f0e; stroke: #ff7f0e"/>
     <use xlink:href="#m98195cb69a" x="474.580942" y="447.150275" style="fill: #ff7f0e; stroke: #ff7f0e"/>
     <use xlink:href="#m98195cb69a" x="484.767141" y="447.685666" style="fill: #ff7f0e; stroke: #ff7f0e"/>
     <use xlink:href="#m98195cb69a" x="494.953341" y="448.195561" style="fill: #ff7f0e; stroke: #ff7f0e"/>
     <use xlink:href="#m98195cb69a" x="505.13954" y="448.705457" style="fill: #ff7f0e; stroke: #ff7f0e"/>
     <use xlink:href="#m98195cb69a" x="515.325739" y="449.189858" style="fill: #ff7f0e; stroke: #ff7f0e"/>
     <use xlink:href="#m98195cb69a" x="525.511939" y="449.699753" style="fill: #ff7f0e; stroke: #ff7f0e"/>
     <use xlink:href="#m98195cb69a" x="535.698138" y="450.209649" style="fill: #ff7f0e; stroke: #ff7f0e"/>
     <use xlink:href="#m98195cb69a" x="545.884337" y="450.64306" style="fill: #ff7f0e; stroke: #ff7f0e"/>
     <use xlink:href="#m98195cb69a" x="556.070537" y="451.152956" style="fill: #ff7f0e; stroke: #ff7f0e"/>
     <use xlink:href="#m98195cb69a" x="566.256736" y="451.611862" style="fill: #ff7f0e; stroke: #ff7f0e"/>
     <use xlink:href="#m98195cb69a" x="576.442935" y="452.070768" style="fill: #ff7f0e; stroke: #ff7f0e"/>
     <use xlink:href="#m98195cb69a" x="586.629135" y="452.50418" style="fill: #ff7f0e; stroke: #ff7f0e"/>
     <use xlink:href="#m98195cb69a" x="596.815334" y="452.937591" style="fill: #ff7f0e; stroke: #ff7f0e"/>
     <use xlink:href="#m98195cb69a" x="607.001533" y="453.345507" style="fill: #ff7f0e; stroke: #ff7f0e"/>
     <use xlink:href="#m98195cb69a" x="617.187733" y="200.947151" style="fill: #ff7f0e; stroke: #ff7f0e"/>
     <use xlink:href="#m98195cb69a" x="627.373932" y="365.057072" style="fill: #ff7f0e; stroke: #ff7f0e"/>
     <use xlink:href="#m98195cb69a" x="637.560131" y="364.980588" style="fill: #ff7f0e; stroke: #ff7f0e"/>
     <use xlink:href="#m98195cb69a" x="647.746331" y="365.108062" style="fill: #ff7f0e; stroke: #ff7f0e"/>
     <use xlink:href="#m98195cb69a" x="657.93253" y="365.082567" style="fill: #ff7f0e; stroke: #ff7f0e"/>
     <use xlink:href="#m98195cb69a" x="668.118729" y="365.082567" style="fill: #ff7f0e; stroke: #ff7f0e"/>
     <use xlink:href="#m98195cb69a" x="678.304929" y="365.108062" style="fill: #ff7f0e; stroke: #ff7f0e"/>
     <use xlink:href="#m98195cb69a" x="688.491128" y="365.057072" style="fill: #ff7f0e; stroke: #ff7f0e"/>
     <use xlink:href="#m98195cb69a" x="698.677327" y="364.904104" style="fill: #ff7f0e; stroke: #ff7f0e"/>
     <use xlink:href="#m98195cb69a" x="708.863527" y="364.751135" style="fill: #ff7f0e; stroke: #ff7f0e"/>
     <use xlink:href="#m98195cb69a" x="719.049726" y="364.623661" style="fill: #ff7f0e; stroke: #ff7f0e"/>
     <use xlink:href="#m98195cb69a" x="729.235926" y="364.470692" style="fill: #ff7f0e; stroke: #ff7f0e"/>
     <use xlink:href="#m98195cb69a" x="739.422125" y="364.215745" style="fill: #ff7f0e; stroke: #ff7f0e"/>
    </g>
   </g>
   <g id="line2d_18">
    <path d="M 138.436364 492.48 
L 158.808762 492.48 
L 158.808762 415.128827 
L 199.55356 415.128827 
L 199.55356 416.429061 
L 240.298357 416.429061 
L 240.298357 418.468644 
L 281.043154 418.468644 
L 281.043154 421.043617 
L 321.787952 421.043617 
L 321.787952 423.797053 
L 362.532749 423.797053 
L 362.532749 426.830933 
L 403.277547 426.830933 
L 403.277547 429.813822 
L 444.022344 429.813822 
L 444.022344 432.796712 
L 484.767141 432.796712 
L 484.767141 435.601138 
L 525.511939 435.601138 
L 525.511939 438.125122 
L 566.256736 438.125122 
L 566.256736 89.28 
L 607.001533 89.28 
L 607.001533 249.412735 
L 647.746331 249.412735 
L 647.746331 249.106797 
L 688.491128 249.106797 
L 688.491128 248.775365 
L 708.863527 248.775365 
" clip-path="url(#pc1b65ee13b)" style="fill: none; stroke: #2ca02c; stroke-width: 1.5; stroke-linecap: round"/>
    <defs>
     <path id="m01e01321e8" d="M 0 1.666667 
C 0.442005 1.666667 0.865966 1.491056 1.178511 1.178511 
C 1.491056 0.865966 1.666667 0.442005 1.666667 0 
C 1.666667 -0.442005 1.491056 -0.865966 1.178511 -1.178511 
C 0.865966 -1.491056 0.442005 -1.666667 0 -1.666667 
C -0.442005 -1.666667 -0.865966 -1.491056 -1.178511 -1.178511 
C -1.491056 -0.865966 -1.666667 -0.442005 -1.666667 0 
C -1.666667 0.442005 -1.491056 0.865966 -1.178511 1.178511 
C -0.865966 1.491056 -0.442005 1.666667 0 1.666667 
z
" style="stroke: #2ca02c"/>
    </defs>
    <g clip-path="url(#pc1b65ee13b)">
     <use xlink:href="#m01e01321e8" x="138.436364" y="492.48" style="fill: #2ca02c; stroke: #2ca02c"/>
     <use xlink:href="#m01e01321e8" x="179.181161" y="415.128827" style="fill: #2ca02c; stroke: #2ca02c"/>
     <use xlink:href="#m01e01321e8" x="219.925958" y="416.429061" style="fill: #2ca02c; stroke: #2ca02c"/>
     <use xlink:href="#m01e01321e8" x="260.670756" y="418.468644" style="fill: #2ca02c; stroke: #2ca02c"/>
     <use xlink:href="#m01e01321e8" x="301.415553" y="421.043617" style="fill: #2ca02c; stroke: #2ca02c"/>
     <use xlink:href="#m01e01321e8" x="342.16035" y="423.797053" style="fill: #2ca02c; stroke: #2ca02c"/>
     <use xlink:href="#m01e01321e8" x="382.905148" y="426.830933" style="fill: #2ca02c; stroke: #2ca02c"/>
     <use xlink:href="#m01e01321e8" x="423.649945" y="429.813822" style="fill: #2ca02c; stroke: #2ca02c"/>
     <use xlink:href="#m01e01321e8" x="464.394743" y="432.796712" style="fill: #2ca02c; stroke: #2ca02c"/>
     <use xlink:href="#m01e01321e8" x="505.13954" y="435.601138" style="fill: #2ca02c; stroke: #2ca02c"/>
     <use xlink:href="#m01e01321e8" x="545.884337" y="438.125122" style="fill: #2ca02c; stroke: #2ca02c"/>
     <use xlink:href="#m01e01321e8" x="586.629135" y="89.28" style="fill: #2ca02c; stroke: #2ca02c"/>
     <use xlink:href="#m01e01321e8" x="627.373932" y="249.412735" style="fill: #2ca02c; stroke: #2ca02c"/>
     <use xlink:href="#m01e01321e8" x="668.118729" y="249.106797" style="fill: #2ca02c; stroke: #2ca02c"/>
     <use xlink:href="#m01e01321e8" x="708.863527" y="248.775365" style="fill: #2ca02c; stroke: #2ca02c"/>
    </g>
   </g>
   <g id="line2d_19">
    <path d="M 138.436364 492.48 
L 199.55356 492.48 
L 199.55356 405.032893 
L 321.787952 405.032893 
L 321.787952 391.750111 
L 444.022344 391.750111 
L 444.022344 492.48 
L 566.256736 492.48 
L 566.256736 492.48 
L 627.373932 492.48 
" clip-path="url(#pc1b65ee13b)" style="fill: none; stroke: #d62728; stroke-width: 1.5; stroke-linecap: round"/>
    <defs>
     <path id="m6a3bc9bd7f" d="M 0 5 
C 1.326016 5 2.597899 4.473168 3.535534 3.535534 
C 4.473168 2.597899 5 1.326016 5 0 
C 5 -1.326016 4.473168 -2.597899 3.535534 -3.535534 
C 2.597899 -4.473168 1.326016 -5 0 -5 
C -1.326016 -5 -2.597899 -4.473168 -3.535534 -3.535534 
C -4.473168 -2.597899 -5 -1.326016 -5 0 
C -5 1.326016 -4.473168 2.597899 -3.535534 3.535534 
C -2.597899 4.473168 -1.326016 5 0 5 
z
" style="stroke: #d62728"/>
    </defs>
    <g clip-path="url(#pc1b65ee13b)">
     <use xlink:href="#m6a3bc9bd7f" x="138.436364" y="492.48" style="fill: #d62728; stroke: #d62728"/>
     <use xlink:href="#m6a3bc9bd7f" x="260.670756" y="405.032893" style="fill: #d62728; stroke: #d62728"/>
     <use xlink:href="#m6a3bc9bd7f" x="382.905148" y="391.750111" style="fill: #d62728; stroke: #d62728"/>
     <use xlink:href="#m6a3bc9bd7f" x="505.13954" y="492.48" style="fill: #d62728; stroke: #d62728"/>
     <use xlink:href="#m6a3bc9bd7f" x="627.373932" y="492.48" style="fill: #d62728; stroke: #d62728"/>
    </g>
   </g>
   <g id="patch_3">
    <path d="M 108 512.64 
L 108 69.12 
" style="fill: none; stroke: #cccccc; stroke-width: 1.25; stroke-linejoin: miter; stroke-linecap: square"/>
   </g>
   <g id="patch_4">
    <path d="M 777.6 512.64 
L 777.6 69.12 
" style="fill: none; stroke: #cccccc; stroke-width: 1.25; stroke-linejoin: miter; stroke-linecap: square"/>
   </g>
   <g id="patch_5">
    <path d="M 108 512.64 
L 777.6 512.64 
" style="fill: none; stroke: #cccccc; stroke-width: 1.25; stroke-linejoin: miter; stroke-linecap: square"/>
   </g>
   <g id="patch_6">
    <path d="M 108 69.12 
L 777.6 69.12 
" style="fill: none; stroke: #cccccc; stroke-width: 1.25; stroke-linejoin: miter; stroke-linecap: square"/>
   </g>
   <g id="text_18">
    <!-- Number of Iterations Until Convergence -->
    <g style="fill: #262626" transform="translate(299.361375 63.12) scale(0.144 -0.144)">
     <defs>
      <path id="DejaVuSans-55" d="M 556 4666 
L 1191 4666 
L 1191 1831 
Q 1191 1081 1462 751 
Q 1734 422 2344 422 
Q 2950 422 3222 751 
Q 3494 1081 3494 1831 
L 3494 4666 
L 4128 4666 
L 4128 1753 
Q 4128 841 3676 375 
Q 3225 -91 2344 -91 
Q 1459 -91 1007 375 
Q 556 841 556 1753 
L 556 4666 
z
" transform="scale(0.015625)"/>
      <path id="DejaVuSans-6c" d="M 603 4863 
L 1178 4863 
L 1178 0 
L 603 0 
L 603 4863 
z
" transform="scale(0.015625)"/>
      <path id="DejaVuSans-43" d="M 4122 4306 
L 4122 3641 
Q 3803 3938 3442 4084 
Q 3081 4231 2675 4231 
Q 1875 4231 1450 3742 
Q 1025 3253 1025 2328 
Q 1025 1406 1450 917 
Q 1875 428 2675 428 
Q 3081 428 3442 575 
Q 3803 722 4122 1019 
L 4122 359 
Q 3791 134 3420 21 
Q 3050 -91 2638 -91 
Q 1578 -91 968 557 
Q 359 1206 359 2328 
Q 359 3453 968 4101 
Q 1578 4750 2638 4750 
Q 3056 4750 3426 4639 
Q 3797 4528 4122 4306 
z
" transform="scale(0.015625)"/>
      <path id="DejaVuSans-76" d="M 191 3500 
L 800 3500 
L 1894 563 
L 2988 3500 
L 3597 3500 
L 2284 0 
L 1503 0 
L 191 3500 
z
" transform="scale(0.015625)"/>
      <path id="DejaVuSans-67" d="M 2906 1791 
Q 2906 2416 2648 2759 
Q 2391 3103 1925 3103 
Q 1463 3103 1205 2759 
Q 947 2416 947 1791 
Q 947 1169 1205 825 
Q 1463 481 1925 481 
Q 2391 481 2648 825 
Q 2906 1169 2906 1791 
z
M 3481 434 
Q 3481 -459 3084 -895 
Q 2688 -1331 1869 -1331 
Q 1566 -1331 1297 -1286 
Q 1028 -1241 775 -1147 
L 775 -588 
Q 1028 -725 1275 -790 
Q 1522 -856 1778 -856 
Q 2344 -856 2625 -561 
Q 2906 -266 2906 331 
L 2906 616 
Q 2728 306 2450 153 
Q 2172 0 1784 0 
Q 1141 0 747 490 
Q 353 981 353 1791 
Q 353 2603 747 3093 
Q 1141 3584 1784 3584 
Q 2172 3584 2450 3431 
Q 2728 3278 2906 2969 
L 2906 3500 
L 3481 3500 
L 3481 434 
z
" transform="scale(0.015625)"/>
      <path id="DejaVuSans-63" d="M 3122 3366 
L 3122 2828 
Q 2878 2963 2633 3030 
Q 2388 3097 2138 3097 
Q 1578 3097 1268 2742 
Q 959 2388 959 1747 
Q 959 1106 1268 751 
Q 1578 397 2138 397 
Q 2388 397 2633 464 
Q 2878 531 3122 666 
L 3122 134 
Q 2881 22 2623 -34 
Q 2366 -91 2075 -91 
Q 1284 -91 818 406 
Q 353 903 353 1747 
Q 353 2603 823 3093 
Q 1294 3584 2113 3584 
Q 2378 3584 2631 3529 
Q 2884 3475 3122 3366 
z
" transform="scale(0.015625)"/>
     </defs>
     <use xlink:href="#DejaVuSans-4e"/>
     <use xlink:href="#DejaVuSans-75" x="74.804688"/>
     <use xlink:href="#DejaVuSans-6d" x="138.183594"/>
     <use xlink:href="#DejaVuSans-62" x="235.595703"/>
     <use xlink:href="#DejaVuSans-65" x="299.072266"/>
     <use xlink:href="#DejaVuSans-72" x="360.595703"/>
     <use xlink:href="#DejaVuSans-20" x="401.708984"/>
     <use xlink:href="#DejaVuSans-6f" x="433.496094"/>
     <use xlink:href="#DejaVuSans-66" x="494.677734"/>
     <use xlink:href="#DejaVuSans-20" x="529.882812"/>
     <use xlink:href="#DejaVuSans-49" x="561.669922"/>
     <use xlink:href="#DejaVuSans-74" x="591.162109"/>
     <use xlink:href="#DejaVuSans-65" x="630.371094"/>
     <use xlink:href="#DejaVuSans-72" x="691.894531"/>
     <use xlink:href="#DejaVuSans-61" x="733.007812"/>
     <use xlink:href="#DejaVuSans-74" x="794.287109"/>
     <use xlink:href="#DejaVuSans-69" x="833.496094"/>
     <use xlink:href="#DejaVuSans-6f" x="861.279297"/>
     <use xlink:href="#DejaVuSans-6e" x="922.460938"/>
     <use xlink:href="#DejaVuSans-73" x="985.839844"/>
     <use xlink:href="#DejaVuSans-20" x="1037.939453"/>
     <use xlink:href="#DejaVuSans-55" x="1069.726562"/>
     <use xlink:href="#DejaVuSans-6e" x="1142.919922"/>
     <use xlink:href="#DejaVuSans-74" x="1206.298828"/>
     <use xlink:href="#DejaVuSans-69" x="1245.507812"/>
     <use xlink:href="#DejaVuSans-6c" x="1273.291016"/>
     <use xlink:href="#DejaVuSans-20" x="1301.074219"/>
     <use xlink:href="#DejaVuSans-43" x="1332.861328"/>
     <use xlink:href="#DejaVuSans-6f" x="1402.685547"/>
     <use xlink:href="#DejaVuSans-6e" x="1463.867188"/>
     <use xlink:href="#DejaVuSans-76" x="1527.246094"/>
     <use xlink:href="#DejaVuSans-65" x="1586.425781"/>
     <use xlink:href="#DejaVuSans-72" x="1647.949219"/>
     <use xlink:href="#DejaVuSans-67" x="1687.3125"/>
     <use xlink:href="#DejaVuSans-65" x="1750.789062"/>
     <use xlink:href="#DejaVuSans-6e" x="1812.3125"/>
     <use xlink:href="#DejaVuSans-63" x="1875.691406"/>
     <use xlink:href="#DejaVuSans-65" x="1930.671875"/>
    </g>
   </g>
   <g id="legend_1">
    <g id="patch_7">
     <path d="M 682.428 177.624 
L 768.36 177.624 
Q 771 177.624 771 174.984 
L 771 78.36 
Q 771 75.72 768.36 75.72 
L 682.428 75.72 
Q 679.788 75.72 679.788 78.36 
L 679.788 174.984 
Q 679.788 177.624 682.428 177.624 
z
" style="fill: #ffffff; opacity: 0.8; stroke: #cccccc; stroke-linejoin: miter"/>
    </g>
    <g id="line2d_20">
     <path d="M 685.068 88.92 
L 691.668 88.92 
L 691.668 88.92 
L 704.868 88.92 
L 704.868 88.92 
L 711.468 88.92 
" style="fill: none; stroke: #1f77b4; stroke-width: 1.5; stroke-linecap: round"/>
     <g>
      <use xlink:href="#m6ba4427466" x="698.268" y="88.92" style="fill: #1f77b4; stroke: #1f77b4"/>
     </g>
    </g>
    <g id="text_19">
     <!-- $\delta = \frac{1}{250}$ -->
     <g style="fill: #262626" transform="translate(722.028 93.54) scale(0.132 -0.132)">
      <defs>
       <path id="DejaVuSans-Oblique-3b4" d="M 3472 4053 
Q 3197 4272 2450 4272 
Q 1659 4272 1588 3906 
Q 1531 3619 2328 3469 
Q 2953 3353 3253 3003 
Q 3616 2581 3447 1716 
Q 3284 888 2763 400 
Q 2238 -91 1488 -91 
Q 741 -91 406 400 
Q 72 888 241 1747 
Q 363 2384 891 2900 
Q 1097 3100 1353 3213 
Q 913 3459 1000 3900 
Q 1166 4750 2544 4750 
Q 3234 4750 3566 4531 
L 3472 4053 
z
M 1753 3056 
Q 1525 2966 1306 2738 
Q 969 2384 847 1747 
Q 722 1113 919 756 
Q 1119 397 1584 397 
Q 2044 397 2381 759 
Q 2722 1122 2838 1716 
Q 2956 2338 2731 2638 
Q 2491 2959 2103 2994 
Q 1906 3013 1753 3056 
z
" transform="scale(0.015625)"/>
       <path id="DejaVuSans-3d" d="M 678 2906 
L 4684 2906 
L 4684 2381 
L 678 2381 
L 678 2906 
z
M 678 1631 
L 4684 1631 
L 4684 1100 
L 678 1100 
L 678 1631 
z
" transform="scale(0.015625)"/>
       <path id="DejaVuSans-35" d="M 691 4666 
L 3169 4666 
L 3169 4134 
L 1269 4134 
L 1269 2991 
Q 1406 3038 1543 3061 
Q 1681 3084 1819 3084 
Q 2600 3084 3056 2656 
Q 3513 2228 3513 1497 
Q 3513 744 3044 326 
Q 2575 -91 1722 -91 
Q 1428 -91 1123 -41 
Q 819 9 494 109 
L 494 744 
Q 775 591 1075 516 
Q 1375 441 1709 441 
Q 2250 441 2565 725 
Q 2881 1009 2881 1497 
Q 2881 1984 2565 2268 
Q 2250 2553 1709 2553 
Q 1456 2553 1204 2497 
Q 953 2441 691 2322 
L 691 4666 
z
" transform="scale(0.015625)"/>
      </defs>
      <use xlink:href="#DejaVuSans-Oblique-3b4" transform="translate(0 0.16875)"/>
      <use xlink:href="#DejaVuSans-3d" transform="translate(80.664062 0.16875)"/>
      <use xlink:href="#DejaVuSans-31" transform="translate(228.935547 43.965625) scale(0.7)"/>
      <use xlink:href="#DejaVuSans-32" transform="translate(183.935547 -39.2375) scale(0.7)"/>
      <use xlink:href="#DejaVuSans-35" transform="translate(228.47168 -39.2375) scale(0.7)"/>
      <use xlink:href="#DejaVuSans-30" transform="translate(273.007812 -39.2375) scale(0.7)"/>
      <path d="M 183.935547 18.965625 
L 183.935547 25.215625 
L 317.543945 25.215625 
L 317.543945 18.965625 
L 183.935547 18.965625 
z
"/>
     </g>
    </g>
    <g id="line2d_21">
     <path d="M 685.068 113.472 
L 691.668 113.472 
L 691.668 113.472 
L 704.868 113.472 
L 704.868 113.472 
L 711.468 113.472 
" style="fill: none; stroke: #ff7f0e; stroke-width: 1.5; stroke-linecap: round"/>
     <g>
      <use xlink:href="#m98195cb69a" x="698.268" y="113.472" style="fill: #ff7f0e; stroke: #ff7f0e"/>
     </g>
    </g>
    <g id="text_20">
     <!-- $\delta = \frac{1}{60}$ -->
     <g style="fill: #262626" transform="translate(722.028 118.092) scale(0.132 -0.132)">
      <use xlink:href="#DejaVuSans-Oblique-3b4" transform="translate(0 0.16875)"/>
      <use xlink:href="#DejaVuSans-3d" transform="translate(80.664062 0.16875)"/>
      <use xlink:href="#DejaVuSans-31" transform="translate(205.935547 43.965625) scale(0.7)"/>
      <use xlink:href="#DejaVuSans-36" transform="translate(183.935547 -39.2375) scale(0.7)"/>
      <use xlink:href="#DejaVuSans-30" transform="translate(228.47168 -39.2375) scale(0.7)"/>
      <path d="M 183.935547 18.965625 
L 183.935547 25.215625 
L 273.007812 25.215625 
L 273.007812 18.965625 
L 183.935547 18.965625 
z
"/>
     </g>
    </g>
    <g id="line2d_22">
     <path d="M 685.068 138.024 
L 691.668 138.024 
L 691.668 138.024 
L 704.868 138.024 
L 704.868 138.024 
L 711.468 138.024 
" style="fill: none; stroke: #2ca02c; stroke-width: 1.5; stroke-linecap: round"/>
     <g>
      <use xlink:href="#m01e01321e8" x="698.268" y="138.024" style="fill: #2ca02c; stroke: #2ca02c"/>
     </g>
    </g>
    <g id="text_21">
     <!-- $\delta = \frac{1}{15}$ -->
     <g style="fill: #262626" transform="translate(722.028 142.644) scale(0.132 -0.132)">
      <use xlink:href="#DejaVuSans-Oblique-3b4" transform="translate(0 0.16875)"/>
      <use xlink:href="#DejaVuSans-3d" transform="translate(80.664062 0.16875)"/>
      <use xlink:href="#DejaVuSans-31" transform="translate(205.935547 43.965625) scale(0.7)"/>
      <use xlink:href="#DejaVuSans-31" transform="translate(183.935547 -38.31875) scale(0.7)"/>
      <use xlink:href="#DejaVuSans-35" transform="translate(228.47168 -38.31875) scale(0.7)"/>
      <path d="M 183.935547 18.965625 
L 183.935547 25.215625 
L 273.007812 25.215625 
L 273.007812 18.965625 
L 183.935547 18.965625 
z
"/>
     </g>
    </g>
    <g id="line2d_23">
     <path d="M 685.068 162.444 
L 691.668 162.444 
L 691.668 162.444 
L 704.868 162.444 
L 704.868 162.444 
L 711.468 162.444 
" style="fill: none; stroke: #d62728; stroke-width: 1.5; stroke-linecap: round"/>
     <g>
      <use xlink:href="#m6a3bc9bd7f" x="698.268" y="162.444" style="fill: #d62728; stroke: #d62728"/>
     </g>
    </g>
    <g id="text_22">
     <!-- $\delta = \frac{1}{5}$ -->
     <g style="fill: #262626" transform="translate(722.028 167.064) scale(0.132 -0.132)">
      <use xlink:href="#DejaVuSans-Oblique-3b4" transform="translate(0 0.16875)"/>
      <use xlink:href="#DejaVuSans-3d" transform="translate(80.664062 0.16875)"/>
      <use xlink:href="#DejaVuSans-31" transform="translate(183.935547 43.965625) scale(0.7)"/>
      <use xlink:href="#DejaVuSans-35" transform="translate(183.935547 -38.31875) scale(0.7)"/>
      <path d="M 183.935547 18.965625 
L 183.935547 25.215625 
L 228.47168 25.215625 
L 228.47168 18.965625 
L 183.935547 18.965625 
z
"/>
     </g>
    </g>
   </g>
  </g>
 </g>
 <defs>
  <clipPath id="pc1b65ee13b">
   <rect x="108" y="69.12" width="669.6" height="443.52"/>
  </clipPath>
 </defs>
</svg>
